Commissioner-LightItalic.ufo
<glyph name="numbersign" format="2">
  <advance width="1357.3894736842105"/>
  <unicode hex="0023"/>
  <outline>
    <contour>
      <point x="-0.5894736842105281" y="319.4526315789474" type="line"/>
      <point x="121.49473684210527" y="319.4526315789474"/>
      <point x="237.22105263157894" y="319.4526315789474"/>
      <point x="336.58947368421053" y="319.4526315789474" type="curve"/>
      <point x="830.8631578947369" y="319.4526315789474" type="line"/>
      <point x="930.2315789473685" y="319.4526315789474"/>
      <point x="1045.957894736842" y="319.4526315789474"/>
      <point x="1168.0421052631577" y="319.4526315789474" type="curve"/>
      <point x="1190.0631578947368" y="422.69473684210527" type="line"/>
      <point x="1067.9789473684211" y="422.69473684210527"/>
      <point x="952.2526315789473" y="422.69473684210527"/>
      <point x="852.8842105263158" y="422.69473684210527" type="curve"/>
      <point x="358.6105263157895" y="422.69473684210527" type="line"/>
      <point x="259.2421052631579" y="422.69473684210527"/>
      <point x="143.5157894736842" y="422.69473684210527"/>
      <point x="21.43157894736842" y="422.69473684210527" type="curve"/>
    </contour>
    <contour>
      <point x="139.32631578947368" y="0.0" type="curve"/>
      <point x="253.6421052631579" y="0.0" type="line"/>
      <point x="312.2105263157895" y="139.6421052631579"/>
      <point x="360.2105263157895" y="254.86315789473684"/>
      <point x="429.13684210526316" y="421.57894736842104" type="curve"/>
      <point x="619.5578947368421" y="879.7263157894737" type="line"/>
      <point x="694.1263157894737" y="1058.8"/>
      <point x="742.3368421052631" y="1175.0105263157893"/>
      <point x="799.9789473684211" y="1313.157894736842" type="curve"/>
      <point x="685.6631578947367" y="1313.157894736842" type="line"/>
      <point x="627.6631578947369" y="1173.578947368421"/>
      <point x="577.8105263157895" y="1054.4421052631578"/>
      <point x="505.2421052631579" y="879.7263157894737" type="curve"/>
      <point x="314.82105263157894" y="421.57894736842104" type="line"/>
      <point x="245.89473684210526" y="256.5052631578948"/>
      <point x="197.17894736842106" y="137.85263157894738"/>
    </contour>
    <contour>
      <point x="234.39999999999998" y="884.4631578947368" type="line"/>
      <point x="356.4842105263158" y="884.4631578947368"/>
      <point x="472.2105263157895" y="884.4631578947368"/>
      <point x="571.578947368421" y="884.4631578947368" type="curve"/>
      <point x="1065.8526315789472" y="884.4631578947368" type="line"/>
      <point x="1165.221052631579" y="884.4631578947368"/>
      <point x="1280.9473684210527" y="884.4631578947368"/>
      <point x="1403.0315789473684" y="884.4631578947368" type="curve"/>
      <point x="1425.0526315789473" y="987.7052631578947" type="line"/>
      <point x="1302.9684210526316" y="987.7052631578947"/>
      <point x="1187.2421052631578" y="987.7052631578947"/>
      <point x="1087.873684210526" y="987.7052631578947" type="curve"/>
      <point x="593.6" y="987.7052631578947" type="line"/>
      <point x="494.23157894736846" y="987.7052631578947"/>
      <point x="378.5052631578948" y="987.7052631578947"/>
      <point x="256.42105263157896" y="987.7052631578947" type="curve"/>
    </contour>
    <contour>
      <point x="610.063157894737" y="0.0" type="curve"/>
      <point x="724.3789473684211" y="0.0" type="line"/>
      <point x="782.9473684210526" y="139.6421052631579"/>
      <point x="830.9473684210527" y="254.86315789473684"/>
      <point x="899.8736842105262" y="421.57894736842104" type="curve"/>
      <point x="1090.2947368421053" y="879.7263157894737" type="line"/>
      <point x="1164.8631578947368" y="1058.8"/>
      <point x="1213.0736842105264" y="1175.0105263157893"/>
      <point x="1270.715789473684" y="1313.157894736842" type="curve"/>
      <point x="1156.4" y="1313.157894736842" type="line"/>
      <point x="1098.4" y="1173.578947368421"/>
      <point x="1048.5473684210526" y="1054.4421052631578"/>
      <point x="975.9789473684211" y="879.7263157894737" type="curve"/>
      <point x="785.5578947368421" y="421.57894736842104" type="line"/>
      <point x="716.6315789473683" y="256.5052631578948"/>
      <point x="667.9157894736842" y="137.85263157894738"/>
    </contour>
  </outline>
</glyph>
<glyph name="dollar" format="2">
  <advance width="1116.8842105263159"/>
  <unicode hex="0024"/>
  <outline>
    <contour>
      <point x="514.1473684210526" y="-20.147368421052633" type="curve" smooth="yes"/>
      <point x="806.2526315789474" y="-20.147368421052633"/>
      <point x="951.8315789473685" y="100.63157894736842"/>
      <point x="996.6947368421053" y="316.94736842105266" type="curve" smooth="yes"/>
      <point x="1035.2" y="501.1157894736843"/>
      <point x="958.4842105263158" y="625.4736842105264"/>
      <point x="659.7052631578948" y="750.4631578947368" type="curve" smooth="yes"/>
      <point x="410.7368421052631" y="855.5157894736842"/>
      <point x="327.7473684210526" y="925.0736842105263"/>
      <point x="359.09473684210525" y="1070.5263157894738" type="curve" smooth="yes"/>
      <point x="393.36842105263156" y="1235.3263157894737"/>
      <point x="553.5368421052632" y="1274.6736842105263"/>
      <point x="705.2210526315789" y="1274.6736842105263" type="curve"/>
      <point x="815.5789473684212" y="1274.6736842105263"/>
      <point x="974.8" y="1231.3894736842105"/>
      <point x="1070.7368421052631" y="1155.2421052631578" type="curve"/>
      <point x="1112.484210526316" y="1270.7157894736843" type="line"/>
      <point x="1038.8210526315788" y="1326.2947368421053"/>
      <point x="859.1578947368421" y="1393.4315789473685"/>
      <point x="700.5684210526315" y="1393.4315789473685" type="curve" smooth="yes"/>
      <point x="430.0421052631579" y="1393.4315789473685"/>
      <point x="277.3263157894737" y="1283.284210526316"/>
      <point x="236.46315789473684" y="1088.6105263157895" type="curve" smooth="yes"/>
      <point x="190.31578947368422" y="872.4421052631578"/>
      <point x="306.10526315789474" y="768.8631578947369"/>
      <point x="565.7263157894737" y="657.3052631578947" type="curve" smooth="yes"/>
      <point x="780.6947368421053" y="565.1789473684211"/>
      <point x="905.4105263157895" y="485.41052631578947"/>
      <point x="873.7052631578948" y="332.5263157894737" type="curve" smooth="yes"/>
      <point x="833.221052631579" y="137.6"/>
      <point x="672.8421052631579" y="97.17894736842106"/>
      <point x="516.2947368421053" y="97.17894736842106" type="curve"/>
      <point x="328.9473684210526" y="97.17894736842106"/>
      <point x="201.22105263157894" y="156.10526315789474"/>
      <point x="92.35789473684211" y="235.17894736842106" type="curve"/>
      <point x="52.96842105263158" y="116.8421052631579" type="line"/>
      <point x="136.18947368421053" y="52.84210526315789"/>
      <point x="302.2947368421053" y="-20.147368421052633"/>
    </contour>
    <contour>
      <point x="351.8947368421052" y="-274.0" type="curve"/>
      <point x="458.42105263157896" y="-274.0" type="line"/>
      <point x="508.42105263157896" y="-40.0"/>
      <point x="552.421052631579" y="168.0"/>
      <point x="598.421052631579" y="384.0" type="curve"/>
      <point x="718.421052631579" y="948.0" type="line"/>
      <point x="764.421052631579" y="1164.0"/>
      <point x="808.421052631579" y="1372.0"/>
      <point x="858.421052631579" y="1606.0" type="curve"/>
      <point x="751.8947368421052" y="1606.0" type="line"/>
      <point x="701.8947368421052" y="1372.0"/>
      <point x="657.8947368421052" y="1164.0"/>
      <point x="611.8947368421052" y="948.0" type="curve"/>
      <point x="491.8947368421052" y="384.0" type="line"/>
      <point x="445.8947368421052" y="168.0"/>
      <point x="401.8947368421052" y="-40.0"/>
    </contour>
  </outline>
</glyph>
<glyph name="ampersand" format="2">
  <advance width="1451.2643678160919"/>
  <unicode hex="0026"/>
  <outline>
    <contour>
      <point x="1152.0459770114942" y="0.0" type="curve"/>
      <point x="1307.0804597701149" y="0.0" type="line"/>
      <point x="1214.0459770114942" y="116.50574712643677"/>
      <point x="1122.5747126436781" y="231.88505747126436"/>
      <point x="1028.6666666666667" y="347.264367816092" type="curve"/>
      <point x="660.2988505747127" y="807.0114942528735" type="line" smooth="yes"/>
      <point x="561.2413793103449" y="930.0689655172414"/>
      <point x="526.2758620689655" y="1033.9080459770114"/>
      <point x="551.9310344827586" y="1153.4022988505747" type="curve" smooth="yes"/>
      <point x="578.8045977011494" y="1273.7701149425288"/>
      <point x="670.2068965517242" y="1345.0114942528735"/>
      <point x="794.8505747126437" y="1345.0114942528735" type="curve"/>
      <point x="907.6551724137931" y="1345.0114942528735"/>
      <point x="994.0919540229885" y="1253.8620689655172"/>
      <point x="968.0" y="1123.057471264368" type="curve" smooth="yes"/>
      <point x="935.471264367816" y="959.7241379310344"/>
      <point x="794.1379310344828" y="899.632183908046"/>
      <point x="623.5172413793103" y="834.7586206896552" type="curve"/>
      <point x="690.0" y="752.3678160919541" type="line"/>
      <point x="858.4367816091955" y="816.367816091954"/>
      <point x="1044.965517241379" y="896.7126436781608"/>
      <point x="1088.183908045977" y="1105.5862068965516" type="curve" smooth="yes"/>
      <point x="1127.7471264367814" y="1299.83908045977"/>
      <point x="987.3333333333334" y="1451.5632183908046"/>
      <point x="796.0689655172414" y="1451.5632183908046" type="curve" smooth="yes"/>
      <point x="617.9080459770114" y="1451.5632183908046"/>
      <point x="463.8390804597701" y="1351.816091954023"/>
      <point x="425.0574712643678" y="1168.0919540229884" type="curve" smooth="yes"/>
      <point x="390.6206896551724" y="1001.5632183908046"/>
      <point x="454.7126436781609" y="866.0919540229885"/>
      <point x="557.2413793103449" y="738.0" type="curve" smooth="yes"/>
      <point x="932.2988505747127" y="272.0" type="line"/>
      <point x="1005.9540229885057" y="182.0"/>
      <point x="1082.3908045977012" y="87.2183908045977"/>
    </contour>
    <contour>
      <point x="474.00000000000006" y="-19.563218390804597" type="curve" smooth="yes"/>
      <point x="671.0574712643678" y="-19.563218390804597"/>
      <point x="794.1839080459771" y="67.8390804597701"/>
      <point x="948.8045977011494" y="228.11494252873564" type="curve"/>
      <point x="975.1494252873563" y="228.11494252873564" type="line"/>
      <point x="968.4597701149426" y="258.367816091954" type="line"/>
      <point x="900.1379310344828" y="333.44827586206895" type="line"/>
      <point x="750.8045977011494" y="162.20689655172413"/>
      <point x="645.8390804597701" y="95.58620689655172"/>
      <point x="485.7241379310345" y="95.58620689655172" type="curve"/>
      <point x="277.8620689655172" y="95.58620689655172"/>
      <point x="179.83908045977014" y="240.82758620689654"/>
      <point x="215.14942528735634" y="410.5977011494253" type="curve" smooth="yes"/>
      <point x="251.67816091954026" y="584.8045977011494"/>
      <point x="387.7931034482759" y="670.9885057471264"/>
      <point x="583.2183908045977" y="738.2988505747127" type="curve"/>
      <point x="537.4252873563217" y="828.2528735632184" type="line"/>
      <point x="335.7701149425288" y="763.471264367816"/>
      <point x="139.9310344827586" y="656.7816091954023"/>
      <point x="89.49425287356321" y="417.4712643678161" type="curve" smooth="yes"/>
      <point x="44.712643678160916" y="205.2183908045977"/>
      <point x="177.4022988505747" y="-19.563218390804597"/>
    </contour>
    <contour>
      <point x="1043.264367816092" y="313.10344827586204" type="line"/>
      <point x="1157.9540229885058" y="439.97701149425285"/>
      <point x="1264.6436781609195" y="560.4137931034483"/>
      <point x="1377.3333333333333" y="687.2873563218391" type="curve"/>
      <point x="1276.0919540229886" y="756.8045977011494" type="line"/>
      <point x="1174.8735632183907" y="635.1494252873563"/>
      <point x="1077.655172413793" y="519.9310344827586"/>
      <point x="972.0" y="393.8390804597701" type="curve"/>
    </contour>
  </outline>
</glyph>
<glyph name="parenleft" format="2">
  <advance width="755.5578947368421"/>
  <unicode hex="0028"/>
  <outline>
    <contour>
      <point x="427.93684210526317" y="-235.81052631578947" type="curve"/>
      <point x="523.8736842105263" y="-189.34736842105264" type="line"/>
      <point x="345.0315789473684" y="2.1473684210526303"/>
      <point x="212.04210526315788" y="270.2105263157895"/>
      <point x="299.32631578947365" y="677.7052631578947" type="curve" smooth="yes"/>
      <point x="386.61052631578946" y="1087.2"/>
      <point x="634.8842105263158" y="1330.6315789473683"/>
      <point x="884.6526315789474" y="1483.5578947368422" type="curve"/>
      <point x="782.0" y="1531.0947368421052" type="line"/>
      <point x="491.62105263157895" y="1358.1052631578946"/>
      <point x="256.7578947368421" y="1111.5157894736842"/>
      <point x="168.04210526315788" y="691.9368421052632" type="curve" smooth="yes"/>
      <point x="79.3263157894737" y="273.6421052631579"/>
      <point x="212.12631578947367" y="-17.894736842105267"/>
    </contour>
  </outline>
</glyph>
<glyph name="asterisk" format="2">
  <advance width="935.6842105263158"/>
  <unicode hex="002A"/>
  <outline>
    <contour>
      <point x="875.0736842105263" y="684.6105263157895" type="curve"/>
      <point x="943.7684210526317" y="758.5263157894738" type="line"/>
      <point x="832.1894736842105" y="858.7368421052631"/>
      <point x="716.9684210526316" y="958.2315789473685"/>
      <point x="605.3894736842104" y="1058.0842105263157" type="curve"/>
      <point x="498.1052631578947" y="1167.8736842105263"/>
      <point x="394.82105263157894" y="1276.378947368421"/>
      <point x="289.178947368421" y="1384.5263157894735" type="curve"/>
      <point x="220.4842105263158" y="1310.6105263157895" type="line"/>
      <point x="332.06315789473683" y="1210.757894736842"/>
      <point x="447.2842105263158" y="1110.9052631578948"/>
      <point x="558.8631578947369" y="1009.4105263157894" type="curve"/>
      <point x="666.1473684210526" y="901.2631578947368"/>
      <point x="769.4315789473684" y="792.7578947368421"/>
    </contour>
    <contour>
      <point x="172.73684210526315" y="834.4631578947368" type="line"/>
      <point x="313.09473684210525" y="890.6105263157895"/>
      <point x="451.81052631578945" y="947.1157894736841"/>
      <point x="593.8105263157894" y="1003.2631578947368" type="curve"/>
      <point x="736.3157894736843" y="1049.6842105263156"/>
      <point x="882.1052631578947" y="1094.1052631578948"/>
      <point x="1024.6105263157895" y="1139.242105263158" type="curve"/>
      <point x="991.5157894736842" y="1234.6736842105263" type="line"/>
      <point x="851.1578947368421" y="1178.5263157894738"/>
      <point x="712.4421052631578" y="1122.021052631579"/>
      <point x="572.0842105263158" y="1067.8736842105263" type="curve"/>
      <point x="427.93684210526317" y="1019.4526315789474"/>
      <point x="283.43157894736845" y="976.6736842105263"/>
      <point x="139.6421052631579" y="930.2526315789474" type="curve"/>
    </contour>
    <contour>
      <point x="437.978947368421" y="601.6421052631579" type="curve"/>
      <point x="536.8421052631579" y="581.4105263157894" type="line"/>
      <point x="563.9789473684211" y="729.2"/>
      <point x="589.4736842105264" y="878.9894736842105"/>
      <point x="614.9684210526316" y="1030.0631578947368" type="curve"/>
      <point x="652.1894736842105" y="1174.778947368421"/>
      <point x="689.0526315789474" y="1321.4947368421053"/>
      <point x="726.2736842105263" y="1467.8526315789475" type="curve"/>
      <point x="627.4105263157894" y="1487.7263157894738" type="line"/>
      <point x="600.2736842105263" y="1339.9368421052632"/>
      <point x="574.7789473684211" y="1190.5052631578947"/>
      <point x="549.2842105263157" y="1044.0" type="curve"/>
      <point x="512.0631578947368" y="894.357894736842"/>
      <point x="475.2" y="748.0"/>
    </contour>
  </outline>
</glyph>
<glyph name="plus" format="2">
  <advance width="1170.7368421052631"/>
  <unicode hex="002B"/>
  <outline>
    <contour>
      <point x="443.87368421052633" y="122.48421052631579" type="curve"/>
      <point x="565.6421052631579" y="122.48421052631579" type="line"/>
      <point x="591.0736842105263" y="242.92631578947368"/>
      <point x="616.1473684210525" y="360.29473684210524"/>
      <point x="637.2210526315789" y="459.30526315789473" type="curve"/>
      <point x="695.0736842105263" y="729.6421052631579" type="line"/>
      <point x="716.5052631578947" y="830.0842105263158"/>
      <point x="741.578947368421" y="947.0947368421052"/>
      <point x="767.0105263157894" y="1067.536842105263" type="curve"/>
      <point x="645.2421052631579" y="1067.536842105263" type="line"/>
      <point x="619.8105263157895" y="947.0947368421052"/>
      <point x="594.7368421052631" y="829.7263157894737"/>
      <point x="573.3052631578947" y="729.2842105263159" type="curve"/>
      <point x="515.4526315789474" y="459.30526315789473" type="line"/>
      <point x="494.37894736842105" y="360.29473684210524"/>
      <point x="469.30526315789473" y="242.92631578947368"/>
    </contour>
    <contour>
      <point x="137.89473684210526" y="536.378947368421" type="line"/>
      <point x="259.9789473684211" y="536.378947368421"/>
      <point x="375.70526315789476" y="536.378947368421"/>
      <point x="475.0736842105263" y="536.378947368421" type="curve"/>
      <point x="712.9263157894737" y="536.378947368421" type="line"/>
      <point x="812.2947368421053" y="536.378947368421"/>
      <point x="928.021052631579" y="536.378947368421"/>
      <point x="1050.1052631578946" y="536.378947368421" type="curve"/>
      <point x="1074.6315789473683" y="653.6421052631579" type="line"/>
      <point x="952.5473684210526" y="653.6421052631579"/>
      <point x="836.8210526315789" y="653.6421052631579"/>
      <point x="737.4526315789474" y="653.6421052631579" type="curve"/>
      <point x="499.59999999999997" y="653.6421052631579" type="line"/>
      <point x="400.2315789473684" y="653.6421052631579"/>
      <point x="284.5052631578947" y="653.6421052631579"/>
      <point x="162.42105263157896" y="653.6421052631579" type="curve"/>
    </contour>
  </outline>
</glyph>
<glyph name="comma" format="2">
  <advance width="448.7578947368421"/>
  <unicode hex="002C"/>
  <outline>
    <contour>
      <point x="-98.61052631578947" y="-314.0" type="curve"/>
      <point x="-13.978947368421046" y="-311.6421052631579" type="line"/>
      <point x="96.82105263157895" y="-227.4315789473684"/>
      <point x="220.71578947368423" y="-66.71578947368421"/>
      <point x="253.22105263157897" y="93.60000000000001" type="curve" smooth="yes"/>
      <point x="266.44210526315794" y="159.34736842105264"/>
      <point x="248.14736842105265" y="207.30526315789473"/>
      <point x="185.53684210526316" y="219.9578947368421" type="curve"/>
      <point x="117.05263157894738" y="215.09473684210525" type="line"/>
      <point x="104.54736842105264" y="156.0"/>
      <point x="92.04210526315791" y="96.54736842105264"/>
      <point x="80.25263157894737" y="39.95789473684211" type="curve"/>
      <point x="51.17894736842106" y="-99.76842105263158"/>
      <point x="4.8842105263157904" y="-202.92631578947368"/>
    </contour>
  </outline>
</glyph>
<glyph name="hyphen" format="2">
  <advance width="843.578947368421"/>
  <unicode hex="002D"/>
  <outline>
    <contour>
      <point x="137.17894736842106" y="534.5894736842105" type="line"/>
      <point x="243.47368421052633" y="534.5894736842105"/>
      <point x="343.76842105263154" y="534.5894736842105"/>
      <point x="429.7052631578947" y="534.5894736842105" type="curve"/>
      <point x="515.6421052631579" y="534.5894736842105"/>
      <point x="615.9368421052632" y="534.5894736842105"/>
      <point x="722.2315789473683" y="534.5894736842105" type="curve"/>
      <point x="746.4" y="651.8526315789474" type="line"/>
      <point x="640.1052631578948" y="651.8526315789474"/>
      <point x="539.8105263157895" y="651.8526315789474"/>
      <point x="453.87368421052633" y="651.8526315789474" type="curve"/>
      <point x="367.93684210526317" y="651.8526315789474"/>
      <point x="267.64210526315793" y="651.8526315789474"/>
      <point x="161.34736842105264" y="651.8526315789474" type="curve"/>
    </contour>
  </outline>
</glyph>
<glyph name="period" format="2">
  <advance width="456.9894736842105"/>
  <unicode hex="002E"/>
  <outline>
    <contour>
      <point x="135.17894736842106" y="-20.50526315789474" type="curve" smooth="yes"/>
      <point x="207.0736842105263" y="-20.50526315789474"/>
      <point x="247.30526315789473" y="16.08421052631579"/>
      <point x="260.1684210526316" y="82.96842105263157" type="curve" smooth="yes"/>
      <point x="273.3894736842105" y="152.0"/>
      <point x="230.44210526315788" y="211.38947368421054"/>
      <point x="153.47368421052633" y="211.38947368421054" type="curve" smooth="yes"/>
      <point x="82.86315789473684" y="211.38947368421054"/>
      <point x="42.63157894736842" y="178.0842105263158"/>
      <point x="28.126315789473683" y="110.84210526315789" type="curve" smooth="yes"/>
      <point x="13.26315789473684" y="40.88421052631579"/>
      <point x="55.13684210526316" y="-20.50526315789474"/>
    </contour>
  </outline>
</glyph>
<glyph name="slash" format="2">
  <advance width="885.3052631578947"/>
  <unicode hex="002F"/>
  <outline>
    <contour>
      <point x="-38.31578947368421" y="0.0" type="curve"/>
      <point x="100.25263157894737" y="0.0" type="line"/>
      <point x="195.38947368421051" y="148.0"/>
      <point x="274.88421052631577" y="272.3578947368421"/>
      <point x="392.9473684210526" y="456.0" type="curve"/>
      <point x="708.5684210526316" y="948.0" type="line"/>
      <point x="832.6315789473684" y="1142.0"/>
      <point x="916.1263157894737" y="1272.0"/>
      <point x="1014.9052631578948" y="1426.0" type="curve"/>
      <point x="876.3368421052633" y="1426.0" type="line"/>
      <point x="777.5578947368421" y="1272.0"/>
      <point x="694.0631578947368" y="1142.0"/>
      <point x="572.3578947368421" y="952.3578947368421" type="curve"/>
      <point x="254.37894736842105" y="456.0" type="line"/>
      <point x="136.31578947368422" y="272.3578947368421"/>
      <point x="56.82105263157896" y="148.0"/>
    </contour>
  </outline>
</glyph>
<glyph name="zero" format="2">
  <advance width="1298.5263157894738"/>
  <unicode hex="0030"/>
  <outline>
    <contour>
      <point x="604.2315789473685" y="-20.147368421052633" type="curve" smooth="yes"/>
      <point x="924.6947368421053" y="-20.147368421052633"/>
      <point x="1117.7684210526315" y="197.07368421052632"/>
      <point x="1207.7684210526315" y="618.5052631578948" type="curve" smooth="yes"/>
      <point x="1300.6947368421052" y="1056.0"/>
      <point x="1150.9052631578948" y="1395.578947368421"/>
      <point x="790.3578947368421" y="1395.578947368421" type="curve" smooth="yes"/>
      <point x="456.25263157894733" y="1395.578947368421"/>
      <point x="256.7578947368421" y="1164.357894736842"/>
      <point x="172.39999999999998" y="759.4947368421052" type="curve" smooth="yes"/>
      <point x="82.18947368421053" y="331.22105263157897"/>
      <point x="219.47368421052633" y="-20.147368421052633"/>
    </contour>
    <contour>
      <point x="607.0947368421054" y="99.32631578947368" type="curve"/>
      <point x="316.10526315789474" y="99.32631578947368"/>
      <point x="231.28421052631577" y="385.2"/>
      <point x="307.4105263157895" y="742.1263157894737" type="curve" smooth="yes"/>
      <point x="376.0421052631579" y="1065.7894736842104"/>
      <point x="514.1473684210526" y="1275.7473684210527"/>
      <point x="788.5684210526316" y="1275.7473684210527" type="curve"/>
      <point x="1054.778947368421" y="1275.7473684210527"/>
      <point x="1151.9578947368423" y="1005.0105263157893"/>
      <point x="1073.4736842105265" y="633.8736842105263" type="curve" smooth="yes"/>
      <point x="1004.8421052631579" y="311.6421052631579"/>
      <point x="876.9473684210527" y="99.32631578947368"/>
    </contour>
  </outline>
</glyph>
<glyph name="one" format="2">
  <advance width="841.7684210526315"/>
  <unicode hex="0031"/>
  <outline>
    <contour>
      <point x="209.9157894736842" y="997.1789473684211" type="line"/>
      <point x="376.06315789473683" y="1077.957894736842"/>
      <point x="539.8526315789474" y="1159.0947368421052"/>
      <point x="705.642105263158" y="1239.8736842105263" type="curve"/>
      <point x="735.7473684210527" y="1375.578947368421" type="line"/>
      <point x="556.8" y="1287.578947368421"/>
      <point x="379.85263157894735" y="1201.221052631579"/>
      <point x="201.26315789473685" y="1113.221052631579" type="curve"/>
    </contour>
    <contour>
      <point x="379.09473684210525" y="0.0" type="curve"/>
      <point x="510.6736842105263" y="0.0" type="line"/>
      <point x="542.3157894736842" y="147.85263157894738"/>
      <point x="567.9578947368421" y="276.06315789473683"/>
      <point x="603.9578947368421" y="439.13684210526316" type="curve"/>
      <point x="700.6736842105263" y="894.7157894736843" type="line"/>
      <point x="735.9578947368421" y="1062.5684210526315"/>
      <point x="769.9578947368421" y="1223.8526315789472"/>
      <point x="800.6736842105263" y="1370.1473684210525" type="curve"/>
      <point x="735.7473684210527" y="1375.578947368421" type="line"/>
      <point x="657.3684210526316" y="1310.5894736842106" type="line"/>
      <point x="626.0842105263158" y="1163.8105263157895"/>
      <point x="596.4421052631579" y="1023.957894736842"/>
      <point x="565.1578947368421" y="877.1789473684211" type="curve"/>
      <point x="472.37894736842105" y="439.13684210526316" type="line"/>
      <point x="436.37894736842105" y="276.06315789473683"/>
      <point x="410.7368421052632" y="147.85263157894738"/>
    </contour>
  </outline>
</glyph>
<glyph name="two" format="2">
  <advance width="1101.0315789473684"/>
  <unicode hex="0032"/>
  <outline>
    <contour>
      <point x="-4.084210526315793" y="0.0" type="line"/>
      <point x="885.6210526315789" y="0.0" type="line"/>
      <point x="910.1473684210526" y="118.69473684210527" type="line"/>
      <point x="754.3789473684211" y="118.69473684210527"/>
      <point x="596.9684210526316" y="118.69473684210527"/>
      <point x="441.2" y="118.69473684210527" type="curve"/>
      <point x="154.58947368421053" y="118.69473684210527" type="line"/>
      <point x="173.9578947368421" y="83.45263157894736" type="line"/>
      <point x="443.4947368421053" y="280.2736842105263" type="line"/>
      <point x="810.1684210526315" y="548.4421052631578"/>
      <point x="1010.6315789473684" y="724.2105263157895"/>
      <point x="1059.2" y="958.3368421052631" type="curve" smooth="yes"/>
      <point x="1108.063157894737" y="1195.7894736842106"/>
      <point x="989.7473684210527" y="1395.578947368421"/>
      <point x="698.7157894736843" y="1395.578947368421" type="curve" smooth="yes"/>
      <point x="533.3473684210527" y="1395.578947368421"/>
      <point x="371.99999999999994" y="1332.2315789473685"/>
      <point x="257.34736842105264" y="1273.663157894737" type="curve"/>
      <point x="246.0421052631579" y="1132.7368421052631" type="line"/>
      <point x="419.09473684210525" y="1232.442105263158"/>
      <point x="567.0947368421052" y="1275.0315789473684"/>
      <point x="677.2421052631579" y="1275.0315789473684" type="curve"/>
      <point x="884.5473684210526" y="1275.0315789473684"/>
      <point x="962.1052631578948" y="1144.2105263157896"/>
      <point x="924.4000000000001" y="967.3263157894737" type="curve" smooth="yes"/>
      <point x="879.621052631579" y="752.1473684210526"/>
      <point x="666.2105263157895" y="579.8105263157895"/>
      <point x="315.6842105263158" y="319.70526315789476" type="curve"/>
      <point x="215.41052631578947" y="246.3578947368421"/>
      <point x="117.49473684210525" y="171.7263157894737"/>
      <point x="17.221052631578942" y="98.37894736842105" type="curve"/>
    </contour>
  </outline>
</glyph>
<glyph name="three" format="2">
  <advance width="1134.5057471264367"/>
  <unicode hex="0033"/>
  <outline>
    <contour>
      <point x="480.34482758620686" y="-20.344827586206897" type="curve" smooth="yes"/>
      <point x="792.3218390804598" y="-20.344827586206897"/>
      <point x="947.8850574712643" y="102.87356321839081"/>
      <point x="993.4482758620688" y="317.9080459770115" type="curve" smooth="yes"/>
      <point x="1039.4482758620688" y="540.7816091954022"/>
      <point x="884.0459770114942" y="679.3103448275862"/>
      <point x="763.264367816092" y="710.8735632183908" type="curve"/>
      <point x="766.0459770114942" y="726.7816091954023" type="line"/>
      <point x="924.1379310344828" y="756.0"/>
      <point x="1053.0114942528735" y="839.7471264367816"/>
      <point x="1089.0114942528735" y="1008.528735632184" type="curve" smooth="yes"/>
      <point x="1136.2298850574714" y="1226.0919540229884"/>
      <point x="974.3218390804598" y="1395.9080459770114"/>
      <point x="715.2183908045977" y="1395.9080459770114" type="curve" smooth="yes"/>
      <point x="554.9655172413793" y="1395.9080459770114"/>
      <point x="398.0919540229885" y="1332.5977011494253"/>
      <point x="286.62068965517244" y="1274.1609195402298" type="curve"/>
      <point x="276.0229885057471" y="1136.0689655172414" type="line"/>
      <point x="444.2068965517242" y="1234.5977011494253"/>
      <point x="587.7701149425287" y="1274.8505747126437"/>
      <point x="694.896551724138" y="1274.8505747126437" type="curve"/>
      <point x="879.3563218390804" y="1274.8505747126437"/>
      <point x="986.5057471264367" y="1172.9195402298851"/>
      <point x="951.1954022988506" y="1006.367816091954" type="curve" smooth="yes"/>
      <point x="919.103448275862" y="856.6896551724138"/>
      <point x="787.4252873563219" y="774.7586206896551"/>
      <point x="517.3793103448276" y="774.7586206896551" type="curve"/>
      <point x="479.9080459770115" y="774.7586206896551"/>
      <point x="440.0" y="774.7586206896551"/>
      <point x="402.5287356321839" y="774.7586206896551" type="curve"/>
      <point x="377.58620689655174" y="661.6091954022988" type="line"/>
      <point x="416.62068965517244" y="661.6091954022988"/>
      <point x="458.5287356321839" y="661.6091954022988"/>
      <point x="497.5632183908046" y="661.6091954022988" type="curve"/>
      <point x="768.8275862068965" y="661.6091954022988"/>
      <point x="902.0689655172413" y="531.4942528735633"/>
      <point x="861.5402298850574" y="342.4137931034483" type="curve" smooth="yes"/>
      <point x="828.2298850574712" y="185.86206896551724"/>
      <point x="717.8620689655172" y="99.93103448275863"/>
      <point x="481.12643678160924" y="99.93103448275863" type="curve"/>
      <point x="318.9425287356322" y="99.93103448275863"/>
      <point x="181.4712643678161" y="154.71264367816093"/>
      <point x="53.03448275862068" y="239.93103448275863" type="curve"/>
      <point x="12.620689655172406" y="118.18390804597702" type="line"/>
      <point x="113.05747126436782" y="45.3103448275862"/>
      <point x="286.78160919540227" y="-20.344827586206897"/>
    </contour>
  </outline>
</glyph>
<glyph name="four" format="2">
  <advance width="1192.0689655172414"/>
  <unicode hex="0034"/>
  <outline>
    <contour>
      <point x="631.8620689655172" y="0.0" type="curve"/>
      <point x="763.7701149425287" y="0.0" type="line"/>
      <point x="790.551724137931" y="125.9080459770115"/>
      <point x="811.3333333333334" y="225.0344827586207"/>
      <point x="842.1149425287356" y="371.72413793103453" type="curve"/>
      <point x="951.7701149425287" y="888.3448275862069" type="line"/>
      <point x="984.9885057471264" y="1047.5632183908046"/>
      <point x="1017.7701149425287" y="1203.1264367816093"/>
      <point x="1052.9885057471265" y="1370.344827586207" type="curve"/>
      <point x="918.2988505747127" y="1370.344827586207" type="line"/>
      <point x="835.4252873563219" y="1279.471264367816"/>
      <point x="750.5517241379309" y="1186.5977011494253"/>
      <point x="667.6781609195402" y="1095.7241379310344" type="curve"/>
      <point x="434.71264367816093" y="841.9770114942529" type="line"/>
      <point x="317.4022988505747" y="713.8850574712644"/>
      <point x="158.0919540229885" y="539.3563218390805"/>
      <point x="48.0" y="417.264367816092" type="curve"/>
      <point x="28.62068965517241" y="323.9310344827586" type="line"/>
      <point x="764.2758620689656" y="323.9310344827586" type="line"/>
      <point x="865.3103448275862" y="323.9310344827586"/>
      <point x="1012.6896551724138" y="323.9310344827586"/>
      <point x="1104.942528735632" y="323.9310344827586" type="curve"/>
      <point x="1128.6666666666667" y="442.55172413793105" type="line"/>
      <point x="1037.1954022988507" y="442.55172413793105"/>
      <point x="889.0344827586206" y="442.55172413793105"/>
      <point x="788.0" y="442.55172413793105" type="curve"/>
      <point x="760.4367816091954" y="442.55172413793105" type="line"/>
      <point x="163.05747126436782" y="442.55172413793105" type="line"/>
      <point x="162.6206896551724" y="387.448275862069" type="line"/>
      <point x="246.71264367816093" y="479.5402298850575"/>
      <point x="330.367816091954" y="571.1954022988506"/>
      <point x="414.45977011494256" y="663.2873563218392" type="curve"/>
      <point x="732.3908045977012" y="1009.2183908045977" type="line"/>
      <point x="829.264367816092" y="1116.0919540229886"/>
      <point x="924.5747126436781" y="1220.6206896551726"/>
      <point x="1024.6666666666665" y="1329.4942528735633" type="curve"/>
      <point x="911.5172413793103" y="1302.551724137931" type="line"/>
      <point x="880.2988505747127" y="1156.4597701149426"/>
      <point x="850.2988505747127" y="1017.2413793103448"/>
      <point x="819.0804597701149" y="870.3678160919541" type="curve"/>
      <point x="720.1149425287356" y="403.1954022988506" type="line"/>
      <point x="710.2068965517242" y="371.72413793103453" type="line"/>
      <point x="679.4252873563219" y="225.0344827586207"/>
      <point x="658.6436781609195" y="125.9080459770115"/>
    </contour>
  </outline>
</glyph>
<glyph name="five" format="2">
  <advance width="1144.5977011494253"/>
  <unicode hex="0035"/>
  <outline>
    <contour>
      <point x="470.34482758620686" y="-20.344827586206897" type="curve" smooth="yes"/>
      <point x="775.8850574712644" y="-20.344827586206897"/>
      <point x="956.3218390804598" y="116.34482758620689"/>
      <point x="1015.1034482758621" y="393.81609195402297" type="curve" smooth="yes"/>
      <point x="1077.103448275862" y="689.816091954023"/>
      <point x="890.5747126436781" y="877.7241379310345"/>
      <point x="652.4827586206897" y="877.7241379310345" type="curve" smooth="yes"/>
      <point x="545.7701149425286" y="877.7241379310345"/>
      <point x="472.367816091954" y="851.632183908046"/>
      <point x="388.52873563218395" y="809.1034482758621" type="curve"/>
      <point x="373.4022988505747" y="809.1034482758621" type="line"/>
      <point x="393.0574712643678" y="902.5977011494252" type="line"/>
      <point x="420.71264367816093" y="1033.7471264367816"/>
      <point x="449.5862068965517" y="1168.1149425287356"/>
      <point x="477.2413793103448" y="1299.2643678160919" type="curve"/>
      <point x="419.1034482758621" y="1251.7241379310344" type="line"/>
      <point x="624.7586206896552" y="1251.7241379310344" type="line"/>
      <point x="784.4137931034483" y="1251.7241379310344"/>
      <point x="948.8505747126437" y="1251.7241379310344"/>
      <point x="1111.287356321839" y="1251.7241379310344" type="curve"/>
      <point x="1135.0114942528735" y="1370.344827586207" type="line"/>
      <point x="363.4942528735632" y="1370.344827586207" type="line"/>
      <point x="332.71264367816093" y="1222.873563218391"/>
      <point x="297.14942528735634" y="1053.83908045977"/>
      <point x="259.58620689655174" y="876.8045977011494" type="curve"/>
      <point x="216.02298850574712" y="666.9885057471264" type="line"/>
      <point x="274.9425287356322" y="661.4252873563219" type="line"/>
      <point x="405.3103448275862" y="737.7011494252873"/>
      <point x="489.4022988505747" y="761.3563218390805"/>
      <point x="599.6781609195402" y="761.3563218390805" type="curve"/>
      <point x="788.4827586206897" y="761.3563218390805"/>
      <point x="929.816091954023" y="642.2068965517241"/>
      <point x="881.632183908046" y="406.1609195402299" type="curve" smooth="yes"/>
      <point x="837.8850574712644" y="190.64367816091956"/>
      <point x="697.8620689655172" y="99.93103448275863"/>
      <point x="469.1264367816092" y="99.93103448275863" type="curve"/>
      <point x="315.3793103448276" y="99.93103448275863"/>
      <point x="178.6896551724138" y="154.71264367816093"/>
      <point x="53.03448275862068" y="239.93103448275863" type="curve"/>
      <point x="12.620689655172406" y="118.18390804597702" type="line"/>
      <point x="112.27586206896552" y="45.3103448275862"/>
      <point x="286.0" y="-20.344827586206897"/>
    </contour>
  </outline>
</glyph>
<glyph name="six" format="2">
  <advance width="1208.9425287356323"/>
  <unicode hex="0036"/>
  <outline>
    <contour>
      <point x="579.0344827586207" y="-20.344827586206897" type="curve" smooth="yes"/>
      <point x="872.6666666666667" y="-20.344827586206897"/>
      <point x="1037.8850574712644" y="169.47126436781608"/>
      <point x="1085.8850574712644" y="400.3448275862069" type="curve" smooth="yes"/>
      <point x="1140.2298850574714" y="658.1609195402299"/>
      <point x="995.8850574712644" y="881.7241379310345"/>
      <point x="718.9195402298851" y="881.7241379310345" type="curve" smooth="yes"/>
      <point x="576.551724137931" y="881.7241379310345"/>
      <point x="452.367816091954" y="827.1954022988506"/>
      <point x="315.6551724137931" y="717.0114942528736" type="curve"/>
      <point x="288.5287356321839" y="719.0114942528736" type="line"/>
      <point x="255.08045977011494" y="667.5632183908046"/>
      <point x="247.08045977011494" y="633.1264367816092"/>
      <point x="259.4942528735632" y="577.0574712643678" type="curve"/>
      <point x="424.57471264367814" y="722.8275862068966"/>
      <point x="556.5977011494252" y="766.1379310344828"/>
      <point x="682.528735632184" y="766.1379310344828" type="curve"/>
      <point x="914.5747126436781" y="766.1379310344828"/>
      <point x="995.1954022988506" y="592.7126436781609"/>
      <point x="957.8850574712643" y="417.37931034482756" type="curve" smooth="yes"/>
      <point x="920.5747126436781" y="242.04597701149424"/>
      <point x="802.9885057471264" y="99.93103448275863"/>
      <point x="580.1609195402299" y="99.93103448275863" type="curve"/>
      <point x="318.8045977011494" y="99.93103448275863"/>
      <point x="211.74712643678163" y="321.7931034482759"/>
      <point x="289.05747126436785" y="684.3448275862069" type="curve" smooth="yes"/>
      <point x="377.2413793103448" y="1099.1724137931035"/>
      <point x="534.4827586206897" y="1274.8505747126437"/>
      <point x="809.816091954023" y="1274.8505747126437" type="curve"/>
      <point x="932.3448275862069" y="1274.8505747126437"/>
      <point x="1043.471264367816" y="1239.1954022988507"/>
      <point x="1146.2528735632184" y="1171.1954022988505" type="curve"/>
      <point x="1186.6666666666667" y="1291.8160919540228" type="line"/>
      <point x="1102.3218390804598" y="1347.471264367816"/>
      <point x="963.2873563218391" y="1395.9080459770114"/>
      <point x="809.816091954023" y="1395.9080459770114" type="curve" smooth="yes"/>
      <point x="476.9425287356322" y="1395.9080459770114"/>
      <point x="260.9655172413793" y="1181.0114942528737"/>
      <point x="159.8390804597701" y="702.9425287356321" type="curve" smooth="yes"/>
      <point x="68.27586206896551" y="266.7816091954023"/>
      <point x="232.6206896551724" y="-20.344827586206897"/>
    </contour>
  </outline>
</glyph>
<glyph name="seven" format="2">
  <advance width="1044.1894736842105"/>
  <unicode hex="0037"/>
  <outline>
    <contour>
      <point x="122.31578947368419" y="0.0" type="curve"/>
      <point x="276.4842105263158" y="0.0" type="line"/>
      <point x="387.4736842105263" y="166.6315789473684"/>
      <point x="498.1052631578948" y="334.5473684210526"/>
      <point x="607.0947368421052" y="497.5368421052632" type="curve"/>
      <point x="796.1473684210526" y="780.2315789473685" type="line"/>
      <point x="910.0631578947368" y="951.4315789473684"/>
      <point x="1015.4105263157895" y="1110.421052631579"/>
      <point x="1126.0421052631577" y="1276.6947368421052" type="curve"/>
      <point x="1145.3473684210526" y="1370.1473684210525" type="line"/>
      <point x="234.0" y="1370.1473684210525" type="line"/>
      <point x="209.83157894736843" y="1251.4526315789474" type="line"/>
      <point x="381.0315789473684" y="1251.4526315789474"/>
      <point x="551.8736842105263" y="1251.4526315789474"/>
      <point x="721.0736842105263" y="1251.4526315789474" type="curve"/>
      <point x="1007.6210526315789" y="1251.4526315789474" type="line"/>
      <point x="981.3052631578947" y="1283.2631578947369" type="line"/>
      <point x="910.8842105263158" y="1179.2"/>
      <point x="842.4631578947368" y="1077.4947368421053"/>
      <point x="772.9684210526316" y="972.3578947368421" type="curve"/>
      <point x="490.2105263157895" y="549.7473684210527" type="line"/>
      <point x="369.2210526315789" y="369.11578947368423"/>
      <point x="245.30526315789473" y="184.2736842105263"/>
    </contour>
  </outline>
</glyph>
<glyph name="eight" format="2">
  <advance width="1207.7241379310344"/>
  <unicode hex="0038"/>
  <outline>
    <contour>
      <point x="559.0344827586207" y="-20.344827586206897" type="curve" smooth="yes"/>
      <point x="859.1034482758621" y="-20.344827586206897"/>
      <point x="1021.8850574712644" y="116.09195402298852"/>
      <point x="1067.448275862069" y="332.0" type="curve" smooth="yes"/>
      <point x="1117.448275862069" y="566.8735632183908"/>
      <point x="969.7011494252873" y="696.183908045977"/>
      <point x="861.7931034482758" y="728.0919540229885" type="curve"/>
      <point x="864.5747126436781" y="743.2183908045977" type="line"/>
      <point x="999.264367816092" y="768.4367816091954"/>
      <point x="1125.3563218390805" y="854.528735632184"/>
      <point x="1158.5747126436781" y="1010.528735632184" type="curve" smooth="yes"/>
      <point x="1204.5747126436781" y="1224.4367816091954"/>
      <point x="1041.8850574712642" y="1395.9080459770114"/>
      <point x="746.3448275862069" y="1395.9080459770114" type="curve" smooth="yes"/>
      <point x="509.8390804597701" y="1395.9080459770114"/>
      <point x="323.14942528735634" y="1300.344827586207"/>
      <point x="282.367816091954" y="1106.4367816091956" type="curve" smooth="yes"/>
      <point x="245.1494252873563" y="934.4367816091955"/>
      <point x="348.02298850574715" y="806.7816091954023"/>
      <point x="449.93103448275866" y="769.5632183908046" type="curve"/>
      <point x="447.14942528735634" y="754.4367816091955" type="line"/>
      <point x="324.45977011494256" y="733.6551724137931"/>
      <point x="141.49425287356323" y="661.2183908045977"/>
      <point x="94.27586206896552" y="439.1264367816092" type="curve" smooth="yes"/>
      <point x="46.71264367816092" y="210.4367816091954"/>
      <point x="181.40229885057474" y="-20.344827586206897"/>
    </contour>
    <contour>
      <point x="562.1609195402299" y="100.71264367816093" type="curve"/>
      <point x="276.71264367816093" y="100.71264367816093"/>
      <point x="192.8735632183908" y="262.48275862068965"/>
      <point x="229.4022988505747" y="432.68965517241384" type="curve" smooth="yes"/>
      <point x="269.93103448275866" y="627.7701149425287"/>
      <point x="433.7931034482759" y="683.9540229885057"/>
      <point x="636.8735632183908" y="683.9540229885057" type="curve"/>
      <point x="841.5172413793103" y="683.9540229885057"/>
      <point x="983.1954022988506" y="561.1494252873563"/>
      <point x="940.2298850574713" y="356.4137931034483" type="curve" smooth="yes"/>
      <point x="906.9195402298851" y="195.08045977011494"/>
      <point x="788.1149425287356" y="100.71264367816093"/>
    </contour>
    <contour>
      <point x="676.9425287356322" y="793.9770114942529" type="curve"/>
      <point x="472.64367816091954" y="793.9770114942529"/>
      <point x="375.14942528735634" y="923.2183908045977"/>
      <point x="408.45977011494256" y="1076.5517241379312" type="curve" smooth="yes"/>
      <point x="439.33333333333337" y="1220.5747126436781"/>
      <point x="572.2298850574713" y="1277.1954022988505"/>
      <point x="740.0" y="1277.1954022988505" type="curve"/>
      <point x="947.9540229885058" y="1277.1954022988505"/>
      <point x="1062.3218390804598" y="1172.8275862068965"/>
      <point x="1027.7931034482758" y="1011.9310344827587" type="curve" smooth="yes"/>
      <point x="998.4827586206897" y="872.2528735632184"/>
      <point x="875.6781609195402" y="793.9770114942529"/>
    </contour>
  </outline>
</glyph>
<glyph name="less" format="2">
  <advance width="1130.7368421052631"/>
  <unicode hex="003C"/>
  <outline>
    <contour>
      <point x="929.0" y="156.31578947368422" type="curve"/>
      <point x="955.1684210526316" y="273.5789473684211" type="line"/>
      <point x="821.5473684210526" y="338.0631578947369"/>
      <point x="678.6421052631579" y="406.1894736842105"/>
      <point x="541.7368421052632" y="472.3157894736842" type="curve"/>
      <point x="321.63157894736844" y="577.7894736842105" type="line"/>
      <point x="325.98947368421057" y="593.3684210526316" type="line"/>
      <point x="588.7263157894737" y="698.1263157894737" type="line"/>
      <point x="754.7684210526315" y="764.2526315789473"/>
      <point x="926.0947368421052" y="833.6631578947369"/>
      <point x="1088.136842105263" y="897.7894736842106" type="curve"/>
      <point x="1115.378947368421" y="1030.421052631579" type="line"/>
      <point x="983.6526315789473" y="978.421052631579"/>
      <point x="855.5684210526316" y="928.0631578947368"/>
      <point x="744.5578947368422" y="884.0631578947368" type="curve"/>
      <point x="529.778947368421" y="798.3578947368421" type="line"/>
      <point x="422.0526315789474" y="756.0"/>
      <point x="293.9684210526315" y="705.6421052631579"/>
      <point x="162.2421052631579" y="653.6421052631579" type="curve"/>
      <point x="137.71578947368423" y="533.0947368421052" type="line"/>
      <point x="245.8" y="481.09473684210525"/>
      <point x="353.5263157894737" y="430.7368421052632"/>
      <point x="441.61052631578946" y="388.37894736842105" type="curve"/>
      <point x="621.821052631579" y="302.6736842105263" type="line"/>
      <point x="712.8315789473685" y="258.6736842105263"/>
      <point x="820.9157894736842" y="208.31578947368422"/>
    </contour>
  </outline>
</glyph>
<glyph name="equal" format="2">
  <advance width="1130.7368421052631"/>
  <unicode hex="003D"/>
  <outline>
    <contour>
      <point x="97.32631578947368" y="317.4315789473684" type="line"/>
      <point x="219.41052631578947" y="317.4315789473684"/>
      <point x="335.13684210526316" y="317.4315789473684"/>
      <point x="434.5052631578947" y="317.4315789473684" type="curve"/>
      <point x="625.2" y="317.4315789473684" type="line"/>
      <point x="724.5684210526316" y="317.4315789473684"/>
      <point x="840.2947368421053" y="317.4315789473684"/>
      <point x="962.3789473684211" y="317.4315789473684" type="curve"/>
      <point x="986.9052631578948" y="434.69473684210527" type="line"/>
      <point x="864.8210526315789" y="434.69473684210527"/>
      <point x="749.0947368421052" y="434.69473684210527"/>
      <point x="649.7263157894737" y="434.69473684210527" type="curve"/>
      <point x="459.0315789473684" y="434.69473684210527" type="line"/>
      <point x="359.66315789473686" y="434.69473684210527"/>
      <point x="243.93684210526314" y="434.69473684210527"/>
      <point x="121.85263157894737" y="434.69473684210527" type="curve"/>
    </contour>
    <contour>
      <point x="187.62105263157895" y="755.3263157894737" type="line"/>
      <point x="309.7052631578947" y="755.3263157894737"/>
      <point x="425.4315789473684" y="755.3263157894737"/>
      <point x="524.8" y="755.3263157894737" type="curve"/>
      <point x="715.4947368421053" y="755.3263157894737" type="line"/>
      <point x="814.8631578947369" y="755.3263157894737"/>
      <point x="930.5894736842106" y="755.3263157894737"/>
      <point x="1052.6736842105265" y="755.3263157894737" type="curve"/>
      <point x="1077.2000000000003" y="872.5894736842105" type="line"/>
      <point x="955.1157894736842" y="872.5894736842105"/>
      <point x="839.3894736842105" y="872.5894736842105"/>
      <point x="740.021052631579" y="872.5894736842105" type="curve"/>
      <point x="549.3263157894736" y="872.5894736842105" type="line"/>
      <point x="449.9578947368421" y="872.5894736842105"/>
      <point x="334.2315789473684" y="872.5894736842105"/>
      <point x="212.14736842105262" y="872.5894736842105" type="curve"/>
    </contour>
  </outline>
</glyph>
<glyph name="greater" format="2">
  <advance width="1130.7368421052631"/>
  <unicode hex="003E"/>
  <outline>
    <contour>
      <point x="56.968421052631584" y="156.31578947368422" type="line"/>
      <point x="188.69473684210527" y="208.31578947368422"/>
      <point x="316.7789473684211" y="258.6736842105263"/>
      <point x="427.7894736842106" y="302.6736842105263" type="curve"/>
      <point x="642.5684210526316" y="388.37894736842105" type="line"/>
      <point x="750.2947368421053" y="430.7368421052632"/>
      <point x="878.378947368421" y="481.09473684210525"/>
      <point x="1010.1052631578948" y="533.0947368421052" type="curve"/>
      <point x="1034.6315789473683" y="653.6421052631579" type="line"/>
      <point x="926.5473684210526" y="705.6421052631579"/>
      <point x="818.8210526315789" y="756.0"/>
      <point x="730.7368421052631" y="798.3578947368421" type="curve"/>
      <point x="550.5263157894738" y="884.0631578947368" type="line"/>
      <point x="459.5157894736842" y="928.0631578947368"/>
      <point x="351.4315789473684" y="978.421052631579"/>
      <point x="243.34736842105264" y="1030.421052631579" type="curve"/>
      <point x="217.17894736842106" y="913.1578947368422" type="line"/>
      <point x="350.8" y="848.6736842105264"/>
      <point x="493.7052631578947" y="780.5473684210526"/>
      <point x="630.6105263157895" y="714.421052631579" type="curve"/>
      <point x="850.7157894736843" y="608.9473684210526" type="line"/>
      <point x="846.3578947368421" y="593.3684210526316" type="line"/>
      <point x="583.621052631579" y="488.6105263157895" type="line"/>
      <point x="417.57894736842104" y="422.4842105263158"/>
      <point x="246.2526315789474" y="353.0736842105263"/>
      <point x="84.21052631578948" y="288.94736842105266" type="curve"/>
    </contour>
  </outline>
</glyph>
<glyph name="at" format="2">
  <advance width="1759.6631578947367"/>
  <unicode hex="0040"/>
  <outline>
    <contour>
      <point x="951.1578947368421" y="-256.5263157894737" type="curve" smooth="yes"/>
      <point x="1143.0947368421052" y="-256.5263157894737"/>
      <point x="1355.3684210526317" y="-210.8842105263158"/>
      <point x="1515.8736842105263" y="-104.3157894736842" type="curve"/>
      <point x="1515.8736842105263" y="5.1157894736842096" type="line"/>
      <point x="1312.5052631578947" y="-130.31578947368422"/>
      <point x="1110.2947368421053" y="-162.67368421052632"/>
      <point x="951.1578947368421" y="-162.67368421052632" type="curve"/>
      <point x="390.4" y="-162.67368421052632"/>
      <point x="139.05263157894734" y="238.0"/>
      <point x="230.4842105263158" y="667.7894736842105" type="curve" smooth="yes"/>
      <point x="314.1894736842105" y="1060.8842105263159"/>
      <point x="589.9368421052632" y="1246.5473684210526"/>
      <point x="941.1578947368421" y="1246.5473684210526" type="curve"/>
      <point x="1378.6315789473683" y="1246.5473684210526"/>
      <point x="1629.2631578947369" y="916.7368421052631"/>
      <point x="1547.9789473684211" y="509.9578947368421" type="curve" smooth="yes"/>
      <point x="1513.7684210526315" y="338.5473684210526"/>
      <point x="1406.3578947368421" y="216.77894736842106"/>
      <point x="1286.7368421052631" y="216.77894736842106" type="curve"/>
      <point x="1184.6105263157895" y="216.77894736842106"/>
      <point x="1140.336842105263" y="279.4947368421053"/>
      <point x="1168.1263157894737" y="418.29473684210524" type="curve"/>
      <point x="1207.1157894736841" y="605.6" type="line"/>
      <point x="1232.4" y="725.6631578947369"/>
      <point x="1258.4" y="849.8736842105263"/>
      <point x="1281.6842105263158" y="960.2947368421053" type="curve"/>
      <point x="1178.0210526315789" y="952.5052631578948" type="line"/>
      <point x="1153.8736842105263" y="850.8631578947368" type="line"/>
      <point x="1141.0105263157895" y="850.8631578947368" type="line"/>
      <point x="1084.0210526315789" y="917.1578947368421"/>
      <point x="992.6736842105263" y="971.9368421052632"/>
      <point x="876.7578947368421" y="971.9368421052632" type="curve" smooth="yes"/>
      <point x="689.4736842105264" y="971.9368421052632"/>
      <point x="546.1263157894737" y="827.8526315789474"/>
      <point x="499.9157894736842" y="605.0105263157894" type="curve" smooth="yes"/>
      <point x="449.5578947368421" y="364.3578947368421"/>
      <point x="545.8526315789474" y="143.85263157894738"/>
      <point x="782.8421052631579" y="143.85263157894738" type="curve" smooth="yes"/>
      <point x="869.4105263157894" y="143.85263157894738"/>
      <point x="979.6842105263157" y="185.70526315789473"/>
      <point x="1048.463157894737" y="276.5684210526316" type="curve"/>
      <point x="1060.9684210526316" y="276.5684210526316" type="line"/>
      <point x="1079.7684210526315" y="202.98947368421054"/>
      <point x="1145.3684210526317" y="124.56842105263158"/>
      <point x="1298.2315789473685" y="124.56842105263158" type="curve" smooth="yes"/>
      <point x="1413.7473684210527" y="124.56842105263158"/>
      <point x="1593.621052631579" y="230.06315789473683"/>
      <point x="1643.7684210526315" y="490.8" type="curve" smooth="yes"/>
      <point x="1733.5578947368422" y="954.4631578947368"/>
      <point x="1431.3263157894737" y="1340.4"/>
      <point x="943.5157894736842" y="1340.4" type="curve" smooth="yes"/>
      <point x="560.6526315789473" y="1340.4"/>
      <point x="226.6315789473684" y="1136.2526315789473"/>
      <point x="134.12631578947367" y="684.7368421052631" type="curve" smooth="yes"/>
      <point x="35.11578947368421" y="205.41052631578947"/>
      <point x="330.06315789473683" y="-256.5263157894737"/>
    </contour>
    <contour>
      <point x="809.0947368421052" y="247.1578947368421" type="curve"/>
      <point x="636.2947368421053" y="247.1578947368421"/>
      <point x="571.0315789473684" y="399.62105263157895"/>
      <point x="610.9473684210526" y="588.6315789473684" type="curve" smooth="yes"/>
      <point x="644.6526315789473" y="746.9473684210526"/>
      <point x="738.4842105263158" y="865.9157894736842"/>
      <point x="896.8631578947368" y="865.9157894736842" type="curve"/>
      <point x="998.9684210526316" y="865.9157894736842"/>
      <point x="1069.8736842105263" y="821.0736842105263"/>
      <point x="1125.4947368421053" y="756.1684210526316" type="curve"/>
      <point x="1051.3684210526317" y="404.10526315789474" type="line"/>
      <point x="988.4631578947368" y="294.7157894736842"/>
      <point x="897.4947368421052" y="247.1578947368421"/>
    </contour>
  </outline>
</glyph>
<glyph name="A" format="2">
  <advance width="1366.421052631579"/>
  <unicode hex="0041"/>
  <anchor x="578.3157894736842" y="0.0" name="bottom"/>
  <anchor x="1197.9368421052632" y="0.0" name="ogonek"/>
  <anchor x="878.3157894736842" y="1426.0" name="top"/>
  <outline>
    <contour>
      <point x="-40.94736842105263" y="0.0" type="curve"/>
      <point x="112.86315789473683" y="0.0" type="line"/>
      <point x="211.2" y="173.05263157894737"/>
      <point x="315.5368421052632" y="355.53684210526313"/>
      <point x="412.2315789473684" y="525.6631578947369" type="curve"/>
      <point x="850.3578947368421" y="1294.2315789473685" type="line"/>
      <point x="865.9368421052632" y="1294.2315789473685" type="line"/>
      <point x="979.957894736842" y="523.3052631578947" type="line"/>
      <point x="1004.5894736842106" y="357.17894736842106"/>
      <point x="1032.863157894737" y="168.4842105263158"/>
      <point x="1057.4947368421053" y="0.0" type="curve"/>
      <point x="1197.9368421052632" y="0.0" type="line"/>
      <point x="1174.4421052631578" y="150.0"/>
      <point x="1147.3052631578946" y="326.0"/>
      <point x="1122.1684210526316" y="484.2105263157895" type="curve"/>
      <point x="1046.042105263158" y="974.0" type="line"/>
      <point x="1018.9052631578948" y="1148.0"/>
      <point x="997.4105263157894" y="1284.2105263157894"/>
      <point x="975.5578947368421" y="1426.0" type="curve"/>
      <point x="784.7157894736843" y="1426.0" type="line"/>
      <point x="699.2210526315789" y="1278.0"/>
      <point x="621.3684210526316" y="1143.6421052631579"/>
      <point x="524.2315789473685" y="975.6421052631579" type="curve"/>
      <point x="240.82105263157894" y="486.0" type="line"/>
      <point x="151.32631578947368" y="332.0"/>
      <point x="48.547368421052624" y="154.3578947368421"/>
    </contour>
    <contour>
      <point x="281.41052631578947" y="374.86315789473684" type="line"/>
      <point x="1045.6421052631579" y="374.86315789473684" type="line"/>
      <point x="1060.5052631578947" y="488.5473684210526" type="line"/>
      <point x="314.52631578947364" y="488.5473684210526" type="line"/>
    </contour>
  </outline>
</glyph>
<glyph name="B" format="2">
  <advance width="1282.8045977011495"/>
  <unicode hex="0042"/>
  <outline>
    <contour>
      <point x="562.9885057471264" y="0.0" type="curve"/>
      <point x="989.4022988505748" y="0.0"/>
      <point x="1125.4022988505747" y="138.4367816091954"/>
      <point x="1168.9655172413793" y="348.25287356321843" type="curve" smooth="yes"/>
      <point x="1214.183908045977" y="566.3448275862069"/>
      <point x="1090.873563218391" y="681.471264367816"/>
      <point x="965.0574712643678" y="725.4712643678162" type="curve"/>
      <point x="969.8390804597701" y="741.3793103448276" type="line"/>
      <point x="1121.4022988505747" y="785.4712643678162"/>
      <point x="1232.528735632184" y="868.4367816091955"/>
      <point x="1269.3103448275863" y="1044.0" type="curve" smooth="yes"/>
      <point x="1315.7471264367816" y="1260.9655172413793"/>
      <point x="1193.471264367816" y="1426.0"/>
      <point x="870.0459770114943" y="1426.0" type="curve"/>
      <point x="687.3563218390805" y="1426.0"/>
      <point x="540.5057471264369" y="1426.0"/>
      <point x="394.1609195402299" y="1426.0" type="curve"/>
      <point x="360.1609195402299" y="1264.7816091954023"/>
      <point x="330.9425287356322" y="1126.344827586207"/>
      <point x="294.1609195402299" y="950.0" type="curve"/>
      <point x="193.3793103448276" y="472.8735632183908" type="line"/>
      <point x="156.5977011494253" y="296.5287356321839"/>
      <point x="127.37931034482759" y="159.6551724137931"/>
      <point x="93.37931034482759" y="0.0" type="curve"/>
      <point x="174.57471264367814" y="0.0"/>
      <point x="363.2643678160919" y="0.0"/>
    </contour>
    <contour>
      <point x="258.91954022988506" y="119.83908045977012" type="line"/>
      <point x="283.7931034482759" y="240.20689655172416"/>
      <point x="307.44827586206895" y="354.48275862068965"/>
      <point x="337.1034482758621" y="494.7586206896552" type="curve"/>
      <point x="428.5057471264368" y="927.3333333333334" type="line"/>
      <point x="458.1609195402299" y="1068.3908045977012"/>
      <point x="481.816091954023" y="1181.8850574712644"/>
      <point x="507.4712643678161" y="1306.1609195402298" type="curve"/>
      <point x="854.6666666666667" y="1306.1609195402298" type="line" smooth="yes"/>
      <point x="1064.6206896551726" y="1306.1609195402298"/>
      <point x="1159.7701149425286" y="1209.7931034482758"/>
      <point x="1124.022988505747" y="1038.712643678161" type="curve" smooth="yes"/>
      <point x="1092.712643678161" y="891.0344827586206"/>
      <point x="972.4367816091954" y="781.0114942528736"/>
      <point x="730.735632183908" y="781.0114942528736" type="curve" smooth="yes"/>
      <point x="366.3448275862069" y="781.0114942528736" type="line"/>
      <point x="341.4022988505747" y="665.5172413793103" type="line"/>
      <point x="717.7931034482759" y="665.5172413793103" type="line" smooth="yes"/>
      <point x="946.8735632183908" y="665.5172413793103"/>
      <point x="1067.3333333333335" y="561.5862068965517"/>
      <point x="1027.5862068965519" y="369.1954022988506" type="curve" smooth="yes"/>
      <point x="992.2758620689656" y="196.98850574712645"/>
      <point x="867.471264367816" y="119.83908045977012"/>
      <point x="570.7126436781609" y="119.83908045977012" type="curve" smooth="yes"/>
    </contour>
  </outline>
</glyph>
<glyph name="C" format="2">
  <advance width="1371.3894736842105"/>
  <unicode hex="0043"/>
  <anchor x="695.6" y="0.0" name="bottom"/>
  <anchor x="979.1789473684211" y="1426.0" name="top"/>
  <outline>
    <contour>
      <point x="764.6105263157895" y="-20.50526315789474" type="curve" smooth="yes"/>
      <point x="905.7473684210527" y="-20.50526315789474"/>
      <point x="1060.042105263158" y="9.705263157894738"/>
      <point x="1168.3999999999999" y="75.05263157894737" type="curve"/>
      <point x="1185.2842105263157" y="223.41052631578947" type="line"/>
      <point x="1060.6315789473683" y="138.69473684210527"/>
      <point x="917.7052631578947" y="104.54736842105262"/>
      <point x="780.8631578947369" y="104.54736842105262" type="curve"/>
      <point x="383.93684210526317" y="104.54736842105262"/>
      <point x="235.4736842105263" y="435.20000000000005"/>
      <point x="307.9578947368421" y="778.1263157894738" type="curve" smooth="yes"/>
      <point x="387.1578947368421" y="1151.3473684210526"/>
      <point x="638.6105263157895" y="1323.8736842105263"/>
      <point x="969.6" y="1323.8736842105263" type="curve"/>
      <point x="1130.8" y="1323.8736842105263"/>
      <point x="1265.578947368421" y="1286.2947368421053"/>
      <point x="1403.221052631579" y="1190.084210526316" type="curve"/>
      <point x="1444.1894736842107" y="1321.3684210526317" type="line"/>
      <point x="1327.8947368421052" y="1401.221052631579"/>
      <point x="1151.4526315789474" y="1451.4315789473685"/>
      <point x="973.9578947368421" y="1451.4315789473685" type="curve" smooth="yes"/>
      <point x="553.8526315789474" y="1451.4315789473685"/>
      <point x="256.2947368421053" y="1225.4315789473685"/>
      <point x="166.65263157894736" y="799.4315789473684" type="curve" smooth="yes"/>
      <point x="77.22105263157894" y="375.91578947368424"/>
      <point x="286.37894736842105" y="-20.50526315789474"/>
    </contour>
  </outline>
</glyph>
<glyph name="D" format="2">
  <advance width="1474.778947368421"/>
  <unicode hex="0044"/>
  <anchor x="597.4315789473684" y="0.0" name="bottom"/>
  <anchor x="784.8526315789474" y="714.0" name="center"/>
  <anchor x="897.4315789473684" y="1426.0" name="top"/>
  <outline>
    <contour>
      <point x="92.37894736842104" y="0.0" type="curve"/>
      <point x="261.30526315789473" y="0.0"/>
      <point x="391.83157894736837" y="0.0"/>
      <point x="575.4947368421052" y="0.0" type="curve"/>
      <point x="1107.5157894736842" y="0.0"/>
      <point x="1321.3052631578946" y="258.35789473684207"/>
      <point x="1406.5894736842104" y="665.2842105263157" type="curve" smooth="yes"/>
      <point x="1490.9473684210525" y="1071.221052631579"/>
      <point x="1283.5157894736842" y="1426.0"/>
      <point x="813.9578947368421" y="1426.0" type="curve"/>
      <point x="674.7789473684211" y="1426.0"/>
      <point x="550.2315789473683" y="1426.0"/>
      <point x="394.7368421052631" y="1426.0" type="curve"/>
      <point x="360.7368421052631" y="1268.3578947368421"/>
      <point x="331.09473684210525" y="1126.5052631578947"/>
      <point x="292.7368421052631" y="946.3578947368421" type="curve"/>
      <point x="192.02105263157893" y="472.77894736842103" type="line"/>
      <point x="155.30526315789473" y="296.63157894736844"/>
      <point x="126.02105263157894" y="159.49473684210525"/>
    </contour>
    <contour>
      <point x="259.4947368421052" y="119.97894736842105" type="line"/>
      <point x="284.63157894736844" y="242.02105263157893"/>
      <point x="308.12631578947367" y="355.8526315789474"/>
      <point x="337.62105263157895" y="496.4" type="curve"/>
      <point x="428.6736842105263" y="927.8105263157895" type="line"/>
      <point x="458.5263157894737" y="1069.4315789473685"/>
      <point x="483.66315789473686" y="1182.9052631578948"/>
      <point x="509.15789473684214" y="1306.0210526315789" type="curve"/>
      <point x="780.0631578947368" y="1306.0210526315789" type="line"/>
      <point x="1186.5263157894738" y="1306.0210526315789"/>
      <point x="1335.0526315789475" y="1014.8000000000001"/>
      <point x="1263.8526315789475" y="683.9368421052632" type="curve" smooth="yes"/>
      <point x="1191.3684210526317" y="338.0842105263158"/>
      <point x="1025.8315789473686" y="119.97894736842105"/>
      <point x="585.3684210526317" y="119.97894736842105" type="curve"/>
    </contour>
  </outline>
</glyph>
<glyph name="E" format="2">
  <advance width="1185.1264367816093"/>
  <unicode hex="0045"/>
  <anchor x="529.7471264367816" y="0.0" name="bottom"/>
  <anchor x="962.9425287356321" y="0.0" name="ogonek"/>
  <anchor x="829.7471264367816" y="1426.0" name="top"/>
  <anchor x="268.4367816091954" y="1426.0" name="topleft"/>
  <outline>
    <contour>
      <point x="92.55172413793103" y="0.0" type="curve"/>
      <point x="230.80459770114942" y="0.0" type="line"/>
      <point x="235.93103448275863" y="20.50574712643678" type="line"/>
      <point x="269.14942528735634" y="180.16091954022988"/>
      <point x="299.14942528735634" y="318.5977011494253"/>
      <point x="335.14942528735634" y="493.37931034482756" type="curve"/>
      <point x="427.67816091954023" y="930.7126436781609" type="line"/>
      <point x="465.2413793103448" y="1107.057471264368"/>
      <point x="494.45977011494256" y="1246.2758620689656"/>
      <point x="528.4597701149426" y="1406.712643678161" type="curve"/>
      <point x="532.8045977011494" y="1426.0" type="line"/>
      <point x="394.55172413793105" y="1426.0" type="line"/>
      <point x="360.55172413793105" y="1268.0"/>
      <point x="331.33333333333337" y="1126.344827586207"/>
      <point x="292.55172413793105" y="946.0" type="curve"/>
      <point x="191.77011494252872" y="472.8735632183908" type="line"/>
      <point x="154.98850574712642" y="296.5287356321839"/>
      <point x="125.77011494252874" y="158.8735632183908"/>
    </contour>
    <contour>
      <point x="211.77011494252872" y="0.0" type="line"/>
      <point x="962.9425287356321" y="0.0" type="line"/>
      <point x="990.2298850574712" y="122.96551724137932" type="line"/>
      <point x="842.4827586206897" y="122.96551724137932"/>
      <point x="685.5172413793103" y="122.96551724137932"/>
      <point x="507.33333333333326" y="122.96551724137932" type="curve"/>
      <point x="239.05747126436782" y="122.96551724137932" type="line"/>
    </contour>
    <contour>
      <point x="340.57471264367814" y="663.5172413793103" type="line"/>
      <point x="620.7586206896552" y="663.5172413793103" type="line"/>
      <point x="803.2873563218391" y="663.5172413793103"/>
      <point x="926.1609195402299" y="663.5172413793103"/>
      <point x="1060.2528735632184" y="663.5172413793103" type="curve"/>
      <point x="1085.9770114942528" y="783.3563218390805" type="line"/>
      <point x="959.8850574712643" y="783.3563218390805"/>
      <point x="835.0114942528736" y="783.3563218390805"/>
      <point x="648.4827586206897" y="783.3563218390805" type="curve"/>
      <point x="366.2988505747126" y="783.3563218390805" type="line"/>
    </contour>
    <contour>
      <point x="479.7931034482759" y="1303.0344827586207" type="line"/>
      <point x="741.632183908046" y="1303.0344827586207" type="line"/>
      <point x="953.0344827586207" y="1303.0344827586207"/>
      <point x="1098.7816091954023" y="1303.0344827586207"/>
      <point x="1235.3103448275863" y="1303.0344827586207" type="curve"/>
      <point x="1262.5977011494253" y="1426.0" type="line"/>
      <point x="506.2988505747127" y="1426.0" type="line"/>
    </contour>
  </outline>
</glyph>
<glyph name="F" format="2">
  <advance width="1145.578947368421"/>
  <unicode hex="0046"/>
  <outline>
    <contour>
      <point x="92.37894736842104" y="0.0" type="curve"/>
      <point x="230.821052631579" y="0.0" type="line"/>
      <point x="264.46315789473687" y="159.49473684210525"/>
      <point x="293.74736842105267" y="296.63157894736844"/>
      <point x="330.46315789473687" y="472.77894736842103" type="curve"/>
      <point x="427.95789473684215" y="930.4" type="line"/>
      <point x="464.67368421052635" y="1107.2631578947369"/>
      <point x="494.67368421052635" y="1246.1894736842105"/>
      <point x="528.3157894736843" y="1406.7578947368422" type="curve"/>
      <point x="532.8210526315789" y="1426.0" type="line"/>
      <point x="394.7368421052631" y="1426.0" type="line"/>
      <point x="360.7368421052631" y="1268.3578947368421"/>
      <point x="331.09473684210525" y="1126.5052631578947"/>
      <point x="292.7368421052631" y="946.3578947368421" type="curve"/>
      <point x="192.02105263157893" y="472.77894736842103" type="line"/>
      <point x="155.30526315789473" y="296.63157894736844"/>
      <point x="126.02105263157894" y="159.49473684210525"/>
    </contour>
    <contour>
      <point x="337.2631578947368" y="657.4947368421052" type="line"/>
      <point x="600.9684210526316" y="657.4947368421052" type="line"/>
      <point x="783.6" y="657.4947368421052"/>
      <point x="906.378947368421" y="657.4947368421052"/>
      <point x="1040.4421052631578" y="657.4947368421052" type="curve"/>
      <point x="1066.2526315789473" y="777.4736842105264" type="line"/>
      <point x="939.8315789473685" y="777.4736842105264"/>
      <point x="815.4105263157895" y="777.4736842105264"/>
      <point x="628.421052631579" y="777.4736842105264" type="curve"/>
      <point x="363.0736842105263" y="777.4736842105264" type="line"/>
    </contour>
    <contour>
      <point x="477.9789473684211" y="1302.8" type="line"/>
      <point x="723.1789473684211" y="1302.8" type="line"/>
      <point x="934.5894736842106" y="1302.8"/>
      <point x="1080.8631578947368" y="1302.8"/>
      <point x="1217.494736842105" y="1302.8" type="curve"/>
      <point x="1244.0210526315789" y="1426.0" type="line"/>
      <point x="504.5052631578947" y="1426.0" type="line"/>
    </contour>
  </outline>
</glyph>
<glyph name="G" format="2">
  <advance width="1468.8842105263159"/>
  <unicode hex="0047"/>
  <anchor x="695.6" y="0.0" name="bottom"/>
  <anchor x="995.6" y="1426.0" name="top"/>
  <outline>
    <contour>
      <point x="798.9684210526316" y="-20.147368421052633" type="curve" smooth="yes"/>
      <point x="966.2526315789472" y="-20.147368421052633"/>
      <point x="1128.6947368421054" y="19.705263157894738"/>
      <point x="1232.9052631578948" y="65.5578947368421" type="curve"/>
      <point x="1236.6315789473683" y="205.83157894736843" type="line"/>
      <point x="1095.4105263157894" y="129.8315789473684"/>
      <point x="953.4947368421052" y="102.7578947368421"/>
      <point x="807.7684210526317" y="102.7578947368421" type="curve"/>
      <point x="371.5157894736842" y="102.7578947368421"/>
      <point x="234.0421052631579" y="433.0526315789474"/>
      <point x="307.2421052631579" y="778.8421052631579" type="curve" smooth="yes"/>
      <point x="388.4421052631579" y="1159.7052631578947"/>
      <point x="636.1894736842105" y="1323.8736842105263"/>
      <point x="966.3157894736842" y="1323.8736842105263" type="curve"/>
      <point x="1119.642105263158" y="1323.8736842105263"/>
      <point x="1277.6421052631579" y="1288.378947368421"/>
      <point x="1428.2315789473685" y="1181.8736842105263" type="curve"/>
      <point x="1469.5578947368422" y="1313.5157894736842" type="line"/>
      <point x="1347.621052631579" y="1396.505263157895"/>
      <point x="1160.9684210526314" y="1451.4315789473685"/>
      <point x="962.5263157894736" y="1451.4315789473685" type="curve" smooth="yes"/>
      <point x="543.9368421052632" y="1451.4315789473685"/>
      <point x="257.0105263157895" y="1225.0105263157895"/>
      <point x="166.65263157894736" y="799.4315789473684" type="curve" smooth="yes"/>
      <point x="76.29473684210525" y="372.5684210526316"/>
      <point x="276.4421052631579" y="-20.147368421052633"/>
    </contour>
    <contour>
      <point x="1098.042105263158" y="63.768421052631574" type="curve"/>
      <point x="1232.9052631578948" y="65.5578947368421" type="line"/>
      <point x="1261.2631578947369" y="200.06315789473686"/>
      <point x="1283.621052631579" y="298.9263157894737"/>
      <point x="1304.6947368421052" y="402.5052631578947" type="curve"/>
      <point x="1331.0526315789473" y="525.7263157894737"/>
      <point x="1349.7684210526315" y="612.2315789473685"/>
      <point x="1368.4842105263158" y="709.4526315789474" type="curve"/>
      <point x="1233.9789473684211" y="709.4526315789474" type="line"/>
      <point x="1215.2631578947369" y="612.2315789473685"/>
      <point x="1196.5473684210526" y="525.7263157894737"/>
      <point x="1170.1894736842105" y="402.5052631578947" type="curve"/>
      <point x="1149.1157894736843" y="298.9263157894737"/>
      <point x="1126.7578947368422" y="200.06315789473686"/>
    </contour>
  </outline>
</glyph>
<glyph name="I" format="2">
  <advance width="540.1473684210526"/>
  <unicode hex="0049"/>
  <anchor x="164.10526315789477" y="0.0" name="bottom"/>
  <anchor x="236.54736842105262" y="0.0" name="ogonek"/>
  <anchor x="464.10526315789474" y="1426.0" name="top"/>
  <anchor x="265.7052631578947" y="1426.0" name="topleft"/>
  <outline>
    <contour>
      <point x="94.16842105263159" y="0.0" type="curve"/>
      <point x="236.54736842105262" y="0.0" type="line"/>
      <point x="270.1894736842105" y="159.49473684210525"/>
      <point x="299.4736842105263" y="296.63157894736844"/>
      <point x="336.1894736842105" y="472.77894736842103" type="curve"/>
      <point x="436.9052631578947" y="946.3578947368421" type="line"/>
      <point x="475.2631578947368" y="1126.5052631578947"/>
      <point x="504.9052631578947" y="1268.3578947368421"/>
      <point x="538.9052631578948" y="1426.0" type="curve"/>
      <point x="396.52631578947364" y="1426.0" type="line"/>
      <point x="362.52631578947364" y="1268.3578947368421"/>
      <point x="332.88421052631577" y="1126.5052631578947"/>
      <point x="294.52631578947364" y="946.3578947368421" type="curve"/>
      <point x="193.81052631578947" y="472.77894736842103" type="line"/>
      <point x="157.09473684210528" y="296.63157894736844"/>
      <point x="127.81052631578949" y="159.49473684210525"/>
    </contour>
  </outline>
</glyph>
<glyph name="J" format="2">
  <advance width="566.9894736842106"/>
  <unicode hex="004A"/>
  <anchor x="190.73684210526315" y="0.0" name="bottom"/>
  <anchor x="490.7368421052631" y="1426.0" name="top"/>
  <outline>
    <contour>
      <point x="-142.8842105263158" y="-317.13684210526316" type="curve"/>
      <point x="17.178947368421042" y="-317.13684210526316" type="line"/>
      <point x="130.04210526315788" y="-226.42105263157896"/>
      <point x="241.53684210526316" y="-101.2"/>
      <point x="287.89473684210526" y="113.66315789473684" type="curve" smooth="yes"/>
      <point x="319.3263157894737" y="260.82105263157894"/>
      <point x="349.8315789473684" y="409.20000000000005"/>
      <point x="385.2631578947368" y="576.357894736842" type="curve"/>
      <point x="464.10526315789474" y="946.3578947368421" type="line"/>
      <point x="502.46315789473687" y="1126.5052631578947"/>
      <point x="532.1052631578948" y="1268.3578947368421"/>
      <point x="566.1052631578948" y="1426.0" type="curve"/>
      <point x="425.1578947368421" y="1426.0" type="line"/>
      <point x="391.1578947368421" y="1268.3578947368421"/>
      <point x="361.5157894736842" y="1126.5052631578947"/>
      <point x="323.1578947368421" y="946.3578947368421" type="curve"/>
      <point x="232.82105263157894" y="522.1684210526316" type="line"/>
      <point x="149.66315789473683" y="129.45263157894738" type="line"/>
      <point x="107.09473684210525" y="-66.10526315789473"/>
      <point x="2.821052631578957" y="-190.1263157894737"/>
    </contour>
  </outline>
</glyph>
<glyph name="K" format="2">
  <advance width="1326.6315789473683"/>
  <unicode hex="004B"/>
  <anchor x="573.6" y="0.0" name="bottom"/>
  <anchor x="873.6" y="1426.0" name="top"/>
  <outline>
    <contour>
      <point x="985.2631578947369" y="0.0" type="curve"/>
      <point x="1157.0105263157895" y="0.0" type="line"/>
      <point x="1059.7473684210527" y="120.14736842105263"/>
      <point x="906.0631578947368" y="312.58947368421053"/>
      <point x="789.8736842105262" y="456.5263157894737" type="curve"/>
      <point x="538.2105263157895" y="770.1894736842105" type="line"/>
      <point x="540.7789473684211" y="701.978947368421" type="line"/>
      <point x="876.7368421052631" y="980.6315789473684" type="line"/>
      <point x="1054.3578947368421" y="1125.4947368421053"/>
      <point x="1232.1894736842105" y="1271.2842105263157"/>
      <point x="1421.3052631578946" y="1426.0" type="curve"/>
      <point x="1234.1263157894737" y="1426.0" type="line"/>
      <point x="1047.0315789473682" y="1272.4421052631578"/>
      <point x="916.778947368421" y="1166.378947368421"/>
      <point x="773.3894736842105" y="1048.821052631579" type="curve"/>
      <point x="465.11578947368423" y="796.0631578947368" type="line"/>
      <point x="382.18947368421055" y="796.0631578947368" type="line"/>
      <point x="356.7368421052632" y="677.5157894736842" type="line"/>
      <point x="439.4526315789474" y="677.5157894736842" type="line"/>
      <point x="681.3684210526316" y="377.6842105263158" type="line"/>
      <point x="775.978947368421" y="261.2631578947368"/>
      <point x="871.8736842105263" y="141.9157894736842"/>
    </contour>
    <contour>
      <point x="92.37894736842104" y="0.0" type="curve"/>
      <point x="232.6105263157895" y="0.0" type="line"/>
      <point x="266.2526315789474" y="159.49473684210525"/>
      <point x="295.5368421052632" y="296.63157894736844"/>
      <point x="332.2526315789474" y="472.77894736842103" type="curve"/>
      <point x="432.9684210526316" y="946.3578947368421" type="line"/>
      <point x="471.3263157894737" y="1126.5052631578947"/>
      <point x="500.9684210526316" y="1268.3578947368421"/>
      <point x="534.9684210526316" y="1426.0" type="curve"/>
      <point x="394.7368421052631" y="1426.0" type="line"/>
      <point x="360.7368421052631" y="1268.3578947368421"/>
      <point x="331.09473684210525" y="1126.5052631578947"/>
      <point x="292.7368421052631" y="946.3578947368421" type="curve"/>
      <point x="192.02105263157893" y="472.77894736842103" type="line"/>
      <point x="155.30526315789473" y="296.63157894736844"/>
      <point x="126.02105263157894" y="159.49473684210525"/>
    </contour>
  </outline>
</glyph>
<glyph name="L" format="2">
  <advance width="1134.8631578947368"/>
  <unicode hex="004C"/>
  <anchor x="526.1263157894737" y="0.0" name="bottom"/>
  <anchor x="885.3894736842105" y="715.0736842105263" name="center"/>
  <anchor x="586.4842105263158" y="1426.0" name="top"/>
  <anchor x="661.1157894736842" y="990.8631578947368" name="topright"/>
  <outline>
    <contour>
      <point x="92.37894736842104" y="0.0" type="curve"/>
      <point x="234.96842105263158" y="0.0" type="line"/>
      <point x="239.8315789473684" y="20.88421052631579" type="line"/>
      <point x="273.1157894736842" y="180.37894736842105"/>
      <point x="302.7578947368421" y="318.2315789473684"/>
      <point x="339.1157894736842" y="493.66315789473686" type="curve"/>
      <point x="433.6842105263158" y="946.3578947368421" type="line"/>
      <point x="472.0421052631579" y="1126.5052631578947"/>
      <point x="501.6842105263158" y="1268.3578947368421"/>
      <point x="535.6842105263158" y="1426.0" type="curve"/>
      <point x="394.7368421052631" y="1426.0" type="line"/>
      <point x="360.7368421052631" y="1268.3578947368421"/>
      <point x="331.09473684210525" y="1126.5052631578947"/>
      <point x="292.7368421052631" y="946.3578947368421" type="curve"/>
      <point x="192.02105263157893" y="472.77894736842103" type="line"/>
      <point x="155.30526315789473" y="296.63157894736844"/>
      <point x="126.02105263157894" y="159.49473684210525"/>
    </contour>
    <contour>
      <point x="213.66315789473686" y="0.0" type="line"/>
      <point x="961.1578947368421" y="0.0" type="line"/>
      <point x="988.7578947368421" y="126.77894736842106" type="line"/>
      <point x="828.6315789473684" y="126.77894736842106"/>
      <point x="693.0736842105263" y="126.77894736842106"/>
      <point x="458.52631578947364" y="126.77894736842106" type="curve"/>
      <point x="241.26315789473685" y="126.77894736842106" type="line"/>
    </contour>
  </outline>
</glyph>
<glyph name="M" format="2">
  <advance width="1912.0842105263157"/>
  <unicode hex="004D"/>
  <anchor x="850.8631578947368" y="0.0" name="bottom"/>
  <anchor x="1150.8631578947368" y="1426.0" name="top"/>
  <outline>
    <contour>
      <point x="36.82105263157894" y="0.0" type="curve"/>
      <point x="173.5368421052632" y="0.0" type="line"/>
      <point x="260.58947368421053" y="266.8"/>
      <point x="343.6421052631579" y="509.7473684210526"/>
      <point x="412.8421052631579" y="718.6315789473684" type="curve"/>
      <point x="560.5263157894736" y="1169.178947368421" type="line"/>
      <point x="571.1789473684211" y="1169.178947368421" type="line"/>
      <point x="670.1473684210526" y="679.6421052631579" type="line"/>
      <point x="715.3473684210526" y="452.1894736842105"/>
      <point x="769.1157894736842" y="191.53684210526316"/>
      <point x="805.7473684210527" y="0.0" type="curve"/>
      <point x="902.7789473684211" y="0.0" type="line"/>
      <point x="1029.957894736842" y="204.31578947368422"/>
      <point x="1179.9157894736843" y="448.1894736842105"/>
      <point x="1323.3052631578948" y="682.9263157894737" type="curve"/>
      <point x="1621.5789473684213" y="1169.178947368421" type="line"/>
      <point x="1632.2315789473685" y="1169.178947368421" type="line"/>
      <point x="1592.1684210526316" y="718.6315789473684" type="line"/>
      <point x="1573.957894736842" y="509.7473684210526"/>
      <point x="1550.8210526315788" y="266.8"/>
      <point x="1528.9684210526316" y="0.0" type="curve"/>
      <point x="1663.2631578947369" y="0.0" type="line"/>
      <point x="1678.9052631578948" y="159.13684210526316"/>
      <point x="1690.1894736842105" y="300.42105263157896"/>
      <point x="1705.8315789473684" y="472.77894736842103" type="curve"/>
      <point x="1748.757894736842" y="945.6421052631579" type="line"/>
      <point x="1764.3999999999999" y="1121.2842105263157"/>
      <point x="1776.4" y="1263.7894736842106"/>
      <point x="1790.042105263158" y="1426.0" type="curve"/>
      <point x="1643.3052631578948" y="1426.0" type="line"/>
      <point x="1507.9789473684211" y="1209.536842105263"/>
      <point x="1387.7263157894736" y="1013.0105263157894"/>
      <point x="1264.3999999999999" y="813.978947368421" type="curve"/>
      <point x="900.0631578947368" y="225.2421052631579" type="line"/>
      <point x="888.1263157894737" y="225.2421052631579" type="line"/>
      <point x="772.2315789473685" y="813.978947368421" type="line"/>
      <point x="733.6" y="1013.0105263157894"/>
      <point x="690.0421052631579" y="1210.6105263157895"/>
      <point x="647.7684210526315" y="1426.0" type="curve"/>
      <point x="513.1789473684211" y="1426.0" type="line"/>
      <point x="457.89473684210526" y="1261.4315789473685"/>
      <point x="410.82105263157894" y="1118.0"/>
      <point x="352.82105263157894" y="945.6421052631579" type="curve"/>
      <point x="195.74736842105264" y="472.77894736842103" type="line"/>
      <point x="137.74736842105264" y="299.13684210526316"/>
      <point x="89.74736842105263" y="154.77894736842106"/>
    </contour>
  </outline>
</glyph>
<glyph name="N" format="2">
  <advance width="1510.0631578947368"/>
  <unicode hex="004E"/>
  <anchor x="651.8526315789474" y="0.0" name="bottom"/>
  <anchor x="951.8526315789474" y="1426.0" name="top"/>
  <outline>
    <contour>
      <point x="92.37894736842104" y="0.0" type="curve"/>
      <point x="226.88421052631583" y="0.0" type="line"/>
      <point x="260.5263157894737" y="159.49473684210525"/>
      <point x="289.8105263157895" y="296.63157894736844"/>
      <point x="326.5263157894737" y="472.77894736842103" type="curve"/>
      <point x="479.8315789473684" y="1201.3894736842105" type="line"/>
      <point x="492.1263157894736" y="1201.3894736842105" type="line"/>
      <point x="723.8526315789474" y="728.4210526315788" type="line"/>
      <point x="862.6736842105263" y="444.12631578947367"/>
      <point x="975.0736842105262" y="215.38947368421051"/>
      <point x="1079.9789473684211" y="0.0" type="curve"/>
      <point x="1208.2526315789473" y="0.0" type="line"/>
      <point x="1241.8947368421052" y="159.49473684210525"/>
      <point x="1271.178947368421" y="296.63157894736844"/>
      <point x="1307.8947368421052" y="472.77894736842103" type="curve"/>
      <point x="1408.6105263157895" y="946.3578947368421" type="line"/>
      <point x="1446.9684210526316" y="1126.5052631578947"/>
      <point x="1476.6105263157895" y="1268.3578947368421"/>
      <point x="1510.6105263157895" y="1426.0" type="curve"/>
      <point x="1376.1052631578948" y="1426.0" type="line"/>
      <point x="1342.1052631578948" y="1268.3578947368421"/>
      <point x="1312.463157894737" y="1126.5052631578947"/>
      <point x="1274.1052631578948" y="946.3578947368421" type="curve"/>
      <point x="1121.5157894736842" y="231.17894736842106" type="line"/>
      <point x="1108.8631578947368" y="231.17894736842106" type="line"/>
      <point x="879.8526315789474" y="700.5052631578948" type="line"/>
      <point x="767.4526315789474" y="931.242105263158"/>
      <point x="650.1263157894737" y="1170.9052631578948"/>
      <point x="526.8" y="1426.0" type="curve"/>
      <point x="394.7368421052631" y="1426.0" type="line"/>
      <point x="360.7368421052631" y="1268.3578947368421"/>
      <point x="331.09473684210525" y="1126.5052631578947"/>
      <point x="292.7368421052631" y="946.3578947368421" type="curve"/>
      <point x="192.02105263157893" y="472.77894736842103" type="line"/>
      <point x="155.30526315789473" y="296.63157894736844"/>
      <point x="126.02105263157894" y="159.49473684210525"/>
    </contour>
  </outline>
</glyph>
<glyph name="O" format="2">
  <advance width="1635.1368421052632"/>
  <unicode hex="004F"/>
  <anchor x="714.2105263157895" y="0.0" name="bottom"/>
  <anchor x="864.2105263157895" y="714.0" name="center"/>
  <anchor x="948.0421052631579" y="0.0" name="ogonek"/>
  <anchor x="1014.2105263157895" y="1426.0" name="top"/>
  <anchor x="250.21052631578948" y="1426.0" name="topleft"/>
  <anchor x="1582.715789473684" y="1426.0" name="topright"/>
  <outline>
    <contour>
      <point x="804.9263157894737" y="-20.50526315789474" type="curve" smooth="yes"/>
      <point x="1193.4526315789474" y="-20.50526315789474"/>
      <point x="1476.9473684210525" y="241.28421052631577"/>
      <point x="1557.6631578947367" y="620.1473684210525" type="curve" smooth="yes"/>
      <point x="1652.0210526315789" y="1061.221052631579"/>
      <point x="1403.0947368421052" y="1451.4315789473685"/>
      <point x="933.3473684210527" y="1451.4315789473685" type="curve" smooth="yes"/>
      <point x="538.2526315789473" y="1451.4315789473685"/>
      <point x="251.4736842105263" y="1196.1473684210525"/>
      <point x="164.18947368421053" y="789.5789473684212" type="curve" smooth="yes"/>
      <point x="72.18947368421051" y="355.22105263157897"/>
      <point x="325.0315789473685" y="-20.50526315789474"/>
    </contour>
    <contour>
      <point x="806.3578947368421" y="104.54736842105262" type="curve"/>
      <point x="439.09473684210525" y="104.54736842105262"/>
      <point x="225.7263157894737" y="392.9263157894737"/>
      <point x="305.85263157894735" y="768.9894736842105" type="curve" smooth="yes"/>
      <point x="373.7684210526316" y="1088.0"/>
      <point x="585.2210526315789" y="1326.378947368421"/>
      <point x="932.2736842105263" y="1326.378947368421" type="curve"/>
      <point x="1296.3999999999999" y="1326.378947368421"/>
      <point x="1493.4105263157896" y="1020.1473684210525"/>
      <point x="1415.284210526316" y="640.5894736842105" type="curve" smooth="yes"/>
      <point x="1355.2210526315791" y="347.34736842105264"/>
      <point x="1145.4105263157894" y="104.54736842105262"/>
    </contour>
  </outline>
</glyph>
<glyph name="P" format="2">
  <advance width="1242.6666666666667"/>
  <unicode hex="0050"/>
  <outline>
    <contour>
      <point x="684.5747126436783" y="586.8275862068965" type="curve"/>
      <point x="1082.8505747126437" y="586.8275862068965"/>
      <point x="1203.7931034482758" y="730.390804597701"/>
      <point x="1258.1379310344828" y="986.1149425287356" type="curve" smooth="yes"/>
      <point x="1315.6091954022988" y="1257.126436781609"/>
      <point x="1173.7931034482758" y="1426.0"/>
      <point x="854.0689655172414" y="1426.0" type="curve"/>
      <point x="644.4367816091955" y="1426.0"/>
      <point x="498.89655172413796" y="1426.0"/>
      <point x="394.55172413793105" y="1426.0" type="curve"/>
      <point x="483.08045977011494" y="1306.1609195402298" type="line"/>
      <point x="828.8735632183908" y="1306.1609195402298" type="line" smooth="yes"/>
      <point x="980.8965517241379" y="1306.1609195402298"/>
      <point x="1170.9425287356323" y="1254.5977011494253"/>
      <point x="1115.5402298850577" y="996.8965517241379" type="curve" smooth="yes"/>
      <point x="1068.5747126436784" y="770.4137931034483"/>
      <point x="955.7701149425287" y="705.448275862069"/>
      <point x="681.9770114942529" y="705.448275862069" type="curve" smooth="yes"/>
      <point x="361.67816091954023" y="705.448275862069" type="line"/>
      <point x="335.95402298850576" y="586.8275862068965" type="line"/>
      <point x="415.1724137931035" y="586.8275862068965"/>
      <point x="583.3563218390805" y="586.8275862068965"/>
    </contour>
    <contour>
      <point x="92.55172413793103" y="0.0" type="curve"/>
      <point x="230.80459770114945" y="0.0" type="line"/>
      <point x="264.8045977011495" y="159.6551724137931"/>
      <point x="294.02298850574715" y="296.5287356321839"/>
      <point x="330.8045977011495" y="472.8735632183908" type="curve"/>
      <point x="428.45977011494256" y="930.7126436781609" type="line"/>
      <point x="465.2413793103449" y="1107.057471264368"/>
      <point x="494.45977011494256" y="1246.2758620689656"/>
      <point x="528.4597701149426" y="1406.712643678161" type="curve"/>
      <point x="394.55172413793105" y="1426.0" type="line"/>
      <point x="360.55172413793105" y="1268.0"/>
      <point x="331.33333333333337" y="1126.344827586207"/>
      <point x="292.55172413793105" y="946.0" type="curve"/>
      <point x="191.77011494252872" y="472.8735632183908" type="line"/>
      <point x="154.98850574712642" y="296.5287356321839"/>
      <point x="126.55172413793103" y="159.6551724137931"/>
    </contour>
  </outline>
</glyph>
<glyph name="R" format="2">
  <advance width="1327.8850574712644"/>
  <unicode hex="0052"/>
  <anchor x="562.2528735632184" y="0.0" name="bottom"/>
  <anchor x="837.8850574712644" y="1426.0" name="top"/>
  <outline>
    <contour>
      <point x="997.9770114942528" y="0.0" type="curve"/>
      <point x="1158.8275862068965" y="0.0" type="line"/>
      <point x="1089.8620689655172" y="110.0"/>
      <point x="986.0229885057472" y="276.3448275862069"/>
      <point x="903.8390804597701" y="405.9080459770115" type="curve"/>
      <point x="726.2528735632184" y="687.471264367816" type="line"/>
      <point x="680.8275862068965" y="624.1149425287357" type="line"/>
      <point x="1068.3218390804598" y="620.896551724138"/>
      <point x="1194.8275862068967" y="762.8965517241379"/>
      <point x="1245.6091954022988" y="1003.5862068965517" type="curve" smooth="yes"/>
      <point x="1299.5172413793105" y="1255.9080459770116"/>
      <point x="1154.5747126436781" y="1426.0"/>
      <point x="834.8505747126437" y="1426.0" type="curve"/>
      <point x="637.7241379310345" y="1426.0"/>
      <point x="503.5862068965517" y="1426.0"/>
      <point x="394.55172413793105" y="1426.0" type="curve"/>
      <point x="461.9770114942529" y="1306.1609195402298" type="line"/>
      <point x="812.0" y="1306.1609195402298" type="line" smooth="yes"/>
      <point x="964.0229885057472" y="1306.1609195402298"/>
      <point x="1152.0689655172414" y="1256.5057471264367"/>
      <point x="1099.8850574712644" y="1010.4597701149426" type="curve" smooth="yes"/>
      <point x="1051.3563218390805" y="781.816091954023"/>
      <point x="934.2068965517242" y="719.1954022988506"/>
      <point x="663.5402298850574" y="719.1954022988506" type="curve" smooth="yes"/>
      <point x="355.4252873563218" y="719.1954022988506" type="line"/>
      <point x="329.7011494252873" y="600.5747126436781" type="line"/>
      <point x="664.390804597701" y="600.5747126436781" type="line"/>
      <point x="588.0" y="669.4712643678162" type="line"/>
      <point x="783.1494252873563" y="345.9310344827586" type="line"/>
      <point x="852.2068965517242" y="234.6206896551724"/>
      <point x="921.7011494252873" y="122.0919540229885"/>
    </contour>
    <contour>
      <point x="92.55172413793103" y="0.0" type="curve"/>
      <point x="230.80459770114942" y="0.0" type="line"/>
      <point x="264.8045977011494" y="159.6551724137931"/>
      <point x="294.02298850574715" y="296.5287356321839"/>
      <point x="330.8045977011494" y="472.8735632183908" type="curve"/>
      <point x="428.45977011494256" y="930.7126436781609" type="line"/>
      <point x="465.2413793103448" y="1107.057471264368"/>
      <point x="494.45977011494256" y="1246.2758620689656"/>
      <point x="528.4597701149426" y="1406.712643678161" type="curve"/>
      <point x="394.55172413793105" y="1426.0" type="line"/>
      <point x="360.55172413793105" y="1268.0"/>
      <point x="331.33333333333337" y="1126.344827586207"/>
      <point x="292.55172413793105" y="946.0" type="curve"/>
      <point x="191.77011494252872" y="472.8735632183908" type="line"/>
      <point x="154.98850574712642" y="296.5287356321839"/>
      <point x="126.55172413793103" y="159.6551724137931"/>
    </contour>
  </outline>
</glyph>
<glyph name="S" format="2">
  <advance width="1164.8505747126437"/>
  <unicode hex="0053"/>
  <anchor x="486.6896551724137" y="0.0" name="bottom"/>
  <anchor x="786.6896551724137" y="1426.0" name="top"/>
  <outline>
    <contour>
      <point x="541.1264367816092" y="-20.344827586206897" type="curve" smooth="yes"/>
      <point x="846.3218390804598" y="-20.344827586206897"/>
      <point x="999.4482758620688" y="104.52873563218392"/>
      <point x="1046.5747126436781" y="328.1609195402299" type="curve" smooth="yes"/>
      <point x="1086.1379310344828" y="517.9770114942529"/>
      <point x="1005.3563218390805" y="649.8850574712644"/>
      <point x="691.264367816092" y="782.7586206896552" type="curve" smooth="yes"/>
      <point x="438.62068965517244" y="890.2528735632184"/>
      <point x="356.0" y="964.344827586207"/>
      <point x="389.3103448275862" y="1119.6781609195402" type="curve" smooth="yes"/>
      <point x="425.0574712643678" y="1286.4137931034484"/>
      <point x="590.4827586206897" y="1326.1609195402298"/>
      <point x="745.7241379310344" y="1326.1609195402298" type="curve"/>
      <point x="855.9080459770115" y="1326.1609195402298"/>
      <point x="1023.3793103448276" y="1279.3793103448277"/>
      <point x="1123.7241379310344" y="1197.0344827586207" type="curve"/>
      <point x="1166.9195402298851" y="1322.7816091954023" type="line"/>
      <point x="1093.1954022988507" y="1378.6896551724137"/>
      <point x="903.816091954023" y="1451.5632183908046"/>
      <point x="733.2183908045977" y="1451.5632183908046" type="curve" smooth="yes"/>
      <point x="453.5862068965517" y="1451.5632183908046"/>
      <point x="289.14942528735634" y="1338.8735632183907"/>
      <point x="246.80459770114945" y="1136.3678160919542" type="curve" smooth="yes"/>
      <point x="200.02298850574715" y="916.8965517241379"/>
      <point x="315.58620689655174" y="798.8275862068966"/>
      <point x="595.080459770115" y="681.0804597701149" type="curve" smooth="yes"/>
      <point x="817.5402298850576" y="587.6781609195402"/>
      <point x="938.1609195402299" y="505.05747126436785"/>
      <point x="904.0689655172414" y="342.50574712643675" type="curve" smooth="yes"/>
      <point x="861.103448275862" y="144.02298850574712"/>
      <point x="698.367816091954" y="104.27586206896552"/>
      <point x="538.0" y="104.27586206896552" type="curve"/>
      <point x="348.9425287356322" y="104.27586206896552"/>
      <point x="210.68965517241378" y="164.71264367816093"/>
      <point x="95.5632183908046" y="248.27586206896552" type="curve"/>
      <point x="55.14942528735633" y="122.183908045977" type="line"/>
      <point x="141.49425287356323" y="54.96551724137931"/>
      <point x="317.90804597701145" y="-20.344827586206897"/>
    </contour>
  </outline>
</glyph>
<glyph name="T" format="2">
  <advance width="1279.0105263157895"/>
  <unicode hex="0054"/>
  <anchor x="538.1473684210526" y="0.0" name="bottom"/>
  <anchor x="683.4947368421053" y="693.2421052631579" name="center"/>
  <anchor x="838.1473684210526" y="1426.0" name="top"/>
  <outline>
    <contour>
      <point x="467.13684210526316" y="0.0" type="curve"/>
      <point x="607.3684210526317" y="0.0" type="line"/>
      <point x="641.0105263157895" y="159.49473684210525"/>
      <point x="670.2947368421053" y="296.63157894736844"/>
      <point x="707.0105263157895" y="472.77894736842103" type="curve"/>
      <point x="804.8631578947369" y="930.4" type="line"/>
      <point x="841.5789473684212" y="1107.2631578947369"/>
      <point x="871.5789473684212" y="1246.1894736842105"/>
      <point x="905.221052631579" y="1406.7578947368422" type="curve"/>
      <point x="909.7263157894737" y="1426.0" type="line"/>
      <point x="769.4947368421052" y="1426.0" type="line"/>
      <point x="764.9894736842106" y="1406.7578947368422" type="line"/>
      <point x="731.3473684210527" y="1246.1894736842105"/>
      <point x="701.3473684210527" y="1107.2631578947369"/>
      <point x="664.6315789473684" y="930.4" type="curve"/>
      <point x="566.7789473684211" y="472.77894736842103" type="line"/>
      <point x="530.0631578947368" y="296.63157894736844"/>
      <point x="500.7789473684211" y="159.49473684210525"/>
    </contour>
    <contour>
      <point x="235.03157894736844" y="1299.221052631579" type="line"/>
      <point x="349.09473684210525" y="1299.221052631579"/>
      <point x="469.1578947368421" y="1299.221052631579"/>
      <point x="633.7894736842105" y="1299.221052631579" type="curve"/>
      <point x="763.4947368421052" y="1299.221052631579" type="line"/>
      <point x="790.7368421052631" y="1426.0" type="line"/>
      <point x="262.2736842105263" y="1426.0" type="line"/>
    </contour>
    <contour>
      <point x="856.3157894736842" y="1299.221052631579" type="line"/>
      <point x="986.021052631579" y="1299.221052631579" type="line"/>
      <point x="1150.6526315789474" y="1299.221052631579"/>
      <point x="1270.3578947368421" y="1299.221052631579"/>
      <point x="1384.421052631579" y="1299.221052631579" type="curve"/>
      <point x="1412.0210526315789" y="1426.0" type="line"/>
      <point x="883.5578947368421" y="1426.0" type="line"/>
    </contour>
  </outline>
</glyph>
<glyph name="U" format="2">
  <advance width="1461.8526315789475"/>
  <unicode hex="0055"/>
  <anchor x="628.5684210526316" y="0.0" name="bottom"/>
  <anchor x="850.1052631578947" y="0.0" name="ogonek"/>
  <anchor x="928.5684210526316" y="1426.0" name="top"/>
  <anchor x="1583.3052631578946" y="1426.0" name="topright"/>
  <outline>
    <contour>
      <point x="663.2842105263157" y="-20.50526315789474" type="curve" smooth="yes"/>
      <point x="1058.821052631579" y="-20.50526315789474"/>
      <point x="1219.536842105263" y="196.21052631578948"/>
      <point x="1279.6842105263158" y="478.4421052631579" type="curve" smooth="yes"/>
      <point x="1298.9684210526316" y="570.5052631578948"/>
      <point x="1340.9684210526316" y="760.6526315789473"/>
      <point x="1379.8947368421052" y="946.3578947368421" type="curve"/>
      <point x="1418.2526315789473" y="1126.5052631578947"/>
      <point x="1447.8947368421052" y="1268.7157894736843"/>
      <point x="1481.536842105263" y="1426.0" type="curve"/>
      <point x="1341.3052631578946" y="1426.0" type="line"/>
      <point x="1307.6631578947367" y="1268.7157894736843"/>
      <point x="1277.6631578947367" y="1126.1473684210525"/>
      <point x="1239.3052631578946" y="946.3578947368421" type="curve"/>
      <point x="1144.8842105263157" y="508.6736842105263" type="line" smooth="yes"/>
      <point x="1093.8947368421052" y="269.2210526315789"/>
      <point x="978.063157894737" y="104.54736842105262"/>
      <point x="671.7263157894737" y="104.54736842105262" type="curve"/>
      <point x="363.53684210526313" y="104.54736842105262"/>
      <point x="276.9894736842105" y="313.8526315789474"/>
      <point x="333.62105263157895" y="581.3684210526316" type="curve" smooth="yes"/>
      <point x="412.1894736842105" y="946.3578947368421" type="line"/>
      <point x="450.5473684210526" y="1126.5052631578947"/>
      <point x="480.1894736842105" y="1268.3578947368421"/>
      <point x="514.1894736842105" y="1426.0" type="curve"/>
      <point x="373.9578947368421" y="1426.0" type="line"/>
      <point x="339.9578947368421" y="1268.3578947368421"/>
      <point x="310.3157894736842" y="1126.5052631578947"/>
      <point x="271.9578947368421" y="946.3578947368421" type="curve"/>
      <point x="240.67368421052632" y="799.0105263157894"/>
      <point x="209.38947368421054" y="660.8000000000001"/>
      <point x="192.10526315789474" y="580.021052631579" type="curve" smooth="yes"/>
      <point x="123.60000000000001" y="258.5684210526316"/>
      <point x="261.178947368421" y="-20.50526315789474"/>
    </contour>
  </outline>
</glyph>
<glyph name="V" format="2">
  <advance width="1360.3368421052633"/>
  <unicode hex="0056"/>
  <anchor x="577.8105263157895" y="0.0" name="bottom"/>
  <anchor x="877.8105263157895" y="1426.0" name="top"/>
  <outline>
    <contour>
      <point x="483.9157894736842" y="0.0" type="curve"/>
      <point x="679.7684210526317" y="0.0" type="line"/>
      <point x="764.1894736842106" y="144.92631578947368"/>
      <point x="862.2526315789474" y="319.8526315789474"/>
      <point x="940.1052631578947" y="453.64210526315793" type="curve"/>
      <point x="1196.8" y="900.0" type="line"/>
      <point x="1285.578947368421" y="1054.3578947368421"/>
      <point x="1400.9263157894736" y="1255.2842105263157"/>
      <point x="1499.3473684210526" y="1426.0" type="curve"/>
      <point x="1338.0210526315789" y="1426.0" type="line"/>
      <point x="1212.6947368421052" y="1205.242105263158"/>
      <point x="1078.442105263158" y="967.2"/>
      <point x="958.7578947368421" y="755.3684210526316" type="curve"/>
      <point x="614.8421052631578" y="147.5157894736842" type="line"/>
      <point x="599.2631578947368" y="147.5157894736842" type="line"/>
      <point x="505.6" y="751.7263157894737" type="line"/>
      <point x="472.5473684210526" y="964.8421052631578"/>
      <point x="434.5684210526316" y="1212.8842105263159"/>
      <point x="401.1578947368421" y="1426.0" type="curve"/>
      <point x="254.6315789473684" y="1426.0" type="line"/>
      <point x="282.33684210526314" y="1254.7157894736843"/>
      <point x="315.32631578947365" y="1049.0736842105264"/>
      <point x="339.7473684210526" y="898.3578947368421" type="curve"/>
      <point x="411.0105263157895" y="453.6421052631579" type="line"/>
      <point x="433.4315789473684" y="315.6421052631579"/>
      <point x="461.4947368421052" y="142.0"/>
    </contour>
  </outline>
</glyph>
<glyph name="W" format="2">
  <advance width="2025.5578947368422"/>
  <unicode hex="0057"/>
  <anchor x="905.4526315789474" y="0.0" name="bottom"/>
  <anchor x="1205.4526315789474" y="1426.0" name="top"/>
  <outline>
    <contour>
      <point x="374.37894736842105" y="0.0" type="curve"/>
      <point x="557.2631578947369" y="0.0" type="line"/>
      <point x="655.0947368421054" y="201.38947368421051"/>
      <point x="772.7789473684211" y="445.5578947368421"/>
      <point x="870.6105263157895" y="646.9473684210526" type="curve"/>
      <point x="1153.536842105263" y="1231.621052631579" type="line"/>
      <point x="1169.1157894736841" y="1231.621052631579" type="line"/>
      <point x="1210.5894736842104" y="646.9473684210526" type="line"/>
      <point x="1224.294736842105" y="445.2"/>
      <point x="1241.2842105263157" y="205.03157894736844"/>
      <point x="1256.9894736842105" y="0.0" type="curve"/>
      <point x="1448.3157894736842" y="0.0" type="line"/>
      <point x="1516.8842105263159" y="136.3578947368421"/>
      <point x="1603.0947368421052" y="309.6421052631579"/>
      <point x="1675.3052631578948" y="451.6421052631579" type="curve"/>
      <point x="1900.6526315789474" y="900.0" type="line"/>
      <point x="1980.5052631578947" y="1059.2842105263157"/>
      <point x="2079.073684210526" y="1254.7157894736843"/>
      <point x="2164.926315789474" y="1426.0" type="curve"/>
      <point x="2004.1684210526316" y="1426.0" type="line"/>
      <point x="1901.0526315789473" y="1215.3894736842105"/>
      <point x="1780.4421052631578" y="969.642105263158"/>
      <point x="1678.9684210526316" y="762.3157894736843" type="curve"/>
      <point x="1387.1157894736841" y="165.26315789473685" type="line"/>
      <point x="1371.536842105263" y="165.26315789473685" type="line"/>
      <point x="1332.2105263157896" y="761.6" type="line"/>
      <point x="1317.578947368421" y="977.4947368421053"/>
      <point x="1302.9473684210527" y="1208.463157894737"/>
      <point x="1288.3157894736842" y="1426.0" type="curve"/>
      <point x="1115.6631578947367" y="1426.0" type="line"/>
      <point x="1017.1157894736842" y="1220.6736842105263"/>
      <point x="895.0736842105263" y="967.2842105263157"/>
      <point x="798.1684210526315" y="763.9578947368421" type="curve"/>
      <point x="511.0947368421052" y="165.26315789473685" type="line"/>
      <point x="495.51578947368415" y="165.26315789473685" type="line"/>
      <point x="453.41052631578947" y="750.1052631578947" type="line"/>
      <point x="437.8526315789474" y="962.7157894736843"/>
      <point x="419.7263157894737" y="1213.3894736842105"/>
      <point x="404.1684210526316" y="1426.0" type="curve"/>
      <point x="253.55789473684212" y="1426.0" type="line"/>
      <point x="267.41052631578947" y="1258.0"/>
      <point x="285.2631578947369" y="1053.0736842105264"/>
      <point x="299.1157894736842" y="891.7894736842105" type="curve"/>
      <point x="335.74736842105267" y="450.0" type="line"/>
      <point x="347.9578947368421" y="311.6421052631579"/>
      <point x="362.1684210526316" y="141.6421052631579"/>
    </contour>
  </outline>
</glyph>
<glyph name="X" format="2">
  <advance width="1340.2105263157894"/>
  <unicode hex="0058"/>
  <outline>
    <contour>
      <point x="-26.021052631578947" y="0.0" type="curve"/>
      <point x="149.09473684210528" y="0.0" type="line"/>
      <point x="260.0631578947369" y="130.33684210526314"/>
      <point x="353.89473684210526" y="238.82105263157894"/>
      <point x="452.29473684210524" y="354.2315789473684" type="curve"/>
      <point x="681.5157894736842" y="624.1894736842105" type="line"/>
      <point x="697.0947368421052" y="624.1894736842105" type="line"/>
      <point x="827.8315789473684" y="355.87368421052633" type="line"/>
      <point x="880.5263157894738" y="247.74736842105264"/>
      <point x="938.1473684210526" y="128.69473684210524"/>
      <point x="1001.0526315789473" y="0.0" type="curve"/>
      <point x="1158.5894736842106" y="0.0" type="line"/>
      <point x="1084.6736842105263" y="150.0"/>
      <point x="1018.042105263158" y="284.3578947368421"/>
      <point x="942.1263157894737" y="438.3578947368421" type="curve"/>
      <point x="790.2947368421053" y="749.0736842105263" type="line"/>
      <point x="781.0736842105264" y="699.6842105263158" type="line"/>
      <point x="1059.4105263157896" y="1022.4842105263158" type="line"/>
      <point x="1159.4736842105262" y="1138.2736842105264"/>
      <point x="1279.178947368421" y="1276.778947368421"/>
      <point x="1406.8842105263159" y="1426.0" type="curve"/>
      <point x="1233.2" y="1426.0" type="line"/>
      <point x="1123.157894736842" y="1297.5157894736842"/>
      <point x="1011.8315789473684" y="1166.463157894737"/>
      <point x="911.0736842105263" y="1049.9789473684211" type="curve"/>
      <point x="720.1263157894737" y="826.6526315789474" type="line"/>
      <point x="704.5473684210526" y="826.6526315789474" type="line"/>
      <point x="602.0842105263158" y="1046.6947368421054" type="line"/>
      <point x="549.3894736842105" y="1161.536842105263"/>
      <point x="487.7684210526316" y="1292.5894736842106"/>
      <point x="426.5052631578948" y="1426.0" type="curve"/>
      <point x="272.90526315789475" y="1426.0" type="line"/>
      <point x="348.4631578947368" y="1265.2842105263157"/>
      <point x="410.7368421052632" y="1130.5684210526315"/>
      <point x="473.36842105263156" y="997.8526315789474" type="curve"/>
      <point x="609.5578947368422" y="706.421052631579" type="line"/>
      <point x="619.1368421052632" y="754.0210526315789" type="line"/>
      <point x="319.66315789473686" y="403.7263157894737" type="line"/>
      <point x="195.03157894736842" y="257.93684210526317"/>
      <point x="82.0421052631579" y="126.50526315789473"/>
    </contour>
  </outline>
</glyph>
<glyph name="Y" format="2">
  <advance width="1288.0631578947368"/>
  <unicode hex="0059"/>
  <anchor x="541.7473684210527" y="0.0" name="bottom"/>
  <anchor x="842.4631578947369" y="1426.0" name="top"/>
  <anchor x="235.2842105263158" y="1426.0" name="topleft"/>
  <outline>
    <contour>
      <point x="599.8105263157895" y="572.0842105263158" type="line"/>
      <point x="726.0210526315789" y="572.0842105263158" type="line"/>
      <point x="1153.3684210526317" y="1090.9052631578948" type="line"/>
      <point x="1242.2947368421053" y="1198.4842105263158"/>
      <point x="1335.578947368421" y="1312.421052631579"/>
      <point x="1428.5052631578947" y="1426.0" type="curve"/>
      <point x="1254.4631578947367" y="1426.0" type="line"/>
      <point x="1096.2947368421053" y="1227.957894736842"/>
      <point x="1017.0315789473684" y="1130.7578947368422"/>
      <point x="888.5684210526315" y="969.4947368421052" type="curve"/>
      <point x="693.4105263157895" y="726.3157894736842" type="line"/>
      <point x="678.1894736842105" y="726.3157894736842" type="line"/>
      <point x="580.8" y="978.0631578947368" type="line"/>
      <point x="521.8947368421053" y="1132.042105263158"/>
      <point x="485.05263157894734" y="1227.6"/>
      <point x="407.7263157894737" y="1426.0" type="curve"/>
      <point x="257.5578947368421" y="1426.0" type="line"/>
      <point x="311.0526315789474" y="1293.7052631578947"/>
      <point x="347.2631578947369" y="1201.2"/>
      <point x="391.4736842105263" y="1090.9052631578948" type="curve"/>
    </contour>
    <contour>
      <point x="470.7368421052632" y="0.0" type="curve"/>
      <point x="611.6842105263157" y="0.0" type="line"/>
      <point x="645.3263157894736" y="159.49473684210525"/>
      <point x="674.6105263157895" y="296.63157894736844"/>
      <point x="711.3263157894736" y="472.77894736842103" type="curve"/>
      <point x="757.5578947368421" y="688.8631578947368" type="line"/>
      <point x="616.6105263157895" y="688.8631578947368" type="line"/>
      <point x="570.3789473684211" y="472.77894736842103" type="line"/>
      <point x="533.6631578947369" y="296.63157894736844"/>
      <point x="504.37894736842105" y="159.49473684210525"/>
    </contour>
  </outline>
</glyph>
<glyph name="Z" format="2">
  <advance width="1334.1052631578948"/>
  <unicode hex="005A"/>
  <anchor x="563.5157894736842" y="0.0" name="bottom"/>
  <anchor x="713.5157894736842" y="714.0" name="center"/>
  <anchor x="863.5157894736842" y="1426.0" name="top"/>
  <outline>
    <contour>
      <point x="-3.3052631578947356" y="0.0" type="line"/>
      <point x="1120.4842105263158" y="0.0" type="line"/>
      <point x="1147.0105263157895" y="122.84210526315789" type="line"/>
      <point x="979.3894736842105" y="122.84210526315789"/>
      <point x="711.8526315789475" y="122.84210526315789"/>
      <point x="527.3052631578948" y="122.84210526315789" type="curve"/>
      <point x="142.92631578947368" y="122.84210526315789" type="line"/>
      <point x="169.07368421052632" y="55.09473684210526" type="line"/>
      <point x="917.3894736842105" y="828.5473684210526" type="line"/>
      <point x="1073.578947368421" y="990.7368421052631"/>
      <point x="1227.2" y="1152.9263157894736"/>
      <point x="1391.0315789473684" y="1320.757894736842" type="curve"/>
      <point x="1413.0526315789473" y="1426.0" type="line"/>
      <point x="311.2" y="1426.0" type="line"/>
      <point x="284.67368421052635" y="1303.157894736842" type="line"/>
      <point x="494.14736842105265" y="1303.157894736842"/>
      <point x="690.6947368421053" y="1303.157894736842"/>
      <point x="864.3157894736843" y="1303.157894736842" type="curve"/>
      <point x="1285.2631578947367" y="1303.157894736842" type="line"/>
      <point x="1239.2631578947369" y="1357.7684210526315" type="line"/>
      <point x="533.6421052631579" y="624.8631578947368" type="line"/>
      <point x="377.66315789473686" y="462.88421052631577"/>
      <point x="160.90526315789475" y="236.1263157894737"/>
      <point x="14.210526315789476" y="85.43157894736842" type="curve"/>
    </contour>
  </outline>
</glyph>
<glyph name="bracketleft" format="2">
  <advance width="725.7894736842105"/>
  <unicode hex="005B"/>
  <outline>
    <contour>
      <point x="50.168421052631565" y="-230.44210526315788" type="curve"/>
      <point x="172.65263157894736" y="-230.44210526315788" type="line"/>
      <point x="175.5157894736842" y="-209.55789473684212" type="line"/>
      <point x="209.15789473684208" y="-49.34736842105263"/>
      <point x="238.44210526315788" y="89.43157894736842"/>
      <point x="274.8" y="263.22105263157897" type="curve"/>
      <point x="437.0105263157895" y="1032.6315789473683" type="line"/>
      <point x="473.7263157894737" y="1209.4947368421053"/>
      <point x="503.36842105263156" y="1348.421052631579"/>
      <point x="537.0105263157894" y="1508.9894736842105" type="curve"/>
      <point x="541.8736842105262" y="1528.2315789473685" type="line"/>
      <point x="419.3894736842105" y="1528.2315789473685" type="line"/>
      <point x="385.7473684210526" y="1367.6631578947367"/>
      <point x="356.10526315789474" y="1227.0947368421052"/>
      <point x="319.3894736842105" y="1051.8736842105263" type="curve"/>
      <point x="149.45263157894735" y="242.33684210526314" type="line"/>
      <point x="113.09473684210525" y="68.54736842105264"/>
      <point x="83.45263157894736" y="-70.94736842105263"/>
    </contour>
    <contour>
      <point x="153.49473684210528" y="-230.44210526315788" type="line"/>
      <point x="545.2" y="-230.44210526315788" type="line"/>
      <point x="567.9368421052632" y="-119.26315789473685" type="line"/>
      <point x="472.4421052631579" y="-119.26315789473685"/>
      <point x="371.66315789473686" y="-119.26315789473685"/>
      <point x="258.5263157894737" y="-119.26315789473685" type="curve"/>
      <point x="176.23157894736843" y="-119.26315789473685" type="line"/>
    </contour>
    <contour>
      <point x="493.89473684210526" y="1417.0526315789473" type="line"/>
      <point x="573.0526315789474" y="1417.0526315789473" type="line"/>
      <point x="709.4736842105264" y="1417.0526315789473"/>
      <point x="803.3263157894737" y="1417.0526315789473"/>
      <point x="891.1789473684211" y="1417.0526315789473" type="curve"/>
      <point x="914.2736842105263" y="1528.2315789473685" type="line"/>
      <point x="516.9894736842106" y="1528.2315789473685" type="line"/>
    </contour>
  </outline>
</glyph>
<glyph name="backslash" format="2">
  <advance width="885.3052631578947"/>
  <unicode hex="005C"/>
  <outline>
    <contour>
      <point x="593.4947368421053" y="0.0" type="curve"/>
      <point x="714.9052631578948" y="0.0" type="line"/>
      <point x="681.0526315789474" y="146.3578947368421"/>
      <point x="651.2" y="274.0"/>
      <point x="608.421052631579" y="456.0" type="curve"/>
      <point x="493.9368421052631" y="950.3578947368421" type="line"/>
      <point x="449.15789473684214" y="1143.2842105263157"/>
      <point x="418.94736842105266" y="1272.0"/>
      <point x="383.4526315789474" y="1426.0" type="curve"/>
      <point x="261.6842105263158" y="1426.0" type="line"/>
      <point x="297.5368421052632" y="1271.6421052631579"/>
      <point x="327.3894736842105" y="1143.2842105263157"/>
      <point x="372.52631578947364" y="949.6421052631579" type="curve"/>
      <point x="486.65263157894736" y="456.0" type="line"/>
      <point x="529.7894736842105" y="274.0"/>
      <point x="559.6421052631579" y="146.0"/>
    </contour>
  </outline>
</glyph>
<glyph name="asciicircum" format="2">
  <advance width="1204.3368421052633"/>
  <unicode hex="005E"/>
  <outline>
    <contour>
      <point x="1013.2421052631579" y="768.3157894736842" type="curve"/>
      <point x="1134.5684210526315" y="770.6736842105263" type="line"/>
      <point x="1042.1473684210525" y="970.1894736842105"/>
      <point x="950.0842105263158" y="1170.6315789473683"/>
      <point x="857.6631578947369" y="1370.1473684210525" type="curve"/>
      <point x="690.8631578947368" y="1370.1473684210525" type="line"/>
      <point x="525.5157894736842" y="1174.9894736842105"/>
      <point x="360.7368421052632" y="979.6842105263157"/>
      <point x="187.17894736842103" y="774.6736842105263" type="curve"/>
      <point x="325.87368421052633" y="774.6736842105263" type="line"/>
      <point x="469.5578947368421" y="935.2210526315789"/>
      <point x="612.8842105263158" y="1096.6947368421052"/>
      <point x="756.5684210526315" y="1257.242105263158" type="curve"/>
      <point x="771.7894736842105" y="1257.242105263158" type="line"/>
      <point x="852.2736842105263" y="1094.6947368421052"/>
      <point x="932.7578947368421" y="930.8631578947368"/>
    </contour>
  </outline>
</glyph>
<glyph name="underscore" format="2">
  <advance width="788.6315789473684"/>
  <unicode hex="005F"/>
  <outline>
    <contour>
      <point x="-169.66315789473686" y="-218.94736842105263" type="line"/>
      <point x="-47.578947368421055" y="-218.94736842105263"/>
      <point x="68.14736842105263" y="-218.94736842105263"/>
      <point x="167.5157894736842" y="-218.94736842105263" type="curve"/>
      <point x="321.7894736842105" y="-218.94736842105263" type="line"/>
      <point x="421.1578947368421" y="-218.94736842105263"/>
      <point x="536.8842105263158" y="-218.94736842105263"/>
      <point x="658.9684210526316" y="-218.94736842105263" type="curve"/>
      <point x="680.421052631579" y="-109.26315789473685" type="line"/>
      <point x="558.3368421052631" y="-109.26315789473685"/>
      <point x="442.61052631578946" y="-109.26315789473685"/>
      <point x="343.2421052631579" y="-109.26315789473685" type="curve"/>
      <point x="188.96842105263158" y="-109.26315789473685" type="line"/>
      <point x="89.6" y="-109.26315789473685"/>
      <point x="-26.126315789473686" y="-109.26315789473685"/>
      <point x="-148.21052631578948" y="-109.26315789473685" type="curve"/>
    </contour>
  </outline>
</glyph>
<glyph name="a" format="2">
  <advance width="1041.3793103448277"/>
  <unicode hex="0061"/>
  <anchor x="423.56321839080465" y="0.0" name="bottom"/>
  <anchor x="778.0459770114943" y="0.0" name="ogonek"/>
  <anchor x="635.5632183908046" y="991.1264367816092" name="top"/>
  <outline>
    <contour>
      <point x="346.11494252873564" y="-19.563218390804597" type="curve" smooth="yes"/>
      <point x="480.2988505747127" y="-19.563218390804597"/>
      <point x="586.8275862068966" y="38.62068965517241"/>
      <point x="670.4827586206897" y="140.18390804597703" type="curve"/>
      <point x="685.6091954022988" y="140.18390804597703" type="line"/>
      <point x="659.0804597701149" y="0.0" type="line"/>
      <point x="778.0459770114943" y="0.0" type="line"/>
      <point x="802.8275862068966" y="112.2528735632184"/>
      <point x="822.3908045977012" y="206.5057471264368"/>
      <point x="841.1724137931035" y="291.9770114942529" type="curve"/>
      <point x="869.264367816092" y="422.0" type="line" smooth="yes"/>
      <point x="888.4827586206897" y="508.09195402298855"/>
      <point x="901.7011494252873" y="576.5287356321838"/>
      <point x="914.4827586206897" y="635.6551724137931" type="curve" smooth="yes"/>
      <point x="962.8275862068966" y="860.6896551724138"/>
      <point x="856.7586206896552" y="1012.6896551724138"/>
      <point x="604.0" y="1012.6896551724138" type="curve" smooth="yes"/>
      <point x="480.5287356321839" y="1012.6896551724138"/>
      <point x="342.2758620689655" y="975.471264367816"/>
      <point x="254.367816091954" y="942.2528735632185" type="curve"/>
      <point x="233.42528735632183" y="814.7586206896552" type="line"/>
      <point x="372.2988505747126" y="873.1954022988506"/>
      <point x="489.08045977011494" y="897.1034482758621"/>
      <point x="576.9885057471264" y="897.1034482758621" type="curve" smooth="yes"/>
      <point x="746.4827586206897" y="897.1034482758621"/>
      <point x="833.448275862069" y="815.7011494252873"/>
      <point x="789.1724137931034" y="631.0344827586207" type="curve"/>
      <point x="439.67816091954023" y="566.0689655172414" type="line" smooth="yes"/>
      <point x="274.1149425287356" y="535.6321839080459"/>
      <point x="115.58620689655172" y="491.3793103448276"/>
      <point x="74.36781609195401" y="305.3793103448276" type="curve" smooth="yes"/>
      <point x="34.36781609195402" y="122.16091954022988"/>
      <point x="148.89655172413794" y="-19.563218390804597"/>
    </contour>
    <contour>
      <point x="384.0689655172414" y="90.89655172413794" type="curve" smooth="yes"/>
      <point x="256.98850574712645" y="90.89655172413794"/>
      <point x="177.7471264367816" y="159.17241379310346"/>
      <point x="205.9310344827586" y="297.5632183908046" type="curve" smooth="yes"/>
      <point x="229.24137931034483" y="411.2413793103448"/>
      <point x="338.6666666666667" y="441.67816091954023"/>
      <point x="469.5632183908046" y="467.7701149425287" type="curve" smooth="yes"/>
      <point x="675.1724137931035" y="509.5172413793103"/>
      <point x="729.3563218390805" y="527.9540229885058"/>
      <point x="767.448275862069" y="545.5172413793103" type="curve"/>
      <point x="716.8275862068966" y="310.1609195402299" type="line"/>
      <point x="617.5862068965517" y="152.45977011494253"/>
      <point x="499.31034482758616" y="90.89655172413794"/>
    </contour>
  </outline>
</glyph>
<glyph name="b" format="2">
  <advance width="1182.7157894736843"/>
  <unicode hex="0062"/>
  <outline>
    <contour>
      <point x="585.978947368421" y="-20.50526315789474" type="curve" smooth="yes"/>
      <point x="827.8315789473684" y="-20.50526315789474"/>
      <point x="1002.8210526315789" y="157.36842105263156"/>
      <point x="1062.821052631579" y="444.29473684210524" type="curve" smooth="yes"/>
      <point x="1125.1789473684212" y="745.0105263157894"/>
      <point x="1008.3368421052631" y="1013.0105263157894"/>
      <point x="710.5684210526316" y="1013.0105263157894" type="curve" smooth="yes"/>
      <point x="583.8736842105262" y="1013.0105263157894"/>
      <point x="479.6" y="945.4526315789474"/>
      <point x="408.6736842105263" y="874.2315789473685" type="curve"/>
      <point x="393.09473684210525" y="874.2315789473685" type="line"/>
      <point x="417.30526315789473" y="987.6421052631579" type="line"/>
      <point x="454.021052631579" y="1161.578947368421"/>
      <point x="488.37894736842105" y="1319.7263157894736"/>
      <point x="522.021052631579" y="1481.9368421052632" type="curve"/>
      <point x="390.5894736842105" y="1463.0736842105264" type="line"/>
      <point x="359.5157894736842" y="1314.421052631579"/>
      <point x="324.2315789473684" y="1155.4947368421053"/>
      <point x="288.5894736842105" y="987.6421052631579" type="curve"/>
      <point x="172.23157894736843" y="439.13684210526316" type="line"/>
      <point x="136.23157894736843" y="276.06315789473683"/>
      <point x="110.58947368421053" y="147.85263157894738"/>
      <point x="78.94736842105263" y="0.0" type="curve"/>
      <point x="192.42105263157893" y="0.0" type="line"/>
      <point x="231.64210526315787" y="151.7684210526316" type="line"/>
      <point x="246.14736842105265" y="151.7684210526316" type="line"/>
      <point x="317.13684210526316" y="43.91578947368421"/>
      <point x="443.34736842105264" y="-20.50526315789474"/>
    </contour>
    <contour>
      <point x="561.2842105263159" y="99.32631578947367" type="curve"/>
      <point x="427.8315789473684" y="99.32631578947367"/>
      <point x="331.22105263157897" y="153.09473684210528"/>
      <point x="266.67368421052635" y="276.5473684210526" type="curve"/>
      <point x="362.2947368421053" y="726.5894736842106" type="line"/>
      <point x="455.8315789473684" y="832.8421052631579"/>
      <point x="556.4421052631578" y="894.2526315789473"/>
      <point x="666.3368421052631" y="894.2526315789473" type="curve"/>
      <point x="899.8315789473685" y="894.2526315789473"/>
      <point x="980.5894736842106" y="693.8736842105263"/>
      <point x="931.7473684210527" y="456.58947368421053" type="curve" smooth="yes"/>
      <point x="889.1157894736842" y="252.35789473684207"/>
      <point x="772.1473684210526" y="99.32631578947367"/>
    </contour>
  </outline>
</glyph>
<glyph name="c" format="2">
  <advance width="993.978947368421"/>
  <unicode hex="0063"/>
  <anchor x="469.9157894736842" y="0.0" name="bottom"/>
  <anchor x="663.8526315789474" y="990.8631578947368" name="top"/>
  <outline>
    <contour>
      <point x="558.6526315789473" y="-19.431578947368422" type="curve" smooth="yes"/>
      <point x="660.1473684210526" y="-19.431578947368422"/>
      <point x="751.2842105263159" y="10.631578947368421"/>
      <point x="805.2842105263159" y="43.2" type="curve"/>
      <point x="816.3789473684211" y="171.2421052631579" type="line"/>
      <point x="744.8842105263158" y="125.03157894736843"/>
      <point x="661.5368421052632" y="97.17894736842106"/>
      <point x="575.1157894736842" y="97.17894736842106" type="curve" smooth="yes"/>
      <point x="327.9578947368421" y="97.17894736842106"/>
      <point x="188.1263157894737" y="262.4210526315789"/>
      <point x="247.6842105263158" y="533.2842105263157" type="curve" smooth="yes"/>
      <point x="297.6" y="764.5052631578948"/>
      <point x="461.91578947368424" y="894.2526315789473"/>
      <point x="658.8631578947368" y="894.2526315789473" type="curve"/>
      <point x="761.0526315789474" y="894.2526315789473"/>
      <point x="849.621052631579" y="869.4736842105262"/>
      <point x="944.3368421052631" y="803.1157894736842" type="curve"/>
      <point x="981.3684210526316" y="922.9473684210527" type="line"/>
      <point x="896.0" y="980.8000000000001"/>
      <point x="779.2842105263159" y="1012.6526315789474"/>
      <point x="656.9263157894737" y="1012.6526315789474" type="curve" smooth="yes"/>
      <point x="381.89473684210526" y="1012.6526315789474"/>
      <point x="173.6842105263158" y="823.7263157894737"/>
      <point x="116.96842105263158" y="549.9368421052632" type="curve" smooth="yes"/>
      <point x="45.53684210526316" y="218.06315789473686"/>
      <point x="225.20000000000002" y="-19.431578947368422"/>
    </contour>
  </outline>
</glyph>
<glyph name="g" format="2">
  <advance width="1079.816091954023"/>
  <unicode hex="0067"/>
  <anchor x="369.1034482758621" y="-384.0" name="bottom"/>
  <anchor x="611.3793103448277" y="991.1264367816092" name="top"/>
  <outline>
    <contour>
      <point x="347.47126436781605" y="-403.5632183908046" type="curve" smooth="yes"/>
      <point x="573.2873563218391" y="-403.5632183908046"/>
      <point x="807.8850574712644" y="-315.1264367816092"/>
      <point x="849.0114942528736" y="-121.49425287356321" type="curve" smooth="yes"/>
      <point x="882.9195402298851" y="34.91954022988506"/>
      <point x="771.8850574712643" y="142.82758620689657"/>
      <point x="504.1379310344828" y="142.82758620689657" type="curve" smooth="yes"/>
      <point x="428.7586206896551" y="142.82758620689657" type="line" smooth="yes"/>
      <point x="300.2758620689655" y="142.82758620689657"/>
      <point x="258.55172413793105" y="188.50574712643677"/>
      <point x="268.9885057471264" y="240.2528735632184" type="curve" smooth="yes"/>
      <point x="281.08045977011494" y="296.18390804597703"/>
      <point x="356.2988505747127" y="318.9655172413793"/>
      <point x="510.32183908045977" y="339.8390804597701" type="curve" smooth="yes"/>
      <point x="702.0689655172414" y="367.8390804597701"/>
      <point x="858.2298850574713" y="443.9310344827586"/>
      <point x="898.2298850574713" y="640.4367816091955" type="curve" smooth="yes"/>
      <point x="920.6666666666667" y="753.3103448275862"/>
      <point x="887.448275862069" y="858.2758620689656"/>
      <point x="773.1724137931034" y="938.7126436781609" type="curve"/>
      <point x="737.6321839080459" y="890.9195402298851" type="line"/>
      <point x="863.7241379310345" y="890.9195402298851"/>
      <point x="989.4712643678162" y="890.9195402298851"/>
      <point x="1120.3448275862067" y="890.9195402298851" type="curve"/>
      <point x="1141.7241379310344" y="991.9080459770115" type="line"/>
      <point x="796.6666666666667" y="991.9080459770115" type="line" smooth="yes"/>
      <point x="695.2873563218391" y="991.9080459770115"/>
      <point x="654.1609195402299" y="1012.6896551724138"/>
      <point x="546.183908045977" y="1012.6896551724138" type="curve" smooth="yes"/>
      <point x="344.551724137931" y="1012.6896551724138"/>
      <point x="190.80459770114942" y="916.0919540229885"/>
      <point x="152.367816091954" y="730.344827586207" type="curve" smooth="yes"/>
      <point x="110.71264367816093" y="535.3793103448277"/>
      <point x="243.77011494252875" y="424.59770114942523"/>
      <point x="317.9310344827586" y="388.0" type="curve"/>
      <point x="317.9310344827586" y="374.8735632183908" type="line"/>
      <point x="229.4942528735632" y="354.8735632183908"/>
      <point x="163.24137931034483" y="313.6551724137931"/>
      <point x="145.24137931034483" y="234.52873563218392" type="curve" smooth="yes"/>
      <point x="125.24137931034483" y="142.9655172413793"/>
      <point x="190.02298850574712" y="93.40229885057471"/>
      <point x="222.80459770114942" y="78.62068965517241" type="curve"/>
      <point x="222.80459770114942" y="67.49425287356321" type="line"/>
      <point x="147.58620689655172" y="53.49425287356322"/>
      <point x="7.494252873563224" y="3.8390804597701145"/>
      <point x="-20.942528735632177" y="-129.1264367816092" type="curve" smooth="yes"/>
      <point x="-60.50574712643677" y="-310.5977011494253"/>
      <point x="132.3448275862069" y="-403.5632183908046"/>
    </contour>
    <contour>
      <point x="359.1954022988506" y="-294.2298850574713" type="curve"/>
      <point x="228.48275862068965" y="-294.2298850574713"/>
      <point x="73.49425287356323" y="-249.35632183908046"/>
      <point x="100.45977011494253" y="-123.7471264367816" type="curve" smooth="yes"/>
      <point x="124.55172413793103" y="-10.942528735632184"/>
      <point x="285.0114942528736" y="30.022988505747126"/>
      <point x="420.09195402298843" y="30.804597701149426" type="curve"/>
      <point x="461.31034482758616" y="30.804597701149426" type="line" smooth="yes"/>
      <point x="698.735632183908" y="30.804597701149426"/>
      <point x="746.1379310344827" y="-38.160919540229884"/>
      <point x="726.4827586206897" y="-122.0919540229885" type="curve" smooth="yes"/>
      <point x="707.9540229885057" y="-201.86206896551724"/>
      <point x="587.5862068965517" y="-294.2298850574713"/>
    </contour>
    <contour>
      <point x="458.85057471264366" y="439.51724137931035" type="curve"/>
      <point x="347.1724137931035" y="469.17241379310343"/>
      <point x="242.02298850574715" y="557.9770114942528"/>
      <point x="271.7701149425288" y="705.8390804597701" type="curve" smooth="yes"/>
      <point x="298.2988505747127" y="840.0459770114943"/>
      <point x="405.1034482758621" y="898.6666666666666"/>
      <point x="546.4367816091954" y="898.6666666666666" type="curve"/>
      <point x="692.0229885057471" y="898.6666666666666"/>
      <point x="807.3563218390805" y="794.735632183908"/>
      <point x="776.0459770114943" y="649.7471264367816" type="curve" smooth="yes"/>
      <point x="739.8620689655173" y="483.264367816092"/>
      <point x="587.6551724137931" y="453.6091954022989"/>
    </contour>
  </outline>
</glyph>
<glyph name="k" format="2">
  <advance width="1066.9263157894736"/>
  <unicode hex="006B"/>
  <anchor x="444.52631578947364" y="0.0" name="bottom"/>
  <anchor x="749.2421052631579" y="1449.578947368421" name="top"/>
  <outline>
    <contour>
      <point x="755.4315789473684" y="0.0" type="curve"/>
      <point x="918.2315789473683" y="0.0" type="line"/>
      <point x="812.9684210526316" y="116.14736842105263"/>
      <point x="706.421052631579" y="231.01052631578946"/>
      <point x="601.1578947368422" y="347.1578947368421" type="curve"/>
      <point x="428.04210526315785" y="540.1894736842105" type="line"/>
      <point x="448.06315789473683" y="474.9894736842105" type="line"/>
      <point x="657.957894736842" y="643.8526315789474" type="line"/>
      <point x="802.8631578947369" y="759.6421052631579"/>
      <point x="945.4105263157894" y="875.0736842105263"/>
      <point x="1090.3157894736844" y="990.8631578947368" type="curve"/>
      <point x="913.7263157894737" y="990.8631578947368" type="line"/>
      <point x="797.4736842105264" y="896.0842105263158"/>
      <point x="678.2947368421053" y="800.021052631579"/>
      <point x="562.4000000000001" y="705.2421052631579" type="curve"/>
      <point x="370.88421052631577" y="550.6105263157895" type="line"/>
      <point x="308.0210526315789" y="550.6105263157895" type="line"/>
      <point x="287.4315789473684" y="453.8105263157895" type="line"/>
      <point x="341.15789473684214" y="453.8105263157895" type="line"/>
      <point x="502.52631578947364" y="280.0421052631579" type="line"/>
      <point x="585.4947368421052" y="186.69473684210527"/>
      <point x="670.8210526315789" y="93.34736842105264"/>
    </contour>
    <contour>
      <point x="78.94736842105263" y="0.0" type="curve"/>
      <point x="207.66315789473686" y="0.0" type="line"/>
      <point x="238.23157894736843" y="143.55789473684212"/>
      <point x="263.5157894736842" y="268.1894736842105"/>
      <point x="297.3684210526316" y="422.3157894736842" type="curve"/>
      <point x="417.30526315789473" y="987.6421052631579" type="line"/>
      <point x="454.021052631579" y="1161.578947368421"/>
      <point x="488.37894736842105" y="1319.7263157894738"/>
      <point x="522.021052631579" y="1481.9368421052632" type="curve"/>
      <point x="390.5894736842105" y="1463.0736842105264" type="line"/>
      <point x="359.5157894736842" y="1314.421052631579"/>
      <point x="324.2315789473684" y="1155.4947368421053"/>
      <point x="288.5894736842105" y="987.6421052631579" type="curve"/>
      <point x="172.23157894736843" y="439.13684210526316" type="line"/>
      <point x="136.23157894736843" y="276.06315789473683"/>
      <point x="110.58947368421053" y="147.85263157894738"/>
    </contour>
  </outline>
</glyph>
<glyph name="l" format="2">
  <advance width="498.61052631578946"/>
  <unicode hex="006C"/>
  <anchor x="143.30526315789473" y="0.0" name="bottom"/>
  <anchor x="319.09473684210525" y="818.0" name="center"/>
  <anchor x="450.2315789473684" y="1449.578947368421" name="top"/>
  <anchor x="521.7052631578947" y="990.8631578947368" name="topright"/>
  <outline>
    <contour>
      <point x="78.94736842105263" y="0.0" type="curve"/>
      <point x="207.66315789473686" y="0.0" type="line"/>
      <point x="239.30526315789476" y="147.85263157894738"/>
      <point x="264.94736842105266" y="276.06315789473683"/>
      <point x="300.94736842105266" y="439.13684210526316" type="curve"/>
      <point x="417.30526315789473" y="987.6421052631579" type="line"/>
      <point x="454.021052631579" y="1161.578947368421"/>
      <point x="488.37894736842105" y="1319.7263157894736"/>
      <point x="522.021052631579" y="1481.9368421052632" type="curve"/>
      <point x="390.5894736842105" y="1463.0736842105264" type="line"/>
      <point x="359.5157894736842" y="1314.421052631579"/>
      <point x="324.2315789473684" y="1155.4947368421053"/>
      <point x="288.5894736842105" y="987.6421052631579" type="curve"/>
      <point x="172.23157894736843" y="439.13684210526316" type="line"/>
      <point x="136.23157894736843" y="276.06315789473683"/>
      <point x="110.58947368421053" y="147.85263157894738"/>
    </contour>
  </outline>
</glyph>
<glyph name="m" format="2">
  <advance width="1744.3578947368421"/>
  <unicode hex="006D"/>
  <anchor x="785.1368421052631" y="0.0" name="bottom"/>
  <anchor x="993.8526315789474" y="990.8631578947368" name="top"/>
  <outline>
    <contour>
      <point x="78.94736842105263" y="0.0" type="curve"/>
      <point x="207.66315789473686" y="0.0" type="line"/>
      <point x="239.30526315789476" y="147.85263157894738"/>
      <point x="264.94736842105266" y="276.06315789473683"/>
      <point x="299.87368421052633" y="434.4842105263158" type="curve"/>
      <point x="351.0105263157895" y="672.3157894736842" type="line"/>
      <point x="454.9052631578947" y="793.3473684210526"/>
      <point x="558.4421052631579" y="888.8842105263158"/>
      <point x="695.5368421052631" y="888.8842105263158" type="curve" smooth="yes"/>
      <point x="843.3473684210527" y="888.8842105263158"/>
      <point x="886.7578947368422" y="786.5473684210526"/>
      <point x="848.1263157894738" y="605.2421052631579" type="curve"/>
      <point x="812.9894736842106" y="434.4842105263158" type="line"/>
      <point x="778.063157894737" y="276.06315789473683"/>
      <point x="752.421052631579" y="147.85263157894738"/>
      <point x="720.7789473684211" y="0.0" type="curve"/>
      <point x="849.4947368421052" y="0.0" type="line"/>
      <point x="881.1368421052631" y="147.85263157894738"/>
      <point x="906.7789473684211" y="276.06315789473683"/>
      <point x="942.7789473684211" y="439.13684210526316" type="curve"/>
      <point x="958.7789473684211" y="515.4947368421053"/>
      <point x="970.5684210526316" y="571.0105263157894"/>
      <point x="982.5684210526316" y="625.7263157894737" type="curve" smooth="yes"/>
      <point x="993.2842105263157" y="676.5894736842106"/>
      <point x="998.5684210526316" y="723.0947368421052"/>
      <point x="997.4947368421052" y="764.8842105263158" type="curve"/>
      <point x="995.7052631578947" y="771.4526315789473" type="line"/>
      <point x="988.2736842105263" y="927.1578947368421"/>
      <point x="902.6315789473684" y="1013.0105263157894"/>
      <point x="747.1368421052631" y="1013.0105263157894" type="curve" smooth="yes"/>
      <point x="586.4421052631578" y="1013.0105263157894"/>
      <point x="454.23157894736846" y="903.1789473684211"/>
      <point x="385.7263157894737" y="820.9473684210526" type="curve"/>
      <point x="371.4315789473684" y="820.9473684210526" type="line"/>
      <point x="406.06315789473683" y="999.3684210526316" type="line"/>
      <point x="289.30526315789473" y="990.8631578947368" type="line"/>
      <point x="253.30526315789473" y="823.2210526315789"/>
      <point x="219.66315789473683" y="664.2947368421053"/>
      <point x="194.23157894736843" y="539.1368421052632" type="curve"/>
      <point x="172.23157894736843" y="439.13684210526316" type="line"/>
      <point x="136.23157894736843" y="276.06315789473683"/>
      <point x="110.58947368421053" y="147.85263157894738"/>
    </contour>
    <contour>
      <point x="1352.757894736842" y="0.0" type="curve"/>
      <point x="1481.4736842105262" y="0.0" type="line"/>
      <point x="1513.1157894736841" y="147.85263157894738"/>
      <point x="1538.757894736842" y="276.06315789473683"/>
      <point x="1574.757894736842" y="439.13684210526316" type="curve"/>
      <point x="1590.757894736842" y="515.4947368421053"/>
      <point x="1602.5473684210526" y="571.0105263157894"/>
      <point x="1614.5473684210526" y="625.7263157894737" type="curve" smooth="yes"/>
      <point x="1667.4736842105262" y="866.8631578947368"/>
      <point x="1578.5473684210526" y="1013.0105263157894"/>
      <point x="1379.1157894736843" y="1013.0105263157894" type="curve" smooth="yes"/>
      <point x="1218.421052631579" y="1013.0105263157894"/>
      <point x="1082.9263157894738" y="901.5368421052631"/>
      <point x="1006.2105263157895" y="812.7368421052631" type="curve"/>
      <point x="986.4842105263158" y="812.7368421052631" type="line"/>
      <point x="982.6315789473683" y="672.3157894736842" type="line"/>
      <point x="1086.5263157894738" y="790.0631578947368"/>
      <point x="1190.421052631579" y="888.8842105263158"/>
      <point x="1327.5157894736842" y="888.8842105263158" type="curve" smooth="yes"/>
      <point x="1475.3263157894737" y="888.8842105263158"/>
      <point x="1518.7368421052631" y="786.5473684210526"/>
      <point x="1480.1052631578946" y="605.2421052631579" type="curve"/>
      <point x="1444.9684210526316" y="434.4842105263158" type="line"/>
      <point x="1410.0421052631577" y="276.06315789473683"/>
      <point x="1384.3999999999999" y="147.85263157894738"/>
    </contour>
  </outline>
</glyph>
<glyph name="o" format="2">
  <advance width="1194.3578947368421"/>
  <unicode hex="006F"/>
  <anchor x="492.0" y="0.0" name="bottom"/>
  <anchor x="596.3578947368421" y="495.4315789473684" name="center"/>
  <anchor x="687.3894736842105" y="0.0" name="ogonek"/>
  <anchor x="700.7157894736843" y="990.8631578947368" name="top"/>
  <anchor x="1173.2" y="990.8631578947368" name="topright"/>
  <outline>
    <contour>
      <point x="546.5052631578948" y="-20.50526315789474" type="curve" smooth="yes"/>
      <point x="816.6736842105264" y="-20.50526315789474"/>
      <point x="1020.3157894736843" y="167.70526315789473"/>
      <point x="1079.3894736842105" y="444.7157894736842" type="curve" smooth="yes"/>
      <point x="1143.3894736842105" y="743.0736842105263"/>
      <point x="983.8105263157895" y="1013.0105263157894"/>
      <point x="649.4947368421053" y="1013.0105263157894" type="curve" smooth="yes"/>
      <point x="398.6736842105263" y="1013.0105263157894"/>
      <point x="177.3263157894737" y="843.221052631579"/>
      <point x="116.61052631578947" y="548.1473684210526" type="curve" smooth="yes"/>
      <point x="56.25263157894737" y="256.3578947368421"/>
      <point x="203.1157894736842" y="-20.50526315789474"/>
    </contour>
    <contour>
      <point x="551.9368421052632" y="95.38947368421053" type="curve"/>
      <point x="296.021052631579" y="95.38947368421053"/>
      <point x="199.05263157894737" y="300.69473684210527"/>
      <point x="247.3263157894737" y="531.1368421052632" type="curve" smooth="yes"/>
      <point x="290.3157894736842" y="740.8"/>
      <point x="437.2" y="897.1157894736842"/>
      <point x="648.421052631579" y="897.1157894736842" type="curve"/>
      <point x="890.6315789473684" y="897.1157894736842"/>
      <point x="999.8736842105262" y="701.8736842105263"/>
      <point x="948.6736842105263" y="461.36842105263156" type="curve" smooth="yes"/>
      <point x="906.0421052631579" y="258.06315789473683"/>
      <point x="764.8" y="95.38947368421053"/>
    </contour>
  </outline>
</glyph>
<glyph name="p" format="2">
  <advance width="1183.5368421052633"/>
  <unicode hex="0070"/>
  <outline>
    <contour>
      <point x="-4.231578947368423" y="-389.4315789473684" type="curve"/>
      <point x="126.4842105263158" y="-384.0" type="line"/>
      <point x="158.1263157894737" y="-236.14736842105262"/>
      <point x="183.7684210526316" y="-107.93684210526315"/>
      <point x="218.69473684210527" y="50.48421052631579" type="curve"/>
      <point x="239.62105263157895" y="147.4736842105263" type="line"/>
      <point x="253.41052631578947" y="147.4736842105263" type="line"/>
      <point x="323.32631578947365" y="42.484210526315785"/>
      <point x="447.0315789473684" y="-20.50526315789474"/>
      <point x="586.8" y="-20.50526315789474" type="curve" smooth="yes"/>
      <point x="828.6526315789473" y="-20.50526315789474"/>
      <point x="1003.642105263158" y="157.36842105263156"/>
      <point x="1063.6421052631579" y="444.29473684210524" type="curve" smooth="yes"/>
      <point x="1126.0" y="745.0105263157894"/>
      <point x="1009.1578947368421" y="1013.0105263157894"/>
      <point x="711.3894736842105" y="1013.0105263157894" type="curve" smooth="yes"/>
      <point x="581.8315789473684" y="1013.0105263157894"/>
      <point x="474.69473684210527" y="943.6631578947369"/>
      <point x="401.2631578947369" y="868.5052631578948" type="curve"/>
      <point x="385.6842105263158" y="868.5052631578948" type="line"/>
      <point x="410.82105263157894" y="999.3684210526316" type="line"/>
      <point x="290.12631578947367" y="990.8631578947368" type="line"/>
      <point x="254.1263157894737" y="823.2210526315789"/>
      <point x="220.4842105263158" y="664.2947368421053"/>
      <point x="195.05263157894737" y="539.1368421052632" type="curve"/>
      <point x="91.05263157894737" y="55.136842105263156" type="line"/>
      <point x="56.694736842105264" y="-107.93684210526315"/>
      <point x="27.410526315789472" y="-241.57894736842104"/>
    </contour>
    <contour>
      <point x="562.1052631578948" y="99.32631578947367" type="curve"/>
      <point x="428.65263157894736" y="99.32631578947367"/>
      <point x="332.0421052631579" y="153.09473684210528"/>
      <point x="267.4947368421053" y="276.5473684210526" type="curve"/>
      <point x="363.11578947368423" y="726.5894736842106" type="line"/>
      <point x="456.65263157894736" y="832.8421052631579"/>
      <point x="557.2631578947368" y="894.2526315789473"/>
      <point x="667.1578947368421" y="894.2526315789473" type="curve"/>
      <point x="900.6526315789474" y="894.2526315789473"/>
      <point x="981.4105263157895" y="693.8736842105263"/>
      <point x="932.5684210526316" y="456.58947368421053" type="curve" smooth="yes"/>
      <point x="889.9368421052632" y="252.35789473684207"/>
      <point x="772.9684210526316" y="99.32631578947367"/>
    </contour>
  </outline>
</glyph>
<glyph name="q" format="2">
  <advance width="1164.5052631578947"/>
  <unicode hex="0071"/>
  <outline>
    <contour>
      <point x="681.0526315789474" y="-389.4315789473684" type="curve"/>
      <point x="811.4105263157894" y="-384.0" type="line"/>
      <point x="843.0526315789473" y="-236.14736842105262"/>
      <point x="868.6947368421053" y="-107.93684210526315"/>
      <point x="904.6947368421053" y="55.136842105263156" type="curve"/>
      <point x="1007.0526315789473" y="539.1368421052632" type="line"/>
      <point x="1041.4105263157894" y="703.1368421052632"/>
      <point x="1073.7684210526315" y="843.7894736842105"/>
      <point x="1106.842105263158" y="999.3684210526316" type="curve"/>
      <point x="984.7157894736843" y="990.8631578947368" type="line"/>
      <point x="954.5684210526316" y="861.9368421052632" type="line"/>
      <point x="938.9894736842106" y="861.9368421052632" type="line"/>
      <point x="867.0736842105264" y="944.9473684210526"/>
      <point x="743.578947368421" y="1013.0105263157894"/>
      <point x="597.0947368421052" y="1013.0105263157894" type="curve" smooth="yes"/>
      <point x="355.2421052631579" y="1013.0105263157894"/>
      <point x="180.2526315789474" y="835.1368421052631"/>
      <point x="120.25263157894737" y="548.2105263157895" type="curve" smooth="yes"/>
      <point x="56.25263157894737" y="247.49473684210525"/>
      <point x="174.73684210526318" y="-20.50526315789474"/>
      <point x="472.5052631578947" y="-20.50526315789474" type="curve" smooth="yes"/>
      <point x="579.8526315789474" y="-20.50526315789474"/>
      <point x="690.3368421052631" y="24.06315789473684"/>
      <point x="776.042105263158" y="127.76842105263158" type="curve"/>
      <point x="790.9052631578948" y="127.76842105263158" type="line"/>
      <point x="775.2631578947369" y="50.48421052631579" type="line"/>
      <point x="741.9789473684211" y="-107.93684210526315"/>
      <point x="712.6947368421053" y="-241.57894736842104"/>
    </contour>
    <contour>
      <point x="516.7368421052631" y="98.25263157894736" type="curve"/>
      <point x="283.2421052631579" y="98.25263157894736"/>
      <point x="200.8421052631579" y="298.6315789473684"/>
      <point x="251.32631578947368" y="535.9157894736842" type="curve" smooth="yes"/>
      <point x="293.95789473684215" y="740.1473684210526"/>
      <point x="410.9263157894737" y="893.1789473684211"/>
      <point x="621.7894736842105" y="893.1789473684211" type="curve"/>
      <point x="753.6" y="893.1789473684211"/>
      <point x="848.5684210526316" y="836.1263157894737"/>
      <point x="922.9684210526316" y="750.4421052631579" type="curve"/>
      <point x="827.3473684210527" y="300.4" type="line"/>
      <point x="745.3052631578947" y="159.66315789473686"/>
      <point x="629.9157894736842" y="98.25263157894736"/>
    </contour>
  </outline>
</glyph>
<glyph name="r" format="2">
  <advance width="791.6"/>
  <unicode hex="0072"/>
  <anchor x="144.94736842105263" y="0.0" name="bottom"/>
  <anchor x="570.1473684210526" y="990.8631578947368" name="top"/>
  <outline>
    <contour>
      <point x="78.94736842105263" y="0.0" type="curve"/>
      <point x="207.66315789473686" y="0.0" type="line"/>
      <point x="239.30526315789476" y="147.85263157894738"/>
      <point x="264.94736842105266" y="276.06315789473683"/>
      <point x="299.87368421052633" y="434.4842105263158" type="curve"/>
      <point x="331.15789473684214" y="576.5473684210526" type="line"/>
      <point x="460.4" y="839.6631578947369"/>
      <point x="588.4421052631579" y="880.6526315789474"/>
      <point x="677.8526315789475" y="880.6526315789474" type="curve" smooth="yes"/>
      <point x="717.7894736842105" y="880.6526315789474"/>
      <point x="756.1473684210526" y="877.3684210526316"/>
      <point x="805.221052631579" y="862.5894736842106" type="curve"/>
      <point x="844.1894736842106" y="991.3684210526316" type="line"/>
      <point x="809.2631578947369" y="1003.3684210526316"/>
      <point x="758.6947368421053" y="1013.0105263157894"/>
      <point x="710.8421052631579" y="1013.0105263157894" type="curve" smooth="yes"/>
      <point x="615.3473684210527" y="1013.0105263157894"/>
      <point x="488.65263157894736" y="977.1578947368421"/>
      <point x="384.0842105263158" y="806.1684210526316" type="curve"/>
      <point x="369.7894736842105" y="806.1684210526316" type="line"/>
      <point x="406.06315789473683" y="999.3684210526316" type="line"/>
      <point x="289.30526315789473" y="990.8631578947368" type="line"/>
      <point x="253.30526315789473" y="823.2210526315789"/>
      <point x="219.66315789473683" y="664.2947368421053"/>
      <point x="194.23157894736843" y="539.1368421052632" type="curve"/>
      <point x="172.23157894736843" y="439.13684210526316" type="line"/>
      <point x="136.23157894736843" y="276.06315789473683"/>
      <point x="110.58947368421053" y="147.85263157894738"/>
    </contour>
  </outline>
</glyph>
<glyph name="t" format="2">
  <advance width="812.8842105263158"/>
  <unicode hex="0074"/>
  <anchor x="367.85263157894735" y="0.0" name="bottom"/>
  <anchor x="416.8" y="495.4315789473684" name="center"/>
  <anchor x="559.0947368421052" y="1268.042105263158" name="top"/>
  <anchor x="567.2842105263157" y="990.8631578947368" name="topright"/>
  <outline>
    <contour>
      <point x="467.72631578947363" y="-20.50526315789474" type="curve" smooth="yes"/>
      <point x="540.0842105263158" y="-20.50526315789474"/>
      <point x="618.3157894736842" y="3.705263157894737"/>
      <point x="654.821052631579" y="28.77894736842105" type="curve"/>
      <point x="665.4105263157894" y="153.45263157894738" type="line"/>
      <point x="611.7684210526315" y="114.5263157894737"/>
      <point x="550.9894736842106" y="95.38947368421053"/>
      <point x="497.2842105263158" y="95.38947368421053" type="curve" smooth="yes"/>
      <point x="371.09473684210525" y="95.38947368421053"/>
      <point x="306.90526315789475" y="167.24210526315787"/>
      <point x="344.6105263157895" y="342.6315789473684" type="curve" smooth="yes"/>
      <point x="474.021052631579" y="949.2631578947369" type="line"/>
      <point x="506.5263157894737" y="1100.0"/>
      <point x="525.9578947368421" y="1196.9473684210527"/>
      <point x="557.0315789473685" y="1342.8842105263159" type="curve"/>
      <point x="423.2421052631579" y="1311.9368421052632" type="line"/>
      <point x="396.88421052631577" y="1188.7157894736843"/>
      <point x="373.81052631578945" y="1081.1368421052632"/>
      <point x="346.37894736842105" y="949.2631578947369" type="curve"/>
      <point x="310.86315789473684" y="781.8315789473684"/>
      <point x="266.2315789473684" y="573.8105263157895"/>
      <point x="214.31578947368422" y="329.1578947368421" type="curve" smooth="yes"/>
      <point x="166.1684210526316" y="103.34736842105264"/>
      <point x="271.41052631578947" y="-20.50526315789474"/>
    </contour>
    <contour>
      <point x="133.89473684210526" y="886.5473684210526" type="line"/>
      <point x="365.41052631578947" y="886.5473684210526" type="line"/>
      <point x="415.0526315789474" y="886.5473684210526" type="line"/>
      <point x="545.6842105263157" y="886.5473684210526"/>
      <point x="686.6736842105263" y="886.5473684210526"/>
      <point x="822.378947368421" y="886.5473684210526" type="curve"/>
      <point x="844.7578947368421" y="990.8631578947368" type="line"/>
      <point x="156.2736842105263" y="990.8631578947368" type="line"/>
    </contour>
  </outline>
</glyph>
<glyph name="u" format="2">
  <advance width="1110.5263157894738"/>
  <unicode hex="0075"/>
  <anchor x="451.36842105263156" y="0.0" name="bottom"/>
  <anchor x="845.8526315789474" y="0.0" name="ogonek"/>
  <anchor x="659.7263157894737" y="990.8631578947368" name="top"/>
  <anchor x="1160.7578947368422" y="990.8631578947368" name="topright"/>
  <outline>
    <contour>
      <point x="387.30526315789473" y="-20.50526315789474" type="curve" smooth="yes"/>
      <point x="543.7894736842105" y="-20.50526315789474"/>
      <point x="680.9263157894736" y="89.3263157894737"/>
      <point x="749.4315789473684" y="171.5578947368421" type="curve"/>
      <point x="763.7263157894737" y="171.5578947368421" type="line"/>
      <point x="730.7368421052631" y="0.0" type="line"/>
      <point x="845.8526315789474" y="0.0" type="line"/>
      <point x="877.4947368421052" y="147.85263157894738"/>
      <point x="903.1368421052632" y="276.06315789473683"/>
      <point x="937.4947368421052" y="439.13684210526316" type="curve"/>
      <point x="960.2105263157895" y="542.7157894736843" type="line"/>
      <point x="995.6421052631579" y="711.5157894736842"/>
      <point x="1024.5684210526317" y="843.0105263157894"/>
      <point x="1056.2105263157896" y="990.8631578947368" type="curve"/>
      <point x="927.4947368421052" y="990.8631578947368" type="line"/>
      <point x="895.8526315789474" y="843.0105263157894"/>
      <point x="866.9263157894736" y="711.5157894736842"/>
      <point x="833.6421052631579" y="553.0947368421052" type="curve"/>
      <point x="783.7894736842105" y="318.40000000000003" type="line"/>
      <point x="679.8947368421053" y="197.3684210526316"/>
      <point x="571.4315789473684" y="101.83157894736843"/>
      <point x="438.5473684210526" y="101.83157894736843" type="curve" smooth="yes"/>
      <point x="270.3157894736842" y="101.83157894736843"/>
      <point x="226.90526315789475" y="204.16842105263157"/>
      <point x="265.53684210526313" y="385.4736842105263" type="curve"/>
      <point x="299.38947368421054" y="553.0947368421052" type="line"/>
      <point x="332.6736842105263" y="711.5157894736842"/>
      <point x="363.6" y="848.4421052631579"/>
      <point x="395.2421052631579" y="996.2947368421053" type="curve"/>
      <point x="264.5263157894737" y="990.8631578947368" type="line"/>
      <point x="232.8842105263158" y="843.0105263157894"/>
      <point x="203.95789473684212" y="711.5157894736842"/>
      <point x="168.5263157894737" y="542.7157894736843" type="curve"/>
      <point x="154.1684210526316" y="471.2842105263158"/>
      <point x="143.45263157894738" y="421.4947368421053"/>
      <point x="131.45263157894738" y="366.77894736842103" type="curve" smooth="yes"/>
      <point x="78.5263157894737" y="125.64210526315789"/>
      <point x="167.45263157894735" y="-20.50526315789474"/>
    </contour>
  </outline>
</glyph>
<glyph name="v" format="2">
  <advance width="1009.1368421052632"/>
  <unicode hex="0076"/>
  <outline>
    <contour>
      <point x="325.38947368421054" y="0.0" type="curve"/>
      <point x="477.74736842105267" y="0.0" type="line"/>
      <point x="550.6736842105263" y="124.3578947368421"/>
      <point x="621.9578947368421" y="247.07368421052632"/>
      <point x="694.8842105263158" y="371.07368421052627" type="curve"/>
      <point x="799.4526315789474" y="547.7894736842105" type="line"/>
      <point x="884.7368421052631" y="694.5052631578948"/>
      <point x="973.3052631578947" y="844.5052631578948"/>
      <point x="1059.8736842105263" y="990.8631578947368" type="curve"/>
      <point x="912.9263157894736" y="990.8631578947368" type="line"/>
      <point x="816.8842105263158" y="820.9684210526316"/>
      <point x="721.7684210526315" y="651.4947368421052"/>
      <point x="621.3684210526316" y="475.4526315789474" type="curve"/>
      <point x="433.1368421052632" y="142.65263157894736" type="line"/>
      <point x="417.5578947368421" y="142.65263157894736" type="line"/>
      <point x="368.4421052631579" y="475.4526315789474" type="line"/>
      <point x="341.59999999999997" y="651.4947368421052"/>
      <point x="316.4" y="821.3263157894737"/>
      <point x="290.84210526315786" y="996.2947368421053" type="curve"/>
      <point x="159.62105263157895" y="990.8631578947368" type="line"/>
      <point x="184.18947368421053" y="846.8631578947369"/>
      <point x="209.1157894736842" y="696.1473684210526"/>
      <point x="233.68421052631578" y="551.4315789473684" type="curve"/>
      <point x="262.6105263157895" y="375.0736842105263" type="line"/>
      <point x="283.53684210526313" y="254.0"/>
      <point x="304.46315789473687" y="124.3578947368421"/>
    </contour>
  </outline>
</glyph>
<glyph name="w" format="2">
  <advance width="1584.778947368421"/>
  <unicode hex="0077"/>
  <anchor x="690.5263157894736" y="0.0" name="bottom"/>
  <anchor x="898.8842105263158" y="990.8631578947368" name="top"/>
  <outline>
    <contour>
      <point x="279.7473684210526" y="0.0" type="curve"/>
      <point x="428.31578947368416" y="0.0" type="line"/>
      <point x="512.5052631578948" y="162.82105263157894"/>
      <point x="603.6210526315789" y="337.85263157894735"/>
      <point x="686.1684210526316" y="497.3894736842105" type="curve"/>
      <point x="845.9789473684211" y="807.1789473684211" type="line"/>
      <point x="860.8421052631579" y="807.1789473684211" type="line"/>
      <point x="892.6105263157895" y="502.46315789473687" type="line"/>
      <point x="908.3157894736842" y="343.85263157894735"/>
      <point x="927.3052631578947" y="159.53684210526313"/>
      <point x="943.0105263157894" y="0.0" type="curve"/>
      <point x="1104.378947368421" y="0.0" type="line"/>
      <point x="1170.0210526315789" y="122.3578947368421"/>
      <point x="1237.6631578947367" y="248.7157894736842"/>
      <point x="1307.3052631578946" y="379.0736842105263" type="curve"/>
      <point x="1400.5894736842106" y="553.0736842105263" type="line"/>
      <point x="1478.5894736842106" y="698.5052631578948"/>
      <point x="1555.8736842105263" y="842.5052631578948"/>
      <point x="1635.5157894736842" y="990.8631578947368" type="curve"/>
      <point x="1489.4947368421053" y="990.8631578947368" type="line"/>
      <point x="1409.8736842105263" y="837.0315789473684"/>
      <point x="1310.757894736842" y="643.7052631578947"/>
      <point x="1223.8526315789472" y="474.58947368421053" type="curve"/>
      <point x="1052.042105263158" y="140.35789473684213" type="line"/>
      <point x="1038.463157894737" y="140.35789473684213" type="line"/>
      <point x="1006.4842105263158" y="472.2315789473684" type="line"/>
      <point x="989.8526315789474" y="643.3473684210526"/>
      <point x="973.2210526315789" y="823.7473684210527"/>
      <point x="956.5894736842106" y="990.8631578947368" type="curve"/>
      <point x="826.1052631578948" y="990.8631578947368" type="line"/>
      <point x="735.9157894736842" y="813.1789473684211"/>
      <point x="647.3684210526316" y="640.7789473684211"/>
      <point x="560.1052631578948" y="468.9473684210526" type="curve"/>
      <point x="393.2210526315789" y="140.35789473684213" type="line"/>
      <point x="379.6421052631579" y="140.35789473684213" type="line"/>
      <point x="346.021052631579" y="462.37894736842105" type="line"/>
      <point x="329.38947368421054" y="631.8526315789474"/>
      <point x="309.4736842105263" y="823.5368421052632"/>
      <point x="291.2" y="996.2947368421053" type="curve"/>
      <point x="159.62105263157895" y="990.8631578947368" type="line"/>
      <point x="178.18947368421053" y="840.8631578947369"/>
      <point x="195.4736842105263" y="699.7894736842105"/>
      <point x="212.4" y="553.0736842105263" type="curve"/>
      <point x="234.61052631578946" y="375.43157894736845" type="line"/>
      <point x="249.53684210526313" y="249.07368421052632"/>
      <point x="264.82105263157894" y="124.3578947368421"/>
    </contour>
  </outline>
</glyph>
<glyph name="x" format="2">
  <advance width="1044.5052631578947"/>
  <unicode hex="0078"/>
  <outline>
    <contour>
      <point x="-43.305263157894736" y="0.0" type="curve"/>
      <point x="118.7157894736842" y="0.0" type="line"/>
      <point x="200.54736842105262" y="91.91578947368421"/>
      <point x="261.2421052631579" y="158.90526315789475"/>
      <point x="341.7894736842105" y="249.89473684210526" type="curve"/>
      <point x="498.1684210526316" y="425.36842105263156" type="line"/>
      <point x="511.03157894736836" y="425.36842105263156" type="line"/>
      <point x="604.421052631579" y="244.82105263157897" type="line"/>
      <point x="651.1157894736841" y="154.90526315789475"/>
      <point x="684.3157894736842" y="89.5578947368421"/>
      <point x="731.0105263157894" y="0.0" type="curve"/>
      <point x="877.9578947368421" y="0.0" type="line"/>
      <point x="809.8947368421053" y="126.14736842105262"/>
      <point x="766.4" y="205.93684210526314"/>
      <point x="713.978947368421" y="302.29473684210524" type="curve"/>
      <point x="591.1368421052631" y="528.5894736842105" type="line"/>
      <point x="588.9263157894736" y="490.2105263157895" type="line"/>
      <point x="785.9157894736842" y="702.0" type="line"/>
      <point x="877.4105263157895" y="800.357894736842"/>
      <point x="933.0526315789474" y="861.7894736842105"/>
      <point x="1053.8315789473686" y="990.8631578947368" type="curve"/>
      <point x="888.5894736842105" y="990.8631578947368" type="line"/>
      <point x="806.4000000000001" y="898.9473684210527"/>
      <point x="746.6315789473684" y="831.2421052631579"/>
      <point x="670.6526315789473" y="745.1789473684211" type="curve"/>
      <point x="523.4105263157895" y="579.5578947368421" type="line"/>
      <point x="511.47368421052636" y="579.5578947368421" type="line"/>
      <point x="430.5052631578947" y="745.5368421052632" type="line"/>
      <point x="391.66315789473686" y="826.3157894736843"/>
      <point x="356.1052631578948" y="900.7368421052631"/>
      <point x="309.05263157894734" y="996.2947368421053" type="curve"/>
      <point x="171.4736842105263" y="990.8631578947368" type="line"/>
      <point x="233.17894736842106" y="868.1473684210526"/>
      <point x="269.0315789473684" y="796.7157894736841"/>
      <point x="320.7368421052632" y="695.0736842105263" type="curve"/>
      <point x="427.22105263157897" y="483.6421052631579" type="line"/>
      <point x="433.7263157894737" y="525.3052631578947" type="line"/>
      <point x="231.95789473684212" y="303.36842105263156" type="line"/>
      <point x="141.17894736842103" y="203.22105263157894"/>
      <point x="76.0421052631579" y="132.14736842105265"/>
    </contour>
  </outline>
</glyph>
<glyph name="y" format="2">
  <advance width="1018.2105263157895"/>
  <unicode hex="0079"/>
  <anchor x="644.7578947368421" y="0.0" name="bottom"/>
  <anchor x="614.1052631578948" y="990.8631578947368" name="top"/>
  <outline>
    <contour>
      <point x="87.66315789473683" y="-389.4315789473684" type="curve"/>
      <point x="234.10526315789474" y="-384.0" type="line"/>
      <point x="321.38947368421054" y="-240.0"/>
      <point x="421.0315789473684" y="-76.56842105263158"/>
      <point x="575.2421052631579" y="177.43157894736842" type="curve"/>
      <point x="744.1684210526315" y="456.14736842105265" type="line"/>
      <point x="895.0947368421052" y="706.5052631578948"/>
      <point x="970.021052631579" y="828.8631578947368"/>
      <point x="1067.3052631578946" y="990.8631578947368" type="curve"/>
      <point x="920.3578947368421" y="990.8631578947368" type="line"/>
      <point x="819.5999999999999" y="818.1052631578947"/>
      <point x="722.8421052631579" y="651.3473684210526"/>
      <point x="620.4421052631578" y="473.66315789473686" type="curve"/>
      <point x="426.5684210526316" y="139.78947368421052" type="line"/>
      <point x="410.9894736842105" y="139.78947368421052" type="line"/>
      <point x="365.15789473684214" y="472.37894736842105" type="line"/>
      <point x="339.6" y="650.7789473684211"/>
      <point x="316.4" y="817.8947368421053"/>
      <point x="290.84210526315786" y="996.2947368421053" type="curve"/>
      <point x="159.62105263157895" y="990.8631578947368" type="line"/>
      <point x="182.54736842105262" y="848.5052631578948"/>
      <point x="207.4736842105263" y="696.5052631578948"/>
      <point x="230.4" y="554.1473684210526" type="curve"/>
      <point x="258.9684210526316" y="374.14736842105265" type="line"/>
      <point x="280.2526315789474" y="241.07368421052632"/>
      <point x="302.82105263157894" y="99.78947368421052"/>
      <point x="325.7473684210526" y="-36.56842105263158" type="curve"/>
      <point x="327.53684210526313" y="4.1684210526315795" type="line"/>
      <point x="249.38947368421054" y="-125.41052631578948"/>
      <point x="165.81052631578947" y="-259.8526315789474"/>
    </contour>
  </outline>
</glyph>
<glyph name="z" format="2">
  <advance width="983.3263157894737"/>
  <unicode hex="007A"/>
  <anchor x="383.6631578947368" y="0.0" name="bottom"/>
  <anchor x="488.0210526315789" y="495.4315789473684" name="center"/>
  <anchor x="592.378947368421" y="990.8631578947368" name="top"/>
  <outline>
    <contour>
      <point x="-23.515789473684215" y="0.0" type="line"/>
      <point x="804.6947368421053" y="0.0" type="line"/>
      <point x="826.7157894736843" y="103.2421052631579" type="line"/>
      <point x="687.6631578947369" y="103.2421052631579"/>
      <point x="499.8315789473685" y="103.2421052631579"/>
      <point x="386.98947368421057" y="103.2421052631579" type="curve"/>
      <point x="137.09473684210528" y="103.2421052631579" type="line"/>
      <point x="153.17894736842106" y="72.71578947368421" type="line"/>
      <point x="572.1684210526316" y="504.63157894736844" type="line"/>
      <point x="701.578947368421" y="638.4"/>
      <point x="864.6947368421053" y="805.8736842105263"/>
      <point x="963.6842105263158" y="908.5052631578948" type="curve"/>
      <point x="980.8421052631579" y="990.8631578947368" type="line"/>
      <point x="187.70526315789473" y="990.8631578947368" type="line"/>
      <point x="165.68421052631578" y="887.2631578947369" type="line"/>
      <point x="316.37894736842105" y="887.2631578947369"/>
      <point x="506.92631578947373" y="887.2631578947369"/>
      <point x="618.1263157894737" y="887.2631578947369" type="curve"/>
      <point x="844.5263157894736" y="887.2631578947369" type="line"/>
      <point x="825.2210526315789" y="936.5052631578948" type="line"/>
      <point x="404.29473684210524" y="499.7894736842105" type="line"/>
      <point x="281.8105263157895" y="372.94736842105266"/>
      <point x="138.54736842105262" y="222.96842105263158"/>
      <point x="-9.431578947368426" y="70.27368421052631" type="curve"/>
    </contour>
  </outline>
</glyph>
<glyph name="asciitilde" format="2">
  <advance width="1130.7368421052631"/>
  <unicode hex="007E"/>
  <outline>
    <contour>
      <point x="810.6526315789474" y="450.2526315789474" type="curve" smooth="yes"/>
      <point x="931.7473684210527" y="450.2526315789474"/>
      <point x="1013.1157894736842" y="544.7157894736843"/>
      <point x="1048.1263157894737" y="711.621052631579" type="curve"/>
      <point x="955.7684210526317" y="711.621052631579" type="line"/>
      <point x="927.5578947368421" y="613.2210526315789"/>
      <point x="884.9263157894737" y="568.4421052631579"/>
      <point x="807.7263157894737" y="568.4421052631579" type="curve"/>
      <point x="667.2421052631579" y="568.4421052631579"/>
      <point x="545.0947368421052" y="740.8421052631579"/>
      <point x="369.66315789473686" y="740.8421052631579" type="curve" smooth="yes"/>
      <point x="246.42105263157896" y="740.8421052631579"/>
      <point x="162.69473684210527" y="646.021052631579"/>
      <point x="126.04210526315791" y="479.4736842105263" type="curve"/>
      <point x="218.4" y="479.4736842105263" type="line"/>
      <point x="246.61052631578949" y="577.8736842105263"/>
      <point x="291.95789473684215" y="622.6526315789474"/>
      <point x="369.87368421052633" y="622.6526315789474" type="curve"/>
      <point x="508.5684210526316" y="622.6526315789474"/>
      <point x="634.1473684210526" y="450.2526315789474"/>
    </contour>
  </outline>
</glyph>
<glyph name="cent" format="2">
  <advance width="993.978947368421"/>
  <unicode hex="00A2"/>
  <anchor x="469.9157894736842" y="0.0" name="bottom"/>
  <anchor x="663.8526315789474" y="990.8631578947368" name="top"/>
  <outline>
    <contour>
      <point x="345.17894736842106" y="-274.0" type="curve"/>
      <point x="446.4842105263158" y="-274.0" type="line"/>
      <point x="496.12631578947367" y="-40.71578947368421"/>
      <point x="540.4842105263158" y="168.0"/>
      <point x="586.4842105263158" y="384.3578947368421" type="curve"/>
      <point x="630.4842105263158" y="589.4315789473684" type="line"/>
      <point x="676.4842105263158" y="805.7894736842105"/>
      <point x="720.4842105263158" y="1013.4315789473684"/>
      <point x="770.4842105263158" y="1247.7894736842106" type="curve"/>
      <point x="669.1789473684211" y="1247.7894736842106" type="line"/>
      <point x="619.1789473684211" y="1013.7894736842105"/>
      <point x="575.1789473684211" y="805.4315789473684"/>
      <point x="529.1789473684211" y="589.4315789473684" type="curve"/>
      <point x="485.17894736842106" y="384.3578947368421" type="line"/>
      <point x="439.5368421052632" y="169.43157894736842"/>
      <point x="395.17894736842106" y="-39.642105263157895"/>
    </contour>
    <contour>
      <point x="558.6526315789473" y="-19.431578947368422" type="curve" smooth="yes"/>
      <point x="660.1473684210526" y="-19.431578947368422"/>
      <point x="751.2842105263159" y="10.631578947368421"/>
      <point x="805.2842105263159" y="43.2" type="curve"/>
      <point x="816.3789473684211" y="171.2421052631579" type="line"/>
      <point x="744.8842105263158" y="125.03157894736843"/>
      <point x="661.5368421052632" y="97.17894736842106"/>
      <point x="575.1157894736842" y="97.17894736842106" type="curve" smooth="yes"/>
      <point x="327.9578947368421" y="97.17894736842106"/>
      <point x="188.1263157894737" y="262.4210526315789"/>
      <point x="247.6842105263158" y="533.2842105263157" type="curve" smooth="yes"/>
      <point x="297.6" y="764.5052631578948"/>
      <point x="461.91578947368424" y="894.2526315789473"/>
      <point x="658.8631578947368" y="894.2526315789473" type="curve"/>
      <point x="761.0526315789474" y="894.2526315789473"/>
      <point x="849.621052631579" y="869.4736842105262"/>
      <point x="944.3368421052631" y="803.1157894736842" type="curve"/>
      <point x="981.3684210526316" y="922.9473684210527" type="line"/>
      <point x="896.0" y="980.8000000000001"/>
      <point x="779.2842105263159" y="1012.6526315789474"/>
      <point x="656.9263157894737" y="1012.6526315789474" type="curve" smooth="yes"/>
      <point x="381.89473684210526" y="1012.6526315789474"/>
      <point x="173.6842105263158" y="823.7263157894737"/>
      <point x="116.96842105263158" y="549.9368421052632" type="curve" smooth="yes"/>
      <point x="45.53684210526316" y="218.06315789473686"/>
      <point x="225.20000000000002" y="-19.431578947368422"/>
    </contour>
  </outline>
</glyph>
<glyph name="sterling" format="2">
  <advance width="1173.7473684210527"/>
  <unicode hex="00A3"/>
  <outline>
    <contour>
      <point x="29.68421052631578" y="0.0" type="line"/>
      <point x="999.5368421052631" y="0.0" type="line"/>
      <point x="1026.0631578947368" y="120.84210526315789" type="line"/>
      <point x="852.357894736842" y="120.84210526315789"/>
      <point x="700.2947368421052" y="120.84210526315789"/>
      <point x="440.37894736842105" y="120.84210526315789" type="curve"/>
      <point x="151.89473684210526" y="120.84210526315789" type="line"/>
      <point x="173.2" y="78.90526315789474" type="line"/>
      <point x="340.42105263157896" y="199.17894736842106"/>
      <point x="388.77894736842103" y="319.0947368421053"/>
      <point x="420.63157894736844" y="465.57894736842104" type="curve" smooth="yes"/>
      <point x="520.1052631578947" y="930.1052631578947" type="line" smooth="yes"/>
      <point x="570.378947368421" y="1164.336842105263"/>
      <point x="680.1473684210526" y="1273.957894736842"/>
      <point x="873.3894736842105" y="1273.957894736842" type="curve"/>
      <point x="981.2210526315789" y="1273.957894736842"/>
      <point x="1076.505263157895" y="1248.463157894737"/>
      <point x="1173.7263157894738" y="1183.5368421052633" type="curve"/>
      <point x="1213.6210526315788" y="1306.5894736842106" type="line"/>
      <point x="1123.957894736842" y="1364.084210526316"/>
      <point x="997.6631578947369" y="1395.578947368421"/>
      <point x="865.3684210526316" y="1395.578947368421" type="curve" smooth="yes"/>
      <point x="622.8210526315789" y="1395.578947368421"/>
      <point x="451.9578947368421" y="1252.6315789473686"/>
      <point x="389.2421052631579" y="951.978947368421" type="curve" smooth="yes"/>
      <point x="355.3894736842105" y="798.2105263157894"/>
      <point x="312.82105263157894" y="597.3684210526316"/>
      <point x="279.53684210526313" y="438.58947368421053" type="curve"/>
      <point x="253.32631578947365" y="313.17894736842106"/>
      <point x="202.40000000000003" y="190.69473684210527"/>
      <point x="48.12631578947368" y="81.85263157894737" type="curve"/>
    </contour>
    <contour>
      <point x="168.96842105263158" y="706.8631578947368" type="line"/>
      <point x="291.05263157894734" y="706.8631578947368"/>
      <point x="406.77894736842103" y="706.8631578947368"/>
      <point x="506.1473684210527" y="706.8631578947368" type="curve"/>
      <point x="571.1578947368422" y="706.8631578947368" type="line"/>
      <point x="670.5263157894738" y="706.8631578947368"/>
      <point x="786.2526315789474" y="706.8631578947368"/>
      <point x="908.3368421052633" y="706.8631578947368" type="curve"/>
      <point x="929.2842105263159" y="806.5263157894736" type="line"/>
      <point x="807.2" y="806.5263157894736"/>
      <point x="691.4736842105264" y="806.5263157894736"/>
      <point x="592.1052631578948" y="806.5263157894736" type="curve"/>
      <point x="527.0947368421054" y="806.5263157894736" type="line"/>
      <point x="427.7263157894737" y="806.5263157894736"/>
      <point x="312.0" y="806.5263157894736"/>
      <point x="189.9157894736842" y="806.5263157894736" type="curve"/>
    </contour>
  </outline>
</glyph>
<glyph name="currency" format="2">
  <advance width="1230.0631578947368"/>
  <unicode hex="00A4"/>
  <outline>
    <contour>
      <point x="615.2421052631579" y="240.31578947368422" type="curve" smooth="yes"/>
      <point x="837.9157894736842" y="240.31578947368422"/>
      <point x="988.5052631578948" y="352.46315789473687"/>
      <point x="1035.7263157894736" y="589.9157894736843" type="curve" smooth="yes"/>
      <point x="1084.5894736842106" y="833.0105263157894"/>
      <point x="918.0" y="1040.6105263157895"/>
      <point x="673.0315789473684" y="1040.6105263157895" type="curve" smooth="yes"/>
      <point x="461.85263157894735" y="1040.6105263157895"/>
      <point x="296.8421052631579" y="930.1052631578947"/>
      <point x="249.62105263157895" y="692.6526315789474" type="curve" smooth="yes"/>
      <point x="200.7578947368421" y="447.91578947368424"/>
      <point x="363.7052631578947" y="240.31578947368422"/>
    </contour>
    <contour>
      <point x="175.91578947368419" y="121.36842105263158" type="line"/>
      <point x="265.8526315789474" y="205.30526315789473"/>
      <point x="350.1473684210526" y="283.2421052631579"/>
      <point x="422.4421052631579" y="351.17894736842106" type="curve"/>
      <point x="341.64210526315793" y="438.1263157894737" type="line"/>
      <point x="269.70526315789476" y="370.5473684210526"/>
      <point x="185.41052631578947" y="292.61052631578946"/>
      <point x="95.1157894736842" y="208.67368421052632" type="curve"/>
    </contour>
    <contour>
      <point x="623.5368421052632" y="356.5684210526316" type="curve"/>
      <point x="448.5052631578947" y="356.5684210526316"/>
      <point x="334.10526315789474" y="502.4631578947368"/>
      <point x="368.5263157894737" y="676.7789473684211" type="curve" smooth="yes"/>
      <point x="400.58947368421053" y="842.5894736842106"/>
      <point x="518.1263157894737" y="925.4315789473684"/>
      <point x="666.1684210526316" y="925.4315789473684" type="curve"/>
      <point x="836.2736842105263" y="925.4315789473684"/>
      <point x="951.6" y="778.1052631578947"/>
      <point x="917.8947368421053" y="607.2210526315789" type="curve" smooth="yes"/>
      <point x="884.1894736842106" y="437.2631578947368"/>
      <point x="780.3578947368421" y="356.5684210526316"/>
    </contour>
    <contour>
      <point x="393.13684210526316" y="828.3789473684211" type="curve"/>
      <point x="477.36842105263156" y="907.3894736842105" type="line"/>
      <point x="407.7894736842105" y="981.3263157894737"/>
      <point x="331.4947368421052" y="1063.621052631579"/>
      <point x="247.55789473684212" y="1153.915789473684" type="curve"/>
      <point x="163.6842105263158" y="1074.9052631578948" type="line"/>
      <point x="245.97894736842105" y="986.2526315789474"/>
      <point x="325.5578947368421" y="900.3157894736843"/>
    </contour>
    <contour>
      <point x="1045.7894736842104" y="129.36842105263156" type="curve"/>
      <point x="1129.6631578947367" y="208.37894736842105" type="line"/>
      <point x="1047.3684210526314" y="297.0315789473684"/>
      <point x="967.7894736842105" y="382.9684210526316"/>
      <point x="900.2105263157895" y="454.9052631578947" type="curve"/>
      <point x="815.9789473684211" y="375.89473684210526" type="line"/>
      <point x="883.9157894736842" y="303.59999999999997"/>
      <point x="963.4947368421052" y="218.02105263157895"/>
    </contour>
    <contour>
      <point x="951.7052631578948" y="845.1578947368421" type="line"/>
      <point x="1021.9999999999999" y="911.0947368421052"/>
      <point x="1107.9368421052632" y="990.6736842105263"/>
      <point x="1198.2315789473685" y="1074.6105263157895" type="curve"/>
      <point x="1117.4315789473683" y="1161.915789473684" type="line"/>
      <point x="1027.494736842105" y="1077.978947368421"/>
      <point x="938.2736842105263" y="995.1157894736842"/>
      <point x="870.9052631578948" y="932.1052631578948" type="curve"/>
    </contour>
  </outline>
</glyph>
<glyph name="yen" format="2">
  <advance width="1233.2"/>
  <unicode hex="00A5"/>
  <outline>
    <contour>
      <point x="568.1684210526316" y="551.6631578947369" type="line"/>
      <point x="689.1578947368421" y="551.6631578947369" type="line"/>
      <point x="1092.8631578947368" y="1045.7684210526315" type="line"/>
      <point x="1185.7894736842106" y="1159.3473684210526"/>
      <point x="1276.357894736842" y="1270.2105263157894"/>
      <point x="1358.0" y="1370.1473684210525" type="curve"/>
      <point x="1192.2526315789473" y="1370.1473684210525" type="line"/>
      <point x="1042.6526315789474" y="1182.6736842105263"/>
      <point x="973.9578947368421" y="1096.3999999999999"/>
      <point x="854.421052631579" y="946.7789473684211" type="curve"/>
      <point x="657.6210526315789" y="699.9578947368421" type="line"/>
      <point x="642.7578947368421" y="699.9578947368421" type="line"/>
      <point x="552.2947368421053" y="938.0631578947368" type="line"/>
      <point x="495.3894736842105" y="1087.8947368421052"/>
      <point x="461.47368421052636" y="1180.1052631578948"/>
      <point x="389.4315789473684" y="1370.1473684210525" type="curve"/>
      <point x="245.2" y="1370.1473684210525" type="line"/>
      <point x="310.33684210526314" y="1204.421052631579"/>
      <point x="335.2631578947369" y="1141.915789473684"/>
      <point x="373.4736842105263" y="1044.6947368421052" type="curve"/>
    </contour>
    <contour>
      <point x="444.16842105263163" y="0.0" type="curve"/>
      <point x="578.8210526315789" y="0.0" type="line"/>
      <point x="612.1052631578947" y="153.49473684210525"/>
      <point x="639.7473684210527" y="285.34736842105264"/>
      <point x="675.7473684210527" y="452.06315789473683" type="curve"/>
      <point x="719.978947368421" y="661.0736842105263" type="line"/>
      <point x="585.3263157894737" y="661.0736842105263" type="line"/>
      <point x="541.0947368421054" y="452.42105263157896" type="line"/>
      <point x="505.0947368421053" y="285.70526315789476"/>
      <point x="477.45263157894743" y="153.49473684210525"/>
    </contour>
    <contour>
      <point x="121.6842105263158" y="294.1684210526316" type="line"/>
      <point x="243.76842105263157" y="294.1684210526316"/>
      <point x="359.4947368421052" y="294.1684210526316"/>
      <point x="458.86315789473684" y="294.1684210526316" type="curve"/>
      <point x="691.0315789473684" y="294.1684210526316" type="line"/>
      <point x="790.4000000000001" y="294.1684210526316"/>
      <point x="906.1263157894738" y="294.1684210526316"/>
      <point x="1028.2105263157894" y="294.1684210526316" type="curve"/>
      <point x="1048.0842105263157" y="386.6736842105263" type="line"/>
      <point x="926.0" y="386.6736842105263"/>
      <point x="810.2736842105263" y="386.6736842105263"/>
      <point x="710.9052631578946" y="386.6736842105263" type="curve"/>
      <point x="478.7368421052632" y="386.6736842105263" type="line"/>
      <point x="379.36842105263156" y="386.6736842105263"/>
      <point x="263.6421052631579" y="386.6736842105263"/>
      <point x="141.55789473684212" y="386.6736842105263" type="curve"/>
    </contour>
    <contour>
      <point x="181.26315789473685" y="571.7052631578947" type="line"/>
      <point x="303.34736842105264" y="571.7052631578947"/>
      <point x="419.0736842105263" y="571.7052631578947"/>
      <point x="518.4421052631579" y="571.7052631578947" type="curve"/>
      <point x="750.6105263157895" y="571.7052631578947" type="line"/>
      <point x="849.9789473684211" y="571.7052631578947"/>
      <point x="965.7052631578948" y="571.7052631578947"/>
      <point x="1087.7894736842104" y="571.7052631578947" type="curve"/>
      <point x="1107.6631578947367" y="664.2105263157895" type="line"/>
      <point x="985.5789473684212" y="664.2105263157895"/>
      <point x="869.8526315789475" y="664.2105263157895"/>
      <point x="770.4842105263158" y="664.2105263157895" type="curve"/>
      <point x="538.3157894736843" y="664.2105263157895" type="line"/>
      <point x="438.9473684210526" y="664.2105263157895"/>
      <point x="323.2210526315789" y="664.2105263157895"/>
      <point x="201.13684210526316" y="664.2105263157895" type="curve"/>
    </contour>
  </outline>
</glyph>
<glyph name="brokenbar" format="2">
  <advance width="518.6105263157895"/>
  <unicode hex="00A6"/>
  <outline>
    <contour>
      <point x="251.2421052631579" y="728.421052631579" type="line"/>
      <point x="368.5052631578948" y="728.421052631579" type="line"/>
      <point x="406.86315789473684" y="910.421052631579" type="line"/>
      <point x="452.86315789473684" y="1126.421052631579"/>
      <point x="496.86315789473684" y="1334.421052631579"/>
      <point x="546.8631578947369" y="1568.421052631579" type="curve"/>
      <point x="429.59999999999997" y="1568.421052631579" type="line"/>
      <point x="379.59999999999997" y="1334.421052631579"/>
      <point x="335.59999999999997" y="1126.421052631579"/>
      <point x="289.59999999999997" y="910.421052631579" type="curve"/>
    </contour>
    <contour>
      <point x="29.6" y="-311.57894736842104" type="curve"/>
      <point x="146.86315789473684" y="-311.57894736842104" type="line"/>
      <point x="196.86315789473684" y="-77.57894736842105"/>
      <point x="240.86315789473684" y="130.42105263157896"/>
      <point x="286.86315789473684" y="346.42105263157896" type="curve"/>
      <point x="324.86315789473684" y="528.421052631579" type="line"/>
      <point x="207.6" y="528.421052631579" type="line"/>
      <point x="169.6" y="346.42105263157896" type="line"/>
      <point x="123.60000000000001" y="130.42105263157896"/>
      <point x="79.60000000000001" y="-77.57894736842105"/>
    </contour>
  </outline>
</glyph>
<glyph name="section" format="2">
  <advance width="1074.3908045977012"/>
  <unicode hex="00A7"/>
  <outline>
    <contour>
      <point x="374.5057471264368" y="-248.68965517241378" type="curve" smooth="yes"/>
      <point x="626.1379310344828" y="-248.68965517241378"/>
      <point x="766.0459770114942" y="-146.4367816091954"/>
      <point x="802.8275862068965" y="25.471264367816087" type="curve" smooth="yes"/>
      <point x="847.6091954022988" y="230.59770114942532"/>
      <point x="707.7701149425287" y="335.3793103448276"/>
      <point x="497.1724137931035" y="428.9425287356322" type="curve" smooth="yes"/>
      <point x="281.14942528735634" y="524.7816091954023"/>
      <point x="249.49425287356323" y="588.528735632184"/>
      <point x="274.367816091954" y="703.3333333333333" type="curve" smooth="yes"/>
      <point x="302.45977011494256" y="835.448275862069"/>
      <point x="436.04597701149424" y="873.3563218390805"/>
      <point x="521.3563218390805" y="878.9195402298851" type="curve"/>
      <point x="443.97701149425285" y="974.0919540229885" type="line"/>
      <point x="305.7241379310345" y="951.2183908045977"/>
      <point x="173.49425287356323" y="861.3103448275862"/>
      <point x="142.36781609195404" y="716.0229885057472" type="curve" smooth="yes"/>
      <point x="103.93103448275862" y="535.0574712643679"/>
      <point x="196.29885057471265" y="440.89655172413796"/>
      <point x="403.2413793103448" y="343.7701149425287" type="curve" smooth="yes"/>
      <point x="625.9540229885057" y="239.58620689655174"/>
      <point x="700.4827586206898" y="180.5287356321839"/>
      <point x="670.3908045977012" y="38.85057471264368" type="curve" smooth="yes"/>
      <point x="640.2988505747127" y="-103.26436781609195"/>
      <point x="504.2758620689656" y="-134.22988505747128"/>
      <point x="367.5632183908046" y="-134.22988505747128" type="curve"/>
      <point x="222.25287356321837" y="-134.22988505747128"/>
      <point x="108.4367816091954" y="-82.32183908045975"/>
      <point x="4.781609195402297" y="-7.1034482758620685" type="curve"/>
      <point x="-34.50574712643678" y="-123.816091954023" type="line"/>
      <point x="63.839080459770116" y="-192.6896551724138"/>
      <point x="213.40229885057468" y="-248.68965517241378"/>
    </contour>
    <contour>
      <point x="713.6321839080459" y="233.99999999999997" type="line"/>
      <point x="874.1379310344828" y="263.65517241379314"/>
      <point x="975.4252873563219" y="354.7816091954023"/>
      <point x="1004.9885057471264" y="496.5057471264368" type="curve" smooth="yes"/>
      <point x="1046.6436781609195" y="693.816091954023"/>
      <point x="909.9310344827586" y="796.1609195402299"/>
      <point x="700.1149425287356" y="889.7241379310345" type="curve" smooth="yes"/>
      <point x="485.65517241379314" y="985.5632183908046"/>
      <point x="451.65517241379314" y="1052.183908045977"/>
      <point x="476.52873563218395" y="1167.3333333333333" type="curve" smooth="yes"/>
      <point x="507.8390804597702" y="1309.8850574712644"/>
      <point x="657.5172413793103" y="1337.103448275862"/>
      <point x="737.264367816092" y="1337.103448275862" type="curve"/>
      <point x="842.5747126436781" y="1337.103448275862"/>
      <point x="970.919540229885" y="1301.9770114942528"/>
      <point x="1070.1379310344828" y="1236.4137931034484" type="curve"/>
      <point x="1107.4252873563219" y="1352.0" type="line"/>
      <point x="1004.1149425287357" y="1416.873563218391"/>
      <point x="863.0804597701149" y="1451.5632183908046"/>
      <point x="725.5402298850574" y="1451.5632183908046" type="curve" smooth="yes"/>
      <point x="534.4367816091954" y="1451.5632183908046"/>
      <point x="380.8735632183908" y="1354.8735632183907"/>
      <point x="344.5287356321839" y="1184.712643678161" type="curve" smooth="yes"/>
      <point x="304.5287356321839" y="995.9310344827586"/>
      <point x="406.27586206896547" y="898.551724137931"/>
      <point x="606.9655172413793" y="805.3333333333333" type="curve" smooth="yes"/>
      <point x="829.6781609195402" y="701.9310344827586"/>
      <point x="903.8620689655172" y="642.9655172413793"/>
      <point x="874.551724137931" y="501.2873563218391" type="curve" smooth="yes"/>
      <point x="850.4597701149424" y="387.60919540229884"/>
      <point x="745.9310344827586" y="335.7011494252874"/>
      <point x="634.8735632183908" y="324.48275862068965" type="curve"/>
    </contour>
  </outline>
</glyph>
<glyph name="copyright" format="2">
  <advance width="1642.9684210526316"/>
  <unicode hex="00A9"/>
  <outline>
    <contour>
      <point x="868.4842105263158" y="-20.50526315789474" type="curve" smooth="yes"/>
      <point x="1307.7894736842106" y="-20.50526315789474"/>
      <point x="1575.8526315789475" y="282.2105263157895"/>
      <point x="1575.8526315789475" y="688.3578947368421" type="curve" smooth="yes"/>
      <point x="1575.8526315789475" y="1081.4315789473685"/>
      <point x="1320.1473684210525" y="1395.578947368421"/>
      <point x="863.0526315789474" y="1395.578947368421" type="curve" smooth="yes"/>
      <point x="413.6" y="1395.578947368421"/>
      <point x="147.1157894736842" y="1086.7157894736843"/>
      <point x="147.1157894736842" y="688.0" type="curve" smooth="yes"/>
      <point x="147.1157894736842" y="303.7894736842105"/>
      <point x="391.38947368421054" y="-20.50526315789474"/>
    </contour>
    <contour>
      <point x="884.9894736842106" y="311.6421052631579" type="curve" smooth="yes"/>
      <point x="978.421052631579" y="311.6421052631579"/>
      <point x="1052.6315789473683" y="334.77894736842103"/>
      <point x="1100.0631578947368" y="360.9894736842105" type="curve"/>
      <point x="1088.0631578947368" y="462.77894736842103" type="line"/>
      <point x="1028.3578947368421" y="425.2842105263158"/>
      <point x="964.6526315789474" y="408.0"/>
      <point x="898.9473684210526" y="408.0" type="curve"/>
      <point x="724.1263157894737" y="408.0"/>
      <point x="630.0" y="520.4"/>
      <point x="630.0" y="690.7157894736843" type="curve" smooth="yes"/>
      <point x="630.0" y="870.021052631579"/>
      <point x="734.4" y="968.2105263157895"/>
      <point x="880.8631578947368" y="968.2105263157895" type="curve"/>
      <point x="935.8526315789474" y="968.2105263157895"/>
      <point x="1004.9894736842106" y="957.2842105263157"/>
      <point x="1086.9894736842105" y="907.6421052631579" type="curve"/>
      <point x="1097.4947368421053" y="1009.7894736842105" type="line"/>
      <point x="1040.778947368421" y="1043.0736842105264"/>
      <point x="955.3473684210526" y="1066.0"/>
      <point x="872.2736842105263" y="1066.0" type="curve" smooth="yes"/>
      <point x="649.6842105263158" y="1066.0"/>
      <point x="521.1157894736842" y="902.3578947368421"/>
      <point x="521.1157894736842" y="688.9263157894737" type="curve" smooth="yes"/>
      <point x="521.1157894736842" y="475.4947368421053"/>
      <point x="651.978947368421" y="311.6421052631579"/>
    </contour>
    <contour>
      <point x="868.1263157894737" y="72.48421052631579" type="curve"/>
      <point x="477.4947368421053" y="72.48421052631579"/>
      <point x="242.96842105263158" y="313.41052631578947"/>
      <point x="242.96842105263158" y="688.0" type="curve" smooth="yes"/>
      <point x="242.96842105263158" y="1059.6"/>
      <point x="485.85263157894735" y="1302.5894736842106"/>
      <point x="863.4105263157895" y="1302.5894736842106" type="curve"/>
      <point x="1243.3263157894737" y="1302.5894736842106"/>
      <point x="1480.0" y="1062.5263157894738"/>
      <point x="1480.0" y="688.3578947368421" type="curve" smooth="yes"/>
      <point x="1480.0" y="312.4"/>
      <point x="1239.8947368421052" y="72.48421052631579"/>
    </contour>
  </outline>
</glyph>
